<svg xmlns="http://www.w3.org/2000/svg" xmlns:xlink="http://www.w3.org/1999/xlink" width="330" zoomAndPan="magnify" viewBox="0 0 247.5 77.999999" height="104" preserveAspectRatio="xMidYMid meet" version="1.0"><defs><g/><clipPath id="7efdcc082b"><path d="M 0 0.40625 L 247 0.40625 L 247 77.59375 L 0 77.59375 Z M 0 0.40625 " clip-rule="nonzero"/></clipPath><clipPath id="21a184fbab"><path d="M 38.59375 0.40625 L 208.40625 0.40625 C 229.722656 0.40625 247 17.683594 247 39 C 247 60.316406 229.722656 77.59375 208.40625 77.59375 L 38.59375 77.59375 C 17.277344 77.59375 0 60.316406 0 39 C 0 17.683594 17.277344 0.40625 38.59375 0.40625 Z M 38.59375 0.40625 " clip-rule="nonzero"/></clipPath><clipPath id="c2cca35e9f"><path d="M 0 0.40625 L 247 0.40625 L 247 77.59375 L 0 77.59375 Z M 0 0.40625 " clip-rule="nonzero"/></clipPath><clipPath id="1e2d330926"><path d="M 38.59375 0.40625 L 208.40625 0.40625 C 229.722656 0.40625 247 17.683594 247 39 C 247 60.316406 229.722656 77.59375 208.40625 77.59375 L 38.59375 77.59375 C 17.277344 77.59375 0 60.316406 0 39 C 0 17.683594 17.277344 0.40625 38.59375 0.40625 Z M 38.59375 0.40625 " clip-rule="nonzero"/></clipPath><clipPath id="33e892ab29"><rect x="0" width="247" y="0" height="78"/></clipPath><clipPath id="48f26814bb"><path d="M 0 0.40625 L 247 0.40625 L 247 77.5 L 0 77.5 Z M 0 0.40625 " clip-rule="nonzero"/></clipPath><clipPath id="a087c226bc"><path d="M 38.59375 0.40625 L 208.40625 0.40625 C 229.722656 0.40625 247 17.683594 247 39 C 247 60.316406 229.722656 77.59375 208.40625 77.59375 L 38.59375 77.59375 C 17.277344 77.59375 0 60.316406 0 39 C 0 17.683594 17.277344 0.40625 38.59375 0.40625 Z M 38.59375 0.40625 " clip-rule="nonzero"/></clipPath><linearGradient x1="0" gradientTransform="matrix(3.160255, 0, 0, 3.160255, 0, 0.0000000182292)" y1="16.316" x2="104.421964" gradientUnits="userSpaceOnUse" y2="16.316" id="b020ef725e"><stop stop-opacity="1" stop-color="rgb(0%, 0%, 0%)" offset="0"/><stop stop-opacity="1" stop-color="rgb(0.0808716%, 0.0778198%, 0.312805%)" offset="0.00390625"/><stop stop-opacity="1" stop-color="rgb(0.161743%, 0.15564%, 0.627136%)" offset="0.0078125"/><stop stop-opacity="1" stop-color="rgb(0.242615%, 0.233459%, 0.941467%)" offset="0.0117188"/><stop stop-opacity="1" stop-color="rgb(0.323486%, 0.311279%, 1.255798%)" offset="0.015625"/><stop stop-opacity="1" stop-color="rgb(0.404358%, 0.389099%, 1.568604%)" offset="0.0195313"/><stop stop-opacity="1" stop-color="rgb(0.486755%, 0.468445%, 1.882935%)" offset="0.0234375"/><stop stop-opacity="1" stop-color="rgb(0.567627%, 0.546265%, 2.197266%)" offset="0.0273438"/><stop stop-opacity="1" stop-color="rgb(0.648499%, 0.624084%, 2.511597%)" offset="0.03125"/><stop stop-opacity="1" stop-color="rgb(0.72937%, 0.701904%, 2.824402%)" offset="0.0351562"/><stop stop-opacity="1" stop-color="rgb(0.810242%, 0.779724%, 3.138733%)" offset="0.0390625"/><stop stop-opacity="1" stop-color="rgb(0.891113%, 0.857544%, 3.453064%)" offset="0.0429688"/><stop stop-opacity="1" stop-color="rgb(0.973511%, 0.93689%, 3.767395%)" offset="0.046875"/><stop stop-opacity="1" stop-color="rgb(1.054382%, 1.014709%, 4.081726%)" offset="0.0507812"/><stop stop-opacity="1" stop-color="rgb(1.135254%, 1.092529%, 4.396057%)" offset="0.0546875"/><stop stop-opacity="1" stop-color="rgb(1.216125%, 1.170349%, 4.708862%)" offset="0.0585938"/><stop stop-opacity="1" stop-color="rgb(1.298523%, 1.249695%, 5.023193%)" offset="0.0625"/><stop stop-opacity="1" stop-color="rgb(1.379395%, 1.327515%, 5.337524%)" offset="0.0664062"/><stop stop-opacity="1" stop-color="rgb(1.460266%, 1.405334%, 5.651855%)" offset="0.0703125"/><stop stop-opacity="1" stop-color="rgb(1.541138%, 1.483154%, 5.964661%)" offset="0.0742188"/><stop stop-opacity="1" stop-color="rgb(1.622009%, 1.560974%, 6.278992%)" offset="0.078125"/><stop stop-opacity="1" stop-color="rgb(1.702881%, 1.638794%, 6.593323%)" offset="0.0820312"/><stop stop-opacity="1" stop-color="rgb(1.785278%, 1.71814%, 6.907654%)" offset="0.0859375"/><stop stop-opacity="1" stop-color="rgb(1.86615%, 1.795959%, 7.221985%)" offset="0.0898438"/><stop stop-opacity="1" stop-color="rgb(1.947021%, 1.873779%, 7.536316%)" offset="0.09375"/><stop stop-opacity="1" stop-color="rgb(2.027893%, 1.951599%, 7.849121%)" offset="0.0976562"/><stop stop-opacity="1" stop-color="rgb(2.110291%, 2.030945%, 8.163452%)" offset="0.101562"/><stop stop-opacity="1" stop-color="rgb(2.191162%, 2.108765%, 8.477783%)" offset="0.105469"/><stop stop-opacity="1" stop-color="rgb(2.272034%, 2.186584%, 8.792114%)" offset="0.109375"/><stop stop-opacity="1" stop-color="rgb(2.352905%, 2.264404%, 9.104919%)" offset="0.113281"/><stop stop-opacity="1" stop-color="rgb(2.433777%, 2.342224%, 9.41925%)" offset="0.117188"/><stop stop-opacity="1" stop-color="rgb(2.514648%, 2.420044%, 9.733582%)" offset="0.121094"/><stop stop-opacity="1" stop-color="rgb(2.597046%, 2.49939%, 10.047913%)" offset="0.125"/><stop stop-opacity="1" stop-color="rgb(2.677917%, 2.577209%, 10.362244%)" offset="0.128906"/><stop stop-opacity="1" stop-color="rgb(2.758789%, 2.655029%, 10.676575%)" offset="0.132812"/><stop stop-opacity="1" stop-color="rgb(2.839661%, 2.732849%, 10.98938%)" offset="0.136719"/><stop stop-opacity="1" stop-color="rgb(2.922058%, 2.812195%, 11.303711%)" offset="0.140625"/><stop stop-opacity="1" stop-color="rgb(3.00293%, 2.890015%, 11.618042%)" offset="0.144531"/><stop stop-opacity="1" stop-color="rgb(3.083801%, 2.967834%, 11.932373%)" offset="0.148438"/><stop stop-opacity="1" stop-color="rgb(3.164673%, 3.045654%, 12.245178%)" offset="0.152344"/><stop stop-opacity="1" stop-color="rgb(3.245544%, 3.123474%, 12.559509%)" offset="0.15625"/><stop stop-opacity="1" stop-color="rgb(3.326416%, 3.201294%, 12.87384%)" offset="0.160156"/><stop stop-opacity="1" stop-color="rgb(3.408813%, 3.28064%, 13.188171%)" offset="0.164062"/><stop stop-opacity="1" stop-color="rgb(3.489685%, 3.358459%, 13.502502%)" offset="0.167969"/><stop stop-opacity="1" stop-color="rgb(3.570557%, 3.436279%, 13.816833%)" offset="0.171875"/><stop stop-opacity="1" stop-color="rgb(3.651428%, 3.514099%, 14.129639%)" offset="0.175781"/><stop stop-opacity="1" stop-color="rgb(3.733826%, 3.593445%, 14.44397%)" offset="0.179688"/><stop stop-opacity="1" stop-color="rgb(3.814697%, 3.671265%, 14.758301%)" offset="0.183594"/><stop stop-opacity="1" stop-color="rgb(3.895569%, 3.749084%, 15.072632%)" offset="0.1875"/><stop stop-opacity="1" stop-color="rgb(3.97644%, 3.826904%, 15.385437%)" offset="0.191406"/><stop stop-opacity="1" stop-color="rgb(4.057312%, 3.904724%, 15.699768%)" offset="0.195312"/><stop stop-opacity="1" stop-color="rgb(4.138184%, 3.982544%, 16.014099%)" offset="0.199219"/><stop stop-opacity="1" stop-color="rgb(4.220581%, 4.06189%, 16.32843%)" offset="0.203125"/><stop stop-opacity="1" stop-color="rgb(4.301453%, 4.139709%, 16.642761%)" offset="0.207031"/><stop stop-opacity="1" stop-color="rgb(4.382324%, 4.217529%, 16.957092%)" offset="0.210938"/><stop stop-opacity="1" stop-color="rgb(4.463196%, 4.295349%, 17.269897%)" offset="0.214844"/><stop stop-opacity="1" stop-color="rgb(4.545593%, 4.374695%, 17.584229%)" offset="0.21875"/><stop stop-opacity="1" stop-color="rgb(4.626465%, 4.452515%, 17.89856%)" offset="0.222656"/><stop stop-opacity="1" stop-color="rgb(4.707336%, 4.530334%, 18.212891%)" offset="0.226562"/><stop stop-opacity="1" stop-color="rgb(4.788208%, 4.608154%, 18.525696%)" offset="0.230469"/><stop stop-opacity="1" stop-color="rgb(4.86908%, 4.685974%, 18.840027%)" offset="0.234375"/><stop stop-opacity="1" stop-color="rgb(4.949951%, 4.763794%, 19.154358%)" offset="0.238281"/><stop stop-opacity="1" stop-color="rgb(5.032349%, 4.84314%, 19.468689%)" offset="0.242188"/><stop stop-opacity="1" stop-color="rgb(5.11322%, 4.920959%, 19.78302%)" offset="0.246094"/><stop stop-opacity="1" stop-color="rgb(5.194092%, 4.998779%, 20.097351%)" offset="0.25"/><stop stop-opacity="1" stop-color="rgb(5.274963%, 5.076599%, 20.410156%)" offset="0.253906"/><stop stop-opacity="1" stop-color="rgb(5.355835%, 5.155945%, 20.724487%)" offset="0.257813"/><stop stop-opacity="1" stop-color="rgb(5.436707%, 5.233765%, 21.038818%)" offset="0.261719"/><stop stop-opacity="1" stop-color="rgb(5.519104%, 5.311584%, 21.353149%)" offset="0.265625"/><stop stop-opacity="1" stop-color="rgb(5.599976%, 5.389404%, 21.665955%)" offset="0.269531"/><stop stop-opacity="1" stop-color="rgb(5.680847%, 5.467224%, 21.980286%)" offset="0.273438"/><stop stop-opacity="1" stop-color="rgb(5.761719%, 5.545044%, 22.294617%)" offset="0.277344"/><stop stop-opacity="1" stop-color="rgb(5.844116%, 5.62439%, 22.608948%)" offset="0.28125"/><stop stop-opacity="1" stop-color="rgb(5.924988%, 5.702209%, 22.923279%)" offset="0.285156"/><stop stop-opacity="1" stop-color="rgb(6.005859%, 5.780029%, 23.23761%)" offset="0.289062"/><stop stop-opacity="1" stop-color="rgb(6.086731%, 5.857849%, 23.550415%)" offset="0.292969"/><stop stop-opacity="1" stop-color="rgb(6.167603%, 5.937195%, 23.864746%)" offset="0.296875"/><stop stop-opacity="1" stop-color="rgb(6.248474%, 6.015015%, 24.179077%)" offset="0.300781"/><stop stop-opacity="1" stop-color="rgb(6.330872%, 6.092834%, 24.493408%)" offset="0.304688"/><stop stop-opacity="1" stop-color="rgb(6.411743%, 6.170654%, 24.806213%)" offset="0.308594"/><stop stop-opacity="1" stop-color="rgb(6.492615%, 6.248474%, 25.120544%)" offset="0.3125"/><stop stop-opacity="1" stop-color="rgb(6.573486%, 6.326294%, 25.434875%)" offset="0.316406"/><stop stop-opacity="1" stop-color="rgb(6.655884%, 6.40564%, 25.749207%)" offset="0.320312"/><stop stop-opacity="1" stop-color="rgb(6.736755%, 6.483459%, 26.063538%)" offset="0.324219"/><stop stop-opacity="1" stop-color="rgb(6.817627%, 6.561279%, 26.377869%)" offset="0.328125"/><stop stop-opacity="1" stop-color="rgb(6.898499%, 6.639099%, 26.690674%)" offset="0.332031"/><stop stop-opacity="1" stop-color="rgb(6.97937%, 6.718445%, 27.005005%)" offset="0.335938"/><stop stop-opacity="1" stop-color="rgb(7.060242%, 6.796265%, 27.319336%)" offset="0.339844"/><stop stop-opacity="1" stop-color="rgb(7.142639%, 6.874084%, 27.633667%)" offset="0.34375"/><stop stop-opacity="1" stop-color="rgb(7.223511%, 6.951904%, 27.946472%)" offset="0.347656"/><stop stop-opacity="1" stop-color="rgb(7.304382%, 7.029724%, 28.260803%)" offset="0.351563"/><stop stop-opacity="1" stop-color="rgb(7.385254%, 7.107544%, 28.575134%)" offset="0.355469"/><stop stop-opacity="1" stop-color="rgb(7.467651%, 7.18689%, 28.889465%)" offset="0.359375"/><stop stop-opacity="1" stop-color="rgb(7.548523%, 7.264709%, 29.203796%)" offset="0.363281"/><stop stop-opacity="1" stop-color="rgb(7.629395%, 7.342529%, 29.518127%)" offset="0.367188"/><stop stop-opacity="1" stop-color="rgb(7.710266%, 7.420349%, 29.830933%)" offset="0.371094"/><stop stop-opacity="1" stop-color="rgb(7.791138%, 7.499695%, 30.145264%)" offset="0.375"/><stop stop-opacity="1" stop-color="rgb(7.872009%, 7.577515%, 30.459595%)" offset="0.378906"/><stop stop-opacity="1" stop-color="rgb(7.954407%, 7.655334%, 30.773926%)" offset="0.382812"/><stop stop-opacity="1" stop-color="rgb(8.035278%, 7.733154%, 31.086731%)" offset="0.386719"/><stop stop-opacity="1" stop-color="rgb(8.11615%, 7.810974%, 31.401062%)" offset="0.390625"/><stop stop-opacity="1" stop-color="rgb(8.197021%, 7.888794%, 31.715393%)" offset="0.394531"/><stop stop-opacity="1" stop-color="rgb(8.279419%, 7.96814%, 32.029724%)" offset="0.398438"/><stop stop-opacity="1" stop-color="rgb(8.360291%, 8.045959%, 32.344055%)" offset="0.402344"/><stop stop-opacity="1" stop-color="rgb(8.441162%, 8.123779%, 32.658386%)" offset="0.40625"/><stop stop-opacity="1" stop-color="rgb(8.522034%, 8.201599%, 32.971191%)" offset="0.410156"/><stop stop-opacity="1" stop-color="rgb(8.602905%, 8.280945%, 33.285522%)" offset="0.414063"/><stop stop-opacity="1" stop-color="rgb(8.683777%, 8.358765%, 33.599854%)" offset="0.417969"/><stop stop-opacity="1" stop-color="rgb(8.766174%, 8.436584%, 33.914185%)" offset="0.421875"/><stop stop-opacity="1" stop-color="rgb(8.847046%, 8.514404%, 34.22699%)" offset="0.425781"/><stop stop-opacity="1" stop-color="rgb(8.927917%, 8.592224%, 34.541321%)" offset="0.429688"/><stop stop-opacity="1" stop-color="rgb(9.008789%, 8.670044%, 34.855652%)" offset="0.433594"/><stop stop-opacity="1" stop-color="rgb(9.091187%, 8.74939%, 35.169983%)" offset="0.4375"/><stop stop-opacity="1" stop-color="rgb(9.172058%, 8.827209%, 35.484314%)" offset="0.441406"/><stop stop-opacity="1" stop-color="rgb(9.25293%, 8.905029%, 35.798645%)" offset="0.445312"/><stop stop-opacity="1" stop-color="rgb(9.333801%, 8.982849%, 36.11145%)" offset="0.449219"/><stop stop-opacity="1" stop-color="rgb(9.414673%, 9.062195%, 36.425781%)" offset="0.453125"/><stop stop-opacity="1" stop-color="rgb(9.495544%, 9.140015%, 36.740112%)" offset="0.457031"/><stop stop-opacity="1" stop-color="rgb(9.577942%, 9.217834%, 37.054443%)" offset="0.460937"/><stop stop-opacity="1" stop-color="rgb(9.658813%, 9.295654%, 37.367249%)" offset="0.464844"/><stop stop-opacity="1" stop-color="rgb(9.739685%, 9.373474%, 37.68158%)" offset="0.46875"/><stop stop-opacity="1" stop-color="rgb(9.820557%, 9.451294%, 37.995911%)" offset="0.472656"/><stop stop-opacity="1" stop-color="rgb(9.902954%, 9.53064%, 38.310242%)" offset="0.476563"/><stop stop-opacity="1" stop-color="rgb(9.983826%, 9.608459%, 38.623047%)" offset="0.480469"/><stop stop-opacity="1" stop-color="rgb(10.064697%, 9.686279%, 38.937378%)" offset="0.484375"/><stop stop-opacity="1" stop-color="rgb(10.145569%, 9.764099%, 39.251709%)" offset="0.488281"/><stop stop-opacity="1" stop-color="rgb(10.22644%, 9.843445%, 39.56604%)" offset="0.492188"/><stop stop-opacity="1" stop-color="rgb(10.307312%, 9.921265%, 39.880371%)" offset="0.496094"/><stop stop-opacity="1" stop-color="rgb(10.389709%, 9.999084%, 40.194702%)" offset="0.5"/><stop stop-opacity="1" stop-color="rgb(10.470581%, 10.076904%, 40.507507%)" offset="0.503906"/><stop stop-opacity="1" stop-color="rgb(10.551453%, 10.154724%, 40.821838%)" offset="0.507813"/><stop stop-opacity="1" stop-color="rgb(10.632324%, 10.232544%, 41.136169%)" offset="0.511719"/><stop stop-opacity="1" stop-color="rgb(10.713196%, 10.31189%, 41.4505%)" offset="0.515625"/><stop stop-opacity="1" stop-color="rgb(10.794067%, 10.389709%, 41.763306%)" offset="0.519531"/><stop stop-opacity="1" stop-color="rgb(10.876465%, 10.467529%, 42.077637%)" offset="0.523438"/><stop stop-opacity="1" stop-color="rgb(10.957336%, 10.545349%, 42.391968%)" offset="0.527344"/><stop stop-opacity="1" stop-color="rgb(11.038208%, 10.624695%, 42.706299%)" offset="0.53125"/><stop stop-opacity="1" stop-color="rgb(11.11908%, 10.702515%, 43.02063%)" offset="0.535156"/><stop stop-opacity="1" stop-color="rgb(11.201477%, 10.780334%, 43.334961%)" offset="0.539062"/><stop stop-opacity="1" stop-color="rgb(11.282349%, 10.858154%, 43.647766%)" offset="0.542969"/><stop stop-opacity="1" stop-color="rgb(11.36322%, 10.935974%, 43.962097%)" offset="0.546875"/><stop stop-opacity="1" stop-color="rgb(11.444092%, 11.013794%, 44.276428%)" offset="0.550781"/><stop stop-opacity="1" stop-color="rgb(11.524963%, 11.09314%, 44.590759%)" offset="0.554688"/><stop stop-opacity="1" stop-color="rgb(11.605835%, 11.170959%, 44.903564%)" offset="0.558594"/><stop stop-opacity="1" stop-color="rgb(11.688232%, 11.248779%, 45.217896%)" offset="0.5625"/><stop stop-opacity="1" stop-color="rgb(11.769104%, 11.326599%, 45.532227%)" offset="0.566406"/><stop stop-opacity="1" stop-color="rgb(11.849976%, 11.405945%, 45.846558%)" offset="0.570312"/><stop stop-opacity="1" stop-color="rgb(11.930847%, 11.483765%, 46.160889%)" offset="0.574219"/><stop stop-opacity="1" stop-color="rgb(12.013245%, 11.561584%, 46.47522%)" offset="0.578125"/><stop stop-opacity="1" stop-color="rgb(12.094116%, 11.639404%, 46.788025%)" offset="0.582031"/><stop stop-opacity="1" stop-color="rgb(12.174988%, 11.717224%, 47.102356%)" offset="0.585937"/><stop stop-opacity="1" stop-color="rgb(12.255859%, 11.795044%, 47.416687%)" offset="0.589844"/><stop stop-opacity="1" stop-color="rgb(12.336731%, 11.87439%, 47.731018%)" offset="0.59375"/><stop stop-opacity="1" stop-color="rgb(12.417603%, 11.952209%, 48.043823%)" offset="0.597656"/><stop stop-opacity="1" stop-color="rgb(12.5%, 12.030029%, 48.358154%)" offset="0.601563"/><stop stop-opacity="1" stop-color="rgb(12.580872%, 12.107849%, 48.672485%)" offset="0.605469"/><stop stop-opacity="1" stop-color="rgb(12.661743%, 12.187195%, 48.986816%)" offset="0.609375"/><stop stop-opacity="1" stop-color="rgb(12.742615%, 12.265015%, 49.301147%)" offset="0.613281"/><stop stop-opacity="1" stop-color="rgb(12.825012%, 12.342834%, 49.615479%)" offset="0.617188"/><stop stop-opacity="1" stop-color="rgb(12.905884%, 12.420654%, 49.928284%)" offset="0.621094"/><stop stop-opacity="1" stop-color="rgb(12.986755%, 12.498474%, 50.242615%)" offset="0.625"/><stop stop-opacity="1" stop-color="rgb(13.067627%, 12.576294%, 50.556946%)" offset="0.628906"/><stop stop-opacity="1" stop-color="rgb(13.148499%, 12.65564%, 50.871277%)" offset="0.632813"/><stop stop-opacity="1" stop-color="rgb(13.22937%, 12.733459%, 51.184082%)" offset="0.636719"/><stop stop-opacity="1" stop-color="rgb(13.311768%, 12.811279%, 51.498413%)" offset="0.640625"/><stop stop-opacity="1" stop-color="rgb(13.392639%, 12.889099%, 51.812744%)" offset="0.644531"/><stop stop-opacity="1" stop-color="rgb(13.473511%, 12.968445%, 52.127075%)" offset="0.648438"/><stop stop-opacity="1" stop-color="rgb(13.554382%, 13.046265%, 52.441406%)" offset="0.652344"/><stop stop-opacity="1" stop-color="rgb(13.63678%, 13.124084%, 52.755737%)" offset="0.65625"/><stop stop-opacity="1" stop-color="rgb(13.717651%, 13.201904%, 53.068542%)" offset="0.660156"/><stop stop-opacity="1" stop-color="rgb(13.798523%, 13.279724%, 53.382874%)" offset="0.664062"/><stop stop-opacity="1" stop-color="rgb(13.879395%, 13.357544%, 53.697205%)" offset="0.667969"/><stop stop-opacity="1" stop-color="rgb(13.960266%, 13.43689%, 54.011536%)" offset="0.671875"/><stop stop-opacity="1" stop-color="rgb(14.041138%, 13.514709%, 54.324341%)" offset="0.675781"/><stop stop-opacity="1" stop-color="rgb(14.123535%, 13.592529%, 54.638672%)" offset="0.679688"/><stop stop-opacity="1" stop-color="rgb(14.204407%, 13.670349%, 54.953003%)" offset="0.683594"/><stop stop-opacity="1" stop-color="rgb(14.285278%, 13.749695%, 55.267334%)" offset="0.6875"/><stop stop-opacity="1" stop-color="rgb(14.36615%, 13.827515%, 55.581665%)" offset="0.691406"/><stop stop-opacity="1" stop-color="rgb(14.448547%, 13.905334%, 55.895996%)" offset="0.695313"/><stop stop-opacity="1" stop-color="rgb(14.529419%, 13.983154%, 56.208801%)" offset="0.699219"/><stop stop-opacity="1" stop-color="rgb(14.610291%, 14.060974%, 56.523132%)" offset="0.703125"/><stop stop-opacity="1" stop-color="rgb(14.691162%, 14.138794%, 56.837463%)" offset="0.707031"/><stop stop-opacity="1" stop-color="rgb(14.772034%, 14.21814%, 57.151794%)" offset="0.710938"/><stop stop-opacity="1" stop-color="rgb(14.852905%, 14.295959%, 57.4646%)" offset="0.714844"/><stop stop-opacity="1" stop-color="rgb(14.935303%, 14.373779%, 57.778931%)" offset="0.71875"/><stop stop-opacity="1" stop-color="rgb(15.016174%, 14.451599%, 58.093262%)" offset="0.722656"/><stop stop-opacity="1" stop-color="rgb(15.097046%, 14.530945%, 58.407593%)" offset="0.726563"/><stop stop-opacity="1" stop-color="rgb(15.177917%, 14.608765%, 58.721924%)" offset="0.730469"/><stop stop-opacity="1" stop-color="rgb(15.258789%, 14.686584%, 59.036255%)" offset="0.734375"/><stop stop-opacity="1" stop-color="rgb(15.339661%, 14.764404%, 59.34906%)" offset="0.738281"/><stop stop-opacity="1" stop-color="rgb(15.422058%, 14.842224%, 59.663391%)" offset="0.742188"/><stop stop-opacity="1" stop-color="rgb(15.50293%, 14.920044%, 59.977722%)" offset="0.746094"/><stop stop-opacity="1" stop-color="rgb(15.583801%, 14.99939%, 60.292053%)" offset="0.75"/><stop stop-opacity="1" stop-color="rgb(15.664673%, 15.077209%, 60.604858%)" offset="0.753906"/><stop stop-opacity="1" stop-color="rgb(15.74707%, 15.155029%, 60.919189%)" offset="0.757812"/><stop stop-opacity="1" stop-color="rgb(15.827942%, 15.232849%, 61.233521%)" offset="0.761719"/><stop stop-opacity="1" stop-color="rgb(15.908813%, 15.312195%, 61.547852%)" offset="0.765625"/><stop stop-opacity="1" stop-color="rgb(15.989685%, 15.390015%, 61.862183%)" offset="0.769531"/><stop stop-opacity="1" stop-color="rgb(16.070557%, 15.467834%, 62.176514%)" offset="0.773438"/><stop stop-opacity="1" stop-color="rgb(16.151428%, 15.545654%, 62.489319%)" offset="0.777344"/><stop stop-opacity="1" stop-color="rgb(16.233826%, 15.623474%, 62.80365%)" offset="0.78125"/><stop stop-opacity="1" stop-color="rgb(16.314697%, 15.701294%, 63.117981%)" offset="0.785156"/><stop stop-opacity="1" stop-color="rgb(16.395569%, 15.78064%, 63.432312%)" offset="0.789062"/><stop stop-opacity="1" stop-color="rgb(16.47644%, 15.858459%, 63.745117%)" offset="0.792969"/><stop stop-opacity="1" stop-color="rgb(16.558838%, 15.936279%, 64.059448%)" offset="0.796875"/><stop stop-opacity="1" stop-color="rgb(16.639709%, 16.014099%, 64.373779%)" offset="0.800781"/><stop stop-opacity="1" stop-color="rgb(16.720581%, 16.093445%, 64.68811%)" offset="0.804688"/><stop stop-opacity="1" stop-color="rgb(16.801453%, 16.171265%, 65.002441%)" offset="0.808594"/><stop stop-opacity="1" stop-color="rgb(16.882324%, 16.249084%, 65.316772%)" offset="0.8125"/><stop stop-opacity="1" stop-color="rgb(16.963196%, 16.326904%, 65.629578%)" offset="0.816406"/><stop stop-opacity="1" stop-color="rgb(17.045593%, 16.404724%, 65.943909%)" offset="0.820313"/><stop stop-opacity="1" stop-color="rgb(17.126465%, 16.482544%, 66.25824%)" offset="0.824219"/><stop stop-opacity="1" stop-color="rgb(17.207336%, 16.56189%, 66.572571%)" offset="0.828125"/><stop stop-opacity="1" stop-color="rgb(17.288208%, 16.639709%, 66.885376%)" offset="0.832031"/><stop stop-opacity="1" stop-color="rgb(17.370605%, 16.717529%, 67.199707%)" offset="0.835938"/><stop stop-opacity="1" stop-color="rgb(17.451477%, 16.795349%, 67.514038%)" offset="0.839844"/><stop stop-opacity="1" stop-color="rgb(17.532349%, 16.874695%, 67.828369%)" offset="0.84375"/><stop stop-opacity="1" stop-color="rgb(17.61322%, 16.952515%, 68.1427%)" offset="0.847656"/><stop stop-opacity="1" stop-color="rgb(17.694092%, 17.030334%, 68.457031%)" offset="0.851563"/><stop stop-opacity="1" stop-color="rgb(17.774963%, 17.108154%, 68.769836%)" offset="0.855469"/><stop stop-opacity="1" stop-color="rgb(17.857361%, 17.185974%, 69.084167%)" offset="0.859375"/><stop stop-opacity="1" stop-color="rgb(17.938232%, 17.263794%, 69.398499%)" offset="0.863281"/><stop stop-opacity="1" stop-color="rgb(18.019104%, 17.34314%, 69.71283%)" offset="0.867188"/><stop stop-opacity="1" stop-color="rgb(18.099976%, 17.420959%, 70.025635%)" offset="0.871094"/><stop stop-opacity="1" stop-color="rgb(18.182373%, 17.498779%, 70.339966%)" offset="0.875"/><stop stop-opacity="1" stop-color="rgb(18.263245%, 17.576599%, 70.654297%)" offset="0.878906"/><stop stop-opacity="1" stop-color="rgb(18.344116%, 17.655945%, 70.968628%)" offset="0.882812"/><stop stop-opacity="1" stop-color="rgb(18.424988%, 17.733765%, 71.282959%)" offset="0.886719"/><stop stop-opacity="1" stop-color="rgb(18.505859%, 17.811584%, 71.59729%)" offset="0.890625"/><stop stop-opacity="1" stop-color="rgb(18.586731%, 17.889404%, 71.910095%)" offset="0.894531"/><stop stop-opacity="1" stop-color="rgb(18.669128%, 17.967224%, 72.224426%)" offset="0.898438"/><stop stop-opacity="1" stop-color="rgb(18.75%, 18.045044%, 72.538757%)" offset="0.902344"/><stop stop-opacity="1" stop-color="rgb(18.830872%, 18.12439%, 72.853088%)" offset="0.90625"/><stop stop-opacity="1" stop-color="rgb(18.911743%, 18.202209%, 73.165894%)" offset="0.910156"/><stop stop-opacity="1" stop-color="rgb(18.994141%, 18.280029%, 73.480225%)" offset="0.914062"/><stop stop-opacity="1" stop-color="rgb(19.075012%, 18.357849%, 73.794556%)" offset="0.917969"/><stop stop-opacity="1" stop-color="rgb(19.155884%, 18.437195%, 74.108887%)" offset="0.921875"/><stop stop-opacity="1" stop-color="rgb(19.236755%, 18.515015%, 74.423218%)" offset="0.925781"/><stop stop-opacity="1" stop-color="rgb(19.317627%, 18.592834%, 74.737549%)" offset="0.929687"/><stop stop-opacity="1" stop-color="rgb(19.398499%, 18.670654%, 75.050354%)" offset="0.933594"/><stop stop-opacity="1" stop-color="rgb(19.480896%, 18.748474%, 75.364685%)" offset="0.9375"/><stop stop-opacity="1" stop-color="rgb(19.561768%, 18.826294%, 75.679016%)" offset="0.941406"/><stop stop-opacity="1" stop-color="rgb(19.642639%, 18.90564%, 75.993347%)" offset="0.945313"/><stop stop-opacity="1" stop-color="rgb(19.723511%, 18.983459%, 76.306152%)" offset="0.949219"/><stop stop-opacity="1" stop-color="rgb(19.805908%, 19.061279%, 76.620483%)" offset="0.953125"/><stop stop-opacity="1" stop-color="rgb(19.88678%, 19.139099%, 76.934814%)" offset="0.957031"/><stop stop-opacity="1" stop-color="rgb(19.967651%, 19.218445%, 77.249146%)" offset="0.960938"/><stop stop-opacity="1" stop-color="rgb(20.048523%, 19.296265%, 77.561951%)" offset="0.964844"/><stop stop-opacity="1" stop-color="rgb(20.129395%, 19.374084%, 77.876282%)" offset="0.96875"/><stop stop-opacity="1" stop-color="rgb(20.210266%, 19.451904%, 78.190613%)" offset="0.972656"/><stop stop-opacity="1" stop-color="rgb(20.292664%, 19.529724%, 78.504944%)" offset="0.976562"/><stop stop-opacity="1" stop-color="rgb(20.373535%, 19.607544%, 78.819275%)" offset="0.980469"/><stop stop-opacity="1" stop-color="rgb(20.454407%, 19.68689%, 79.133606%)" offset="0.984375"/><stop stop-opacity="1" stop-color="rgb(20.535278%, 19.764709%, 79.446411%)" offset="0.988281"/><stop stop-opacity="1" stop-color="rgb(20.61615%, 19.842529%, 79.760742%)" offset="0.992188"/><stop stop-opacity="1" stop-color="rgb(20.697021%, 19.920349%, 80.075073%)" offset="0.996094"/><stop stop-opacity="1" stop-color="rgb(20.779419%, 19.999695%, 80.389404%)" offset="1"/></linearGradient><clipPath id="a15a773d36"><rect x="0" width="160" y="0" height="49"/></clipPath><clipPath id="ba87594d7e"><path d="M 22.414062 23.429688 L 53.851562 23.429688 L 53.851562 54.867188 L 22.414062 54.867188 Z M 22.414062 23.429688 " clip-rule="nonzero"/></clipPath></defs><g clip-path="url(#7efdcc082b)"><g clip-path="url(#21a184fbab)"><g transform="matrix(1, 0, 0, 1, 0, 0.000000000000006273)"><g clip-path="url(#33e892ab29)"><g clip-path="url(#c2cca35e9f)"><g clip-path="url(#1e2d330926)"><path fill="#0097b2" d="M 0 0.40625 L 246.941406 0.40625 L 246.941406 77.59375 L 0 77.59375 Z M 0 0.40625 " fill-opacity="1" fill-rule="nonzero"/></g></g></g></g></g></g><g clip-path="url(#48f26814bb)"><g clip-path="url(#a087c226bc)"><path stroke-linecap="butt" transform="matrix(0.748488, 0, 0, 0.748488, 0, 0.406094)" fill="none" stroke-linejoin="miter" d="M 51.562292 0.00020819 L 278.436375 0.00020819 C 306.915669 0.00020819 329.998667 23.083206 329.998667 51.5625 C 329.998667 80.041794 306.915669 103.124792 278.436375 103.124792 L 51.562292 103.124792 C 23.082998 103.124792 0 80.041794 0 51.5625 C 0 23.083206 23.082998 0.00020819 51.562292 0.00020819 Z M 51.562292 0.00020819 " stroke="url(#b020ef725e)" stroke-width="8" stroke-miterlimit="4"/></g></g><g transform="matrix(1, 0, 0, 1, 59, 14)"><g clip-path="url(#a15a773d36)"><g fill="#ffffff" fill-opacity="1"><g transform="translate(1.108171, 35.68393)"><g><path d="M 9.109375 0 L 0.296875 -22.921875 L 5.890625 -22.921875 L 8.9375 -14.765625 L 11.6875 -7.5 L 17.453125 -22.921875 L 23.015625 -22.921875 L 14.21875 0 Z M 9.109375 0 "/></g></g></g><g fill="#ffffff" fill-opacity="1"><g transform="translate(24.428327, 35.68393)"><g><path d="M 2.484375 0 L 2.484375 -17.1875 L 7.46875 -17.1875 L 7.46875 0 Z M 1.765625 -22.765625 C 1.765625 -23.679688 2.0625 -24.425781 2.65625 -25 C 3.257812 -25.582031 4.035156 -25.875 4.984375 -25.875 C 5.941406 -25.875 6.710938 -25.582031 7.296875 -25 C 7.890625 -24.425781 8.1875 -23.679688 8.1875 -22.765625 C 8.1875 -21.847656 7.890625 -21.097656 7.296875 -20.515625 C 6.710938 -19.941406 5.941406 -19.65625 4.984375 -19.65625 C 4.035156 -19.65625 3.257812 -19.941406 2.65625 -20.515625 C 2.0625 -21.097656 1.765625 -21.847656 1.765625 -22.765625 Z M 1.765625 -22.765625 "/></g></g></g><g fill="#ffffff" fill-opacity="1"><g transform="translate(34.385255, 35.68393)"><g><path d="M 10.609375 0.453125 C 8.773438 0.453125 7.15625 0.0703125 5.75 -0.6875 C 4.34375 -1.445312 3.242188 -2.507812 2.453125 -3.875 C 1.671875 -5.238281 1.28125 -6.816406 1.28125 -8.609375 C 1.28125 -10.398438 1.675781 -11.972656 2.46875 -13.328125 C 3.269531 -14.679688 4.375 -15.738281 5.78125 -16.5 C 7.1875 -17.269531 8.816406 -17.65625 10.671875 -17.65625 C 12.640625 -17.65625 14.335938 -17.21875 15.765625 -16.34375 C 17.203125 -15.46875 18.296875 -14.242188 19.046875 -12.671875 C 19.796875 -11.097656 20.117188 -9.265625 20.015625 -7.171875 L 6.21875 -7.171875 C 6.457031 -5.992188 6.976562 -5.09375 7.78125 -4.46875 C 8.59375 -3.84375 9.566406 -3.53125 10.703125 -3.53125 C 11.535156 -3.53125 12.296875 -3.6875 12.984375 -4 C 13.671875 -4.320312 14.222656 -4.769531 14.640625 -5.34375 L 19.6875 -5.34375 C 18.9375 -3.53125 17.765625 -2.109375 16.171875 -1.078125 C 14.578125 -0.0546875 12.722656 0.453125 10.609375 0.453125 Z M 6.25 -10.3125 L 15.203125 -10.3125 C 14.910156 -11.363281 14.375 -12.1875 13.59375 -12.78125 C 12.820312 -13.382812 11.859375 -13.6875 10.703125 -13.6875 C 9.617188 -13.6875 8.675781 -13.382812 7.875 -12.78125 C 7.082031 -12.1875 6.539062 -11.363281 6.25 -10.3125 Z M 6.25 -10.3125 "/></g></g></g><g fill="#ffffff" fill-opacity="1"><g transform="translate(55.64197, 35.68393)"><g><path d="M 6.640625 0 L 0.296875 -17.1875 L 5.5625 -17.1875 L 7.5625 -11.5 L 9.265625 -6.6875 L 11.03125 -11.5 L 13.171875 -17.1875 L 17.1875 -17.1875 L 19.328125 -11.5 L 21.09375 -6.640625 L 22.796875 -11.5 L 24.828125 -17.1875 L 30.0625 -17.1875 L 23.703125 0 L 19.09375 0 L 15.203125 -10.484375 L 11.265625 0 Z M 6.640625 0 "/></g></g></g><g fill="#ffffff" fill-opacity="1"><g transform="translate(86.004024, 35.68393)"><g/></g></g><g fill="#ffffff" fill-opacity="1"><g transform="translate(93.700984, 35.68393)"><g><path d="M 2.75 0 L 2.75 -22.921875 L 11.71875 -22.921875 C 13.582031 -22.921875 15.1875 -22.582031 16.53125 -21.90625 C 17.882812 -21.226562 18.9375 -20.265625 19.6875 -19.015625 C 20.445312 -17.773438 20.828125 -16.316406 20.828125 -14.640625 C 20.828125 -12.984375 20.445312 -11.53125 19.6875 -10.28125 C 18.9375 -9.039062 17.882812 -8.082031 16.53125 -7.40625 C 15.1875 -6.726562 13.582031 -6.390625 11.71875 -6.390625 L 7.953125 -6.390625 L 7.953125 0 Z M 7.921875 -10.875 L 11.296875 -10.875 C 12.648438 -10.875 13.691406 -11.195312 14.421875 -11.84375 C 15.160156 -12.488281 15.53125 -13.410156 15.53125 -14.609375 C 15.53125 -15.804688 15.160156 -16.734375 14.421875 -17.390625 C 13.691406 -18.046875 12.648438 -18.375 11.296875 -18.375 L 7.921875 -18.375 Z M 7.921875 -10.875 "/></g></g></g><g fill="#ffffff" fill-opacity="1"><g transform="translate(115.481739, 35.68393)"><g><path d="M 2.75 0 L 2.75 -22.921875 L 11.828125 -22.921875 C 14.242188 -22.921875 16.359375 -22.441406 18.171875 -21.484375 C 19.984375 -20.523438 21.390625 -19.179688 22.390625 -17.453125 C 23.398438 -15.734375 23.90625 -13.738281 23.90625 -11.46875 C 23.90625 -9.175781 23.398438 -7.171875 22.390625 -5.453125 C 21.390625 -3.734375 19.984375 -2.394531 18.171875 -1.4375 C 16.359375 -0.476562 14.242188 0 11.828125 0 Z M 7.953125 -4.78125 L 11.71875 -4.78125 C 13.070312 -4.78125 14.257812 -5.054688 15.28125 -5.609375 C 16.3125 -6.171875 17.113281 -6.953125 17.6875 -7.953125 C 18.269531 -8.960938 18.5625 -10.132812 18.5625 -11.46875 C 18.5625 -12.820312 18.269531 -13.992188 17.6875 -14.984375 C 17.113281 -15.972656 16.304688 -16.742188 15.265625 -17.296875 C 14.234375 -17.859375 13.03125 -18.140625 11.65625 -18.140625 L 7.953125 -18.140625 Z M 7.953125 -4.78125 "/></g></g></g><g fill="#ffffff" fill-opacity="1"><g transform="translate(140.767067, 35.68393)"><g><path d="M 2.75 0 L 2.75 -22.921875 L 17.125 -22.921875 L 17.125 -18.203125 L 7.953125 -18.203125 L 7.953125 -12.484375 L 16.28125 -12.484375 L 16.28125 -7.890625 L 7.953125 -7.890625 L 7.953125 0 Z M 2.75 0 "/></g></g></g></g></g><g clip-path="url(#ba87594d7e)"><path fill="#fb79a5" d="M 38.132812 23.429688 C 46.8125 23.429688 53.851562 30.46875 53.851562 39.148438 C 53.851562 47.832031 46.8125 54.867188 38.132812 54.867188 C 29.449219 54.867188 22.414062 47.832031 22.414062 39.148438 C 22.414062 30.46875 29.449219 23.429688 38.132812 23.429688 " fill-opacity="1" fill-rule="evenodd"/></g><path fill="#fff59c" d="M 47.699219 38.167969 L 26.273438 38.167969 L 26.273438 48.347656 L 49.988281 48.347656 L 49.988281 38.167969 L 47.699219 38.167969 " fill-opacity="1" fill-rule="evenodd"/><path fill="#e3f2fd" d="M 47.285156 49.175781 L 28.976562 49.175781 L 28.976562 52.207031 L 47.285156 52.207031 L 47.285156 49.175781 " fill-opacity="1" fill-rule="evenodd"/><path fill="#e3f2fd" d="M 43.253906 26.089844 L 28.976562 26.089844 L 28.976562 37.339844 L 47.285156 37.339844 L 47.285156 30.125 L 45.683594 30.125 C 45.015625 30.125 44.40625 29.851562 43.964844 29.410156 C 43.523438 28.96875 43.253906 28.363281 43.253906 27.695312 Z M 31.84375 30.015625 L 40.777344 30.015625 C 41.003906 30.015625 41.191406 30.199219 41.191406 30.429688 C 41.191406 30.65625 41.003906 30.84375 40.777344 30.84375 L 31.84375 30.84375 C 31.613281 30.84375 31.429688 30.65625 31.429688 30.429688 C 31.429688 30.199219 31.613281 30.015625 31.84375 30.015625 Z M 31.84375 32.300781 L 44.417969 32.300781 C 44.648438 32.300781 44.835938 32.484375 44.835938 32.714844 C 44.835938 32.945312 44.648438 33.128906 44.417969 33.128906 L 31.84375 33.128906 C 31.613281 33.128906 31.429688 32.945312 31.429688 32.714844 C 31.429688 32.484375 31.613281 32.300781 31.84375 32.300781 Z M 31.429688 35 C 31.429688 34.773438 31.613281 34.585938 31.84375 34.585938 L 44.417969 34.585938 C 44.648438 34.585938 44.835938 34.773438 44.835938 35 C 44.835938 35.230469 44.648438 35.414062 44.417969 35.414062 L 31.84375 35.414062 C 31.613281 35.414062 31.429688 35.230469 31.429688 35 " fill-opacity="1" fill-rule="evenodd"/><path fill="#fff59c" d="M 44.082031 27.695312 C 44.082031 28.132812 44.261719 28.535156 44.550781 28.824219 C 44.84375 29.113281 45.242188 29.296875 45.683594 29.296875 L 46.699219 29.296875 L 44.082031 26.675781 L 44.082031 27.695312 " fill-opacity="1" fill-rule="evenodd"/><path fill="#444b52" d="M 31.21875 45.886719 L 31.21875 40.625 L 32.921875 40.625 C 33.570312 40.625 33.992188 40.652344 34.1875 40.707031 C 34.488281 40.785156 34.742188 40.957031 34.945312 41.21875 C 35.148438 41.484375 35.25 41.828125 35.25 42.246094 C 35.25 42.566406 35.191406 42.839844 35.074219 43.058594 C 34.957031 43.28125 34.808594 43.453125 34.625 43.578125 C 34.445312 43.703125 34.261719 43.785156 34.074219 43.828125 C 33.824219 43.878906 33.457031 43.902344 32.972656 43.902344 L 32.28125 43.902344 L 32.28125 45.886719 Z M 32.28125 41.515625 L 32.28125 43.007812 L 32.863281 43.007812 C 33.28125 43.007812 33.5625 42.980469 33.703125 42.925781 C 33.84375 42.871094 33.953125 42.785156 34.035156 42.667969 C 34.113281 42.550781 34.15625 42.414062 34.15625 42.257812 C 34.15625 42.066406 34.097656 41.910156 33.984375 41.785156 C 33.875 41.660156 33.730469 41.582031 33.558594 41.554688 C 33.433594 41.527344 33.175781 41.515625 32.796875 41.515625 Z M 36.117188 40.625 L 38.058594 40.625 C 38.496094 40.625 38.832031 40.660156 39.0625 40.726562 C 39.371094 40.816406 39.632812 40.980469 39.851562 41.210938 C 40.074219 41.445312 40.242188 41.726562 40.355469 42.0625 C 40.46875 42.398438 40.527344 42.8125 40.527344 43.308594 C 40.527344 43.738281 40.472656 44.113281 40.367188 44.425781 C 40.234375 44.808594 40.046875 45.117188 39.800781 45.355469 C 39.621094 45.535156 39.371094 45.675781 39.058594 45.777344 C 38.824219 45.851562 38.507812 45.886719 38.117188 45.886719 L 36.117188 45.886719 Z M 37.179688 41.515625 L 37.179688 45 L 37.972656 45 C 38.269531 45 38.484375 44.984375 38.617188 44.949219 C 38.789062 44.90625 38.929688 44.835938 39.042969 44.730469 C 39.160156 44.628906 39.25 44.457031 39.324219 44.222656 C 39.394531 43.988281 39.429688 43.667969 39.429688 43.261719 C 39.429688 42.851562 39.394531 42.542969 39.324219 42.324219 C 39.25 42.105469 39.148438 41.9375 39.023438 41.816406 C 38.890625 41.691406 38.726562 41.609375 38.527344 41.566406 C 38.378906 41.53125 38.089844 41.515625 37.65625 41.515625 Z M 41.4375 45.886719 L 41.4375 40.625 L 45.042969 40.625 L 45.042969 41.515625 L 42.5 41.515625 L 42.5 42.761719 L 44.695312 42.761719 L 44.695312 43.652344 L 42.5 43.652344 L 42.5 45.886719 L 41.4375 45.886719 " fill-opacity="1" fill-rule="nonzero"/><path fill="#f3be7f" d="M 44.082031 27.007812 L 46.367188 29.296875 L 46.699219 29.296875 L 44.082031 26.675781 L 44.082031 27.007812 " fill-opacity="1" fill-rule="evenodd"/><path fill="#a5afb8" d="M 46.609375 30.125 L 46.609375 37.339844 L 47.285156 37.339844 L 47.285156 30.125 L 46.609375 30.125 " fill-opacity="1" fill-rule="evenodd"/><path fill="#f3be7f" d="M 49.3125 38.167969 L 49.3125 48.347656 L 49.988281 48.347656 L 49.988281 38.167969 L 49.3125 38.167969 " fill-opacity="1" fill-rule="evenodd"/><path fill="#a5afb8" d="M 46.609375 49.175781 L 46.609375 52.207031 L 47.285156 52.207031 L 47.285156 49.175781 L 46.609375 49.175781 " fill-opacity="1" fill-rule="evenodd"/><path fill="#444b52" d="M 28.148438 37.753906 C 28.148438 37.980469 28.335938 38.167969 28.5625 38.167969 C 28.792969 38.167969 28.976562 37.980469 28.976562 37.753906 L 28.976562 26.089844 L 43.496094 26.089844 L 47.285156 29.882812 L 47.285156 37.753906 C 47.285156 37.980469 47.46875 38.167969 47.699219 38.167969 C 47.929688 38.167969 48.113281 37.980469 48.113281 37.753906 L 48.113281 29.710938 C 48.113281 29.605469 48.074219 29.5 47.992188 29.417969 L 43.960938 25.386719 C 43.886719 25.308594 43.78125 25.261719 43.667969 25.261719 L 28.5625 25.261719 C 28.335938 25.261719 28.148438 25.449219 28.148438 25.675781 Z M 48.113281 48.761719 C 48.113281 48.53125 47.929688 48.347656 47.699219 48.347656 C 47.46875 48.347656 47.285156 48.53125 47.285156 48.761719 L 47.285156 52.207031 L 28.976562 52.207031 L 28.976562 48.761719 C 28.976562 48.53125 28.792969 48.347656 28.5625 48.347656 C 28.335938 48.347656 28.148438 48.53125 28.148438 48.761719 L 28.148438 52.621094 C 28.148438 52.851562 28.335938 53.035156 28.5625 53.035156 L 47.699219 53.035156 C 47.929688 53.035156 48.113281 52.851562 48.113281 52.621094 L 48.113281 48.761719 " fill-opacity="1" fill-rule="nonzero"/><path fill="#444b52" d="M 44.082031 25.675781 C 44.082031 25.449219 43.894531 25.261719 43.667969 25.261719 C 43.4375 25.261719 43.253906 25.449219 43.253906 25.675781 L 43.253906 27.695312 C 43.253906 28.363281 43.523438 28.96875 43.964844 29.410156 C 44.40625 29.851562 45.015625 30.125 45.683594 30.125 L 47.699219 30.125 C 47.929688 30.125 48.113281 29.9375 48.113281 29.710938 C 48.113281 29.480469 47.929688 29.296875 47.699219 29.296875 L 45.683594 29.296875 C 45.242188 29.296875 44.84375 29.113281 44.550781 28.824219 C 44.261719 28.535156 44.082031 28.132812 44.082031 27.695312 L 44.082031 25.675781 " fill-opacity="1" fill-rule="nonzero"/><path fill="#444b52" d="M 26.273438 48.347656 L 49.988281 48.347656 L 49.988281 38.167969 L 26.273438 38.167969 Z M 50.402344 49.175781 L 25.859375 49.175781 C 25.632812 49.175781 25.445312 48.988281 25.445312 48.761719 L 25.445312 37.753906 C 25.445312 37.523438 25.632812 37.339844 25.859375 37.339844 L 50.402344 37.339844 C 50.632812 37.339844 50.816406 37.523438 50.816406 37.753906 L 50.816406 48.761719 C 50.816406 48.988281 50.632812 49.175781 50.402344 49.175781 " fill-opacity="1" fill-rule="nonzero"/><path fill="#444b52" d="M 31.84375 30.015625 C 31.613281 30.015625 31.429688 30.199219 31.429688 30.429688 C 31.429688 30.65625 31.613281 30.84375 31.84375 30.84375 L 40.777344 30.84375 C 41.003906 30.84375 41.191406 30.65625 41.191406 30.429688 C 41.191406 30.199219 41.003906 30.015625 40.777344 30.015625 L 31.84375 30.015625 " fill-opacity="1" fill-rule="nonzero"/><path fill="#444b52" d="M 31.84375 32.300781 C 31.613281 32.300781 31.429688 32.484375 31.429688 32.714844 C 31.429688 32.945312 31.613281 33.128906 31.84375 33.128906 L 44.417969 33.128906 C 44.648438 33.128906 44.835938 32.945312 44.835938 32.714844 C 44.835938 32.484375 44.648438 32.300781 44.417969 32.300781 L 31.84375 32.300781 " fill-opacity="1" fill-rule="nonzero"/><path fill="#444b52" d="M 31.84375 34.585938 C 31.613281 34.585938 31.429688 34.773438 31.429688 35 C 31.429688 35.230469 31.613281 35.414062 31.84375 35.414062 L 44.417969 35.414062 C 44.648438 35.414062 44.835938 35.230469 44.835938 35 C 44.835938 34.773438 44.648438 34.585938 44.417969 34.585938 L 31.84375 34.585938 " fill-opacity="1" fill-rule="nonzero"/></svg>