<svg xmlns="http://www.w3.org/2000/svg" xmlns:xlink="http://www.w3.org/1999/xlink" width="330" zoomAndPan="magnify" viewBox="0 0 247.92 85.92" height="104" preserveAspectRatio="xMidYMid meet" version="1.0"><defs><clipPath id="c0bf90d1ac"><path d="M 0.0742188 0 L 247.34375 0 L 247.34375 77.925781 L 0.0742188 77.925781 Z M 0.0742188 0 " clip-rule="nonzero"/></clipPath><clipPath id="314ee9bc6d"><path d="M 3.023438 3.863281 L 244.300781 3.863281 L 244.300781 74.203125 L 3.023438 74.203125 Z M 3.023438 3.863281 " clip-rule="nonzero"/></clipPath><clipPath id="daf46661cb"><path d="M 3.023438 3.8125 L 244.300781 3.8125 L 244.300781 70 L 3.023438 70 Z M 3.023438 3.8125 " clip-rule="nonzero"/></clipPath></defs><g clip-path="url(#c0bf90d1ac)"><path fill="#ffffff" d="M 0.0742188 0 L 247.34375 0 L 247.34375 77.925781 L 0.0742188 77.925781 Z M 0.0742188 0 " fill-opacity="1" fill-rule="nonzero"/><path fill="#d9d9d9" d="M 0.0742188 0 L 247.34375 0 L 247.34375 77.925781 L 0.0742188 77.925781 Z M 0.0742188 0 " fill-opacity="1" fill-rule="nonzero"/></g><g clip-path="url(#314ee9bc6d)"><path fill="#ef1111" d="M 209.210938 74.203125 L 38.113281 74.203125 C 18.734375 74.203125 3.023438 58.457031 3.023438 39.03125 C 3.023438 19.609375 18.734375 3.859375 38.113281 3.859375 L 209.210938 3.859375 C 228.589844 3.859375 244.300781 19.609375 244.300781 39.03125 C 244.300781 58.457031 228.589844 74.203125 209.210938 74.203125 " fill-opacity="1" fill-rule="nonzero"/><path fill="#d70f0f" d="M 209.210938 74.203125 L 38.113281 74.203125 C 18.734375 74.203125 3.023438 58.457031 3.023438 39.03125 C 3.023438 19.609375 18.734375 3.859375 38.113281 3.859375 L 209.210938 3.859375 C 228.589844 3.859375 244.300781 19.609375 244.300781 39.03125 C 244.300781 58.457031 228.589844 74.203125 209.210938 74.203125 " fill-opacity="1" fill-rule="nonzero"/></g><g clip-path="url(#daf46661cb)"><path fill="#ff0000" d="M 209.210938 3.859375 L 38.113281 3.859375 C 18.734375 3.859375 3.023438 19.609375 3.023438 39.03125 C 3.023438 44.132812 4.109375 48.980469 6.058594 53.355469 C 8.589844 57.667969 12.171875 61.367188 16.550781 64.058594 C 21.964844 67.378906 28.347656 69.296875 35.183594 69.296875 L 212.140625 69.296875 C 218.972656 69.296875 225.359375 67.378906 230.773438 64.058594 C 235.152344 61.367188 238.734375 57.667969 241.265625 53.355469 C 243.214844 48.980469 244.300781 44.132812 244.300781 39.03125 C 244.300781 19.609375 228.589844 3.859375 209.210938 3.859375 " fill-opacity="1" fill-rule="nonzero"/></g><path fill="#ffffff" d="M 63.023438 38.285156 C 63.023438 52.863281 51.234375 64.683594 36.6875 64.683594 C 22.144531 64.683594 10.355469 52.863281 10.355469 38.285156 C 10.355469 23.707031 22.144531 11.886719 36.6875 11.886719 C 51.234375 11.886719 63.023438 23.707031 63.023438 38.285156 " fill-opacity="1" fill-rule="nonzero"/><path fill="#ef1111" d="M 49.261719 38.285156 L 29.039062 24.683594 L 29.039062 51.886719 Z M 49.261719 38.285156 " fill-opacity="1" fill-rule="nonzero"/><path fill="#ffffff" d="M 73.230469 31.109375 L 77.875 31.109375 L 79.546875 39.992188 L 81.996094 31.109375 L 86.628906 31.109375 L 89.082031 39.980469 L 90.757812 31.109375 L 95.378906 31.109375 L 91.890625 46.980469 L 87.09375 46.980469 L 84.316406 36.984375 L 81.546875 46.980469 L 76.75 46.980469 L 73.230469 31.109375 " fill-opacity="1" fill-rule="nonzero"/><path fill="#ffffff" d="M 105.699219 40.925781 L 103.949219 35.222656 L 102.222656 40.925781 Z M 106.714844 44.359375 L 101.160156 44.359375 L 100.386719 46.980469 L 95.390625 46.980469 L 101.339844 31.109375 L 106.679688 31.109375 L 112.628906 46.980469 L 107.503906 46.980469 L 106.714844 44.359375 " fill-opacity="1" fill-rule="nonzero"/><path fill="#ffffff" d="M 111.546875 31.109375 L 126.421875 31.109375 L 126.421875 35.027344 L 121.429688 35.027344 L 121.429688 46.980469 L 116.539062 46.980469 L 116.539062 35.027344 L 111.546875 35.027344 L 111.546875 31.109375 " fill-opacity="1" fill-rule="nonzero"/><path fill="#ffffff" d="M 138.421875 40.484375 L 142.707031 41.78125 C 142.421875 42.988281 141.964844 43.996094 141.347656 44.804688 C 140.726562 45.613281 139.960938 46.222656 139.042969 46.632812 C 138.125 47.042969 136.957031 47.25 135.535156 47.25 C 133.816406 47.25 132.410156 47 131.320312 46.496094 C 130.230469 45.996094 129.285156 45.117188 128.496094 43.851562 C 127.703125 42.589844 127.308594 40.976562 127.308594 39.003906 C 127.308594 36.378906 128.003906 34.363281 129.394531 32.953125 C 130.789062 31.542969 132.761719 30.835938 135.308594 30.835938 C 137.304688 30.835938 138.871094 31.242188 140.011719 32.050781 C 141.15625 32.859375 142 34.101562 142.554688 35.773438 L 138.238281 36.738281 C 138.085938 36.253906 137.925781 35.902344 137.761719 35.675781 C 137.488281 35.300781 137.152344 35.011719 136.757812 34.8125 C 136.363281 34.609375 135.917969 34.507812 135.429688 34.507812 C 134.320312 34.507812 133.46875 34.953125 132.878906 35.847656 C 132.433594 36.511719 132.210938 37.554688 132.210938 38.972656 C 132.210938 40.730469 132.476562 41.9375 133.007812 42.589844 C 133.542969 43.242188 134.292969 43.570312 135.253906 43.570312 C 136.191406 43.570312 136.898438 43.304688 137.378906 42.777344 C 137.855469 42.253906 138.203125 41.488281 138.421875 40.484375 " fill-opacity="1" fill-rule="nonzero"/><path fill="#ffffff" d="M 145.105469 31.109375 L 150 31.109375 L 150 36.660156 L 155.34375 36.660156 L 155.34375 31.109375 L 160.257812 31.109375 L 160.257812 46.980469 L 155.34375 46.980469 L 155.34375 40.558594 L 150 40.558594 L 150 46.980469 L 145.105469 46.980469 L 145.105469 31.109375 " fill-opacity="1" fill-rule="nonzero"/><path fill="#ffffff" d="M 170.917969 31.109375 L 175.488281 31.109375 L 181.449219 39.886719 L 181.449219 31.109375 L 186.0625 31.109375 L 186.0625 46.980469 L 181.449219 46.980469 L 175.519531 38.265625 L 175.519531 46.980469 L 170.917969 46.980469 L 170.917969 31.109375 " fill-opacity="1" fill-rule="nonzero"/><path fill="#ffffff" d="M 193.589844 39.074219 C 193.589844 40.679688 193.886719 41.828125 194.480469 42.53125 C 195.074219 43.230469 195.882812 43.578125 196.90625 43.578125 C 197.957031 43.578125 198.769531 43.238281 199.347656 42.550781 C 199.921875 41.867188 200.210938 40.636719 200.210938 38.859375 C 200.210938 37.363281 199.910156 36.273438 199.308594 35.585938 C 198.707031 34.894531 197.890625 34.550781 196.863281 34.550781 C 195.875 34.550781 195.082031 34.902344 194.484375 35.601562 C 193.886719 36.300781 193.589844 37.460938 193.589844 39.074219 Z M 188.695312 39.054688 C 188.695312 36.464844 189.417969 34.445312 190.855469 33.003906 C 192.296875 31.558594 194.300781 30.835938 196.875 30.835938 C 199.507812 30.835938 201.539062 31.546875 202.964844 32.964844 C 204.390625 34.382812 205.101562 36.371094 205.101562 38.925781 C 205.101562 40.78125 204.792969 42.300781 204.167969 43.488281 C 203.546875 44.675781 202.644531 45.597656 201.46875 46.257812 C 200.289062 46.917969 198.824219 47.25 197.066406 47.25 C 195.28125 47.25 193.804688 46.964844 192.632812 46.394531 C 191.464844 45.824219 190.515625 44.921875 189.789062 43.6875 C 189.0625 42.453125 188.695312 40.910156 188.695312 39.054688 " fill-opacity="1" fill-rule="nonzero"/><path fill="#ffffff" d="M 205.730469 31.109375 L 210.375 31.109375 L 212.046875 39.992188 L 214.5 31.109375 L 219.128906 31.109375 L 221.582031 39.980469 L 223.257812 31.109375 L 227.882812 31.109375 L 224.390625 46.980469 L 219.59375 46.980469 L 216.816406 36.984375 L 214.050781 46.980469 L 209.253906 46.980469 L 205.730469 31.109375 " fill-opacity="1" fill-rule="nonzero"/></svg>