<?xml version="1.0" encoding="UTF-8"?>
<svg xmlns="http://www.w3.org/2000/svg" width="176" height="176" viewBox="0 0 176 176" role="img" aria-label="Worksheets are on the way">
<title>Worksheets are on the way</title>
<defs>
  <linearGradient id="bg" x1="0" y1="0" x2="1" y2="1">
    <stop offset="0%" stop-color="#5b1f9a"></stop>
    <stop offset="55%" stop-color="#3a1170"></stop>
    <stop offset="100%" stop-color="#1d063e"></stop>
  </linearGradient>
  <radialGradient id="topGlow" cx="0.18" cy="0.10" r="0.55">
    <stop offset="0%" stop-color="#ffffff" stop-opacity="0.28"></stop>
    <stop offset="100%" stop-color="#ffffff" stop-opacity="0"></stop>
  </radialGradient>
  <linearGradient id="paper" x1="0" y1="0" x2="0" y2="1">
    <stop offset="0%" stop-color="#fbf7ff"></stop>
    <stop offset="100%" stop-color="#e3d3f9"></stop>
  </linearGradient>
  <linearGradient id="paperFold" x1="0" y1="0" x2="1" y2="1">
    <stop offset="0%" stop-color="#b893e0"></stop>
    <stop offset="100%" stop-color="#8456c5"></stop>
  </linearGradient>
  <linearGradient id="planeLight" x1="0" y1="0" x2="0" y2="1">
    <stop offset="0%" stop-color="#d4b9f5"></stop>
    <stop offset="100%" stop-color="#a181d4"></stop>
  </linearGradient>
  <linearGradient id="planeDark" x1="0" y1="0" x2="0" y2="1">
    <stop offset="0%" stop-color="#9268c8"></stop>
    <stop offset="100%" stop-color="#6a3da6"></stop>
  </linearGradient>
  <clipPath id="clip">
    <rect x="0" y="0" width="176" height="176" rx="32" ry="32"></rect>
  </clipPath>
</defs>


<g clip-path="url(#clip)">
  <rect x="0" y="0" width="176" height="176" fill="url(#bg)"></rect>

  
  <g fill="none" stroke="#c08aff" stroke-width="0.6" opacity="0.35">
    <path d="M40 168 C 70 160, 110 168, 150 156 S 200 162, 230 154"></path>
    <path d="M30 178 C 70 170, 110 178, 150 168 S 200 174, 230 166"></path>
    <path d="M20 188 C 70 180, 110 188, 150 178 S 200 184, 230 176"></path>
  </g>
  
  <path d="M70 158 Q 110 152 150 158 T 230 158 L 230 200 L 0 200 Z" fill="#1a0738" opacity="0.45"></path>

  
  <rect x="0" y="0" width="176" height="176" fill="url(#topGlow)"></rect>

  
  <g stroke="#c08aff" stroke-linecap="round" fill="none" opacity="0.78">
    <line x1="12" y1="52" x2="50" y2="52" stroke-width="2.2"></line>
    <line x1="6" y1="64" x2="58" y2="64" stroke-width="2.4"></line>
    <line x1="14" y1="76" x2="48" y2="76" stroke-width="2.0"></line>
    <line x1="20" y1="88" x2="46" y2="88" stroke-width="1.8" opacity="0.6"></line>
  </g>

  
  <path d="M52 108 C 36 122, 40 138, 70 138 C 100 138, 134 132, 142 116" fill="none" stroke="#ffffff" stroke-width="1.4" stroke-dasharray="2.5 3" stroke-linecap="round" opacity="0.7"></path>

  
  <g transform="rotate(-3 88 70)">
    
    <rect x="49" y="22" width="60" height="80" rx="4" ry="4" fill="#1d063e" opacity="0.4" transform="translate(2,3)"></rect>
    
    <path d="M51 22 L101 22 L109 30 L109 102 L51 102 Z" fill="url(#paper)" stroke="#5a3a90" stroke-width="1.2"></path>
    
    <path d="M101 22 L109 30 L101 30 Z" fill="url(#paperFold)" stroke="#5a3a90" stroke-width="0.8"></path>

    
    <g transform="translate(-3, -1) scale(1)">
      <path d="M62.16 38.06L62.16 38.06Q61.95 38.06 61.82 37.96Q61.69 37.86 61.61 37.65L61.61 37.65L60.30 33.96Q60.21 33.71 60.33 33.53Q60.45 33.36 60.75 33.36L60.75 33.36Q60.96 33.36 61.08 33.46Q61.19 33.55 61.26 33.76L61.26 33.76L62.20 36.55L63.19 33.77Q63.26 33.56 63.38 33.46Q63.49 33.36 63.68 33.36L63.68 33.36Q63.86 33.36 63.97 33.46Q64.08 33.56 64.16 33.77L64.16 33.77L65.12 36.60L66.09 33.76Q66.16 33.56 66.27 33.46Q66.39 33.36 66.59 33.36L66.59 33.36Q66.84 33.36 66.96 33.53Q67.08 33.71 66.99 33.96L66.99 33.96L65.66 37.66Q65.59 37.86 65.47 37.96Q65.34 38.06 65.13 38.06L65.13 38.06Q64.92 38.06 64.80 37.96Q64.67 37.86 64.60 37.65L64.60 37.65L63.65 34.96L62.68 37.66Q62.61 37.86 62.49 37.96Q62.37 38.06 62.16 38.06ZM69.74 38.07L69.74 38.07Q69.07 38.07 68.56 37.78Q68.05 37.48 67.76 36.95Q67.48 36.41 67.48 35.71L67.48 35.71Q67.48 35.17 67.64 34.73Q67.80 34.30 68.10 33.99Q68.40 33.68 68.82 33.52Q69.24 33.35 69.74 33.35L69.74 33.35Q70.43 33.35 70.94 33.64Q71.45 33.93 71.73 34.46Q72.01 34.99 72.01 35.70L72.01 35.70Q72.01 36.24 71.85 36.67Q71.69 37.11 71.39 37.42Q71.09 37.73 70.67 37.90Q70.26 38.07 69.74 38.07ZM69.74 37.21L69.74 37.21Q70.13 37.21 70.40 37.03Q70.67 36.86 70.81 36.51Q70.96 36.17 70.96 35.71L70.96 35.71Q70.96 34.99 70.64 34.60Q70.32 34.20 69.74 34.20L69.74 34.20Q69.37 34.20 69.09 34.38Q68.82 34.55 68.68 34.89Q68.53 35.23 68.53 35.71L68.53 35.71Q68.53 36.41 68.85 36.81Q69.17 37.21 69.74 37.21ZM73.30 38.06L73.30 38.06Q73.05 38.06 72.92 37.92Q72.79 37.79 72.79 37.54L72.79 37.54L72.79 33.93Q72.79 33.68 72.93 33.55Q73.06 33.42 73.31 33.42L73.31 33.42L74.89 33.42Q75.65 33.42 76.07 33.79Q76.48 34.16 76.48 34.82L76.48 34.82Q76.48 35.25 76.30 35.56Q76.11 35.87 75.76 36.04L75.76 36.04Q75.63 36.10 75.48 36.14L75.48 36.14Q75.59 36.17 75.68 36.23L75.68 36.23Q75.89 36.37 76.04 36.64L76.04 36.64L76.44 37.39Q76.53 37.55 76.52 37.71Q76.52 37.86 76.41 37.96Q76.30 38.06 76.08 38.06Q75.87 38.06 75.73 37.97Q75.60 37.88 75.50 37.69L75.50 37.69L74.87 36.54Q74.77 36.36 74.63 36.29Q74.50 36.23 74.29 36.23L74.29 36.23L73.80 36.23L73.80 37.54Q73.80 37.79 73.67 37.92Q73.55 38.06 73.30 38.06ZM73.80 34.20L73.80 35.50L74.70 35.50Q75.11 35.50 75.31 35.34Q75.52 35.17 75.52 34.85L75.52 34.85Q75.52 34.53 75.31 34.37Q75.11 34.20 74.70 34.20L74.70 34.20L73.80 34.20ZM77.82 38.06L77.82 38.06Q77.58 38.06 77.45 37.92Q77.32 37.79 77.32 37.54L77.32 37.54L77.32 33.87Q77.32 33.63 77.45 33.49Q77.58 33.36 77.82 33.36L77.82 33.36Q78.06 33.36 78.19 33.49Q78.32 33.63 78.32 33.87L78.32 33.87L78.32 35.41L78.34 35.41L80.07 33.61Q80.18 33.49 80.30 33.43Q80.42 33.37 80.57 33.37L80.57 33.37Q80.80 33.37 80.90 33.48Q81.00 33.60 80.99 33.76Q80.98 33.91 80.85 34.05L80.85 34.05L79.32 35.61L80.94 37.33Q81.09 37.49 81.09 37.66Q81.09 37.83 80.98 37.94Q80.87 38.06 80.64 38.06L80.64 38.06Q80.46 38.06 80.34 37.98Q80.23 37.90 80.09 37.75L80.09 37.75L78.34 35.91L78.32 35.91L78.32 37.54Q78.32 37.79 78.20 37.92Q78.07 38.06 77.82 38.06ZM83.30 38.07L83.30 38.07Q83.02 38.07 82.74 38.03Q82.46 37.99 82.20 37.91Q81.94 37.83 81.74 37.71L81.74 37.71Q81.60 37.64 81.54 37.51Q81.48 37.38 81.50 37.25Q81.52 37.12 81.60 37.02Q81.68 36.92 81.80 36.89Q81.93 36.86 82.09 36.94L82.09 36.94Q82.35 37.09 82.67 37.16Q82.98 37.23 83.30 37.23L83.30 37.23Q83.77 37.23 83.97 37.09Q84.17 36.94 84.17 36.72L84.17 36.72Q84.17 36.53 84.03 36.42Q83.89 36.31 83.53 36.23L83.53 36.23L82.80 36.08Q82.17 35.95 81.87 35.63Q81.57 35.32 81.57 34.80L81.57 34.80Q81.57 34.48 81.70 34.21Q81.84 33.94 82.09 33.75Q82.33 33.55 82.68 33.45Q83.02 33.35 83.43 33.35L83.43 33.35Q83.79 33.35 84.14 33.43Q84.49 33.52 84.76 33.69L84.76 33.69Q84.89 33.77 84.94 33.89Q84.99 34.01 84.97 34.13Q84.95 34.25 84.87 34.34Q84.79 34.43 84.67 34.46Q84.54 34.48 84.37 34.40L84.37 34.40Q84.15 34.29 83.91 34.24Q83.67 34.18 83.42 34.18L83.42 34.18Q83.15 34.18 82.95 34.26Q82.76 34.33 82.66 34.46Q82.56 34.59 82.56 34.76L82.56 34.76Q82.56 34.95 82.70 35.06Q82.83 35.18 83.17 35.25L83.17 35.25L83.91 35.41Q84.54 35.54 84.86 35.85Q85.17 36.15 85.17 36.64L85.17 36.64Q85.17 36.97 85.04 37.23Q84.91 37.49 84.66 37.68Q84.41 37.87 84.07 37.97Q83.72 38.07 83.30 38.07ZM86.33 38.06L86.33 38.06Q86.08 38.06 85.95 37.92Q85.82 37.79 85.82 37.54L85.82 37.54L85.82 33.88Q85.82 33.63 85.95 33.50Q86.08 33.36 86.33 33.36L86.33 33.36Q86.57 33.36 86.70 33.50Q86.83 33.63 86.83 33.88L86.83 33.88L86.83 35.26L88.96 35.26L88.96 33.88Q88.96 33.63 89.09 33.50Q89.22 33.36 89.46 33.36L89.46 33.36Q89.71 33.36 89.84 33.50Q89.97 33.63 89.97 33.88L89.97 33.88L89.97 37.54Q89.97 37.79 89.84 37.92Q89.71 38.06 89.46 38.06L89.46 38.06Q89.22 38.06 89.09 37.92Q88.96 37.79 88.96 37.54L88.96 37.54L88.96 36.10L86.83 36.10L86.83 37.54Q86.83 37.79 86.71 37.92Q86.58 38.06 86.33 38.06ZM93.69 38L91.42 38Q91.17 38 91.03 37.86Q90.89 37.73 90.89 37.47L90.89 37.47L90.89 33.94Q90.89 33.69 91.03 33.55Q91.17 33.42 91.42 33.42L91.42 33.42L93.69 33.42Q93.88 33.42 93.99 33.52Q94.09 33.62 94.09 33.81L94.09 33.81Q94.09 34.00 93.99 34.10Q93.88 34.20 93.69 34.20L93.69 34.20L91.86 34.20L91.86 35.28L93.54 35.28Q93.74 35.28 93.84 35.38Q93.94 35.48 93.94 35.67L93.94 35.67Q93.94 35.87 93.84 35.97Q93.74 36.07 93.54 36.07L93.54 36.07L91.86 36.07L91.86 37.21L93.69 37.21Q93.88 37.21 93.99 37.31Q94.09 37.41 94.09 37.60L94.09 37.60Q94.09 37.80 93.99 37.90Q93.88 38 93.69 38L93.69 38ZM97.62 38L95.35 38Q95.10 38 94.96 37.86Q94.83 37.73 94.83 37.47L94.83 37.47L94.83 33.94Q94.83 33.69 94.96 33.55Q95.10 33.42 95.35 33.42L95.35 33.42L97.62 33.42Q97.82 33.42 97.92 33.52Q98.02 33.62 98.02 33.81L98.02 33.81Q98.02 34.00 97.92 34.10Q97.82 34.20 97.62 34.20L97.62 34.20L95.79 34.20L95.79 35.28L97.47 35.28Q97.67 35.28 97.77 35.38Q97.88 35.48 97.88 35.67L97.88 35.67Q97.88 35.87 97.77 35.97Q97.67 36.07 97.47 36.07L97.47 36.07L95.79 36.07L95.79 37.21L97.62 37.21Q97.82 37.21 97.92 37.31Q98.02 37.41 98.02 37.60L98.02 37.60Q98.02 37.80 97.92 37.90Q97.82 38 97.62 38L97.62 38ZM100.36 38.06L100.36 38.06Q100.11 38.06 99.98 37.92Q99.85 37.79 99.85 37.54L99.85 37.54L99.85 34.25L98.70 34.25Q98.50 34.25 98.39 34.14Q98.28 34.03 98.28 33.83L98.28 33.83Q98.28 33.63 98.39 33.52Q98.50 33.42 98.70 33.42L98.70 33.42L102.01 33.42Q102.21 33.42 102.32 33.52Q102.43 33.63 102.43 33.83L102.43 33.83Q102.43 34.03 102.32 34.14Q102.21 34.25 102.01 34.25L102.01 34.25L100.86 34.25L100.86 37.54Q100.86 37.79 100.73 37.92Q100.61 38.06 100.36 38.06Z" fill="#3a1170"></path>
    </g>

    
    <rect x="56" y="42" width="46" height="0.8" fill="#3a1170" opacity="0.2"></rect>

    
    <g>
      
      <circle cx="59" cy="51" r="1.2" fill="#a981dd"></circle>
      <rect x="64" y="50" width="36" height="1.6" rx="0.8" fill="#a981dd" opacity="0.55"></rect>
      
      <circle cx="59" cy="57" r="1.2" fill="#a981dd"></circle>
      <rect x="64" y="56" width="32" height="1.6" rx="0.8" fill="#a981dd" opacity="0.55"></rect>
    </g>

    
    <g>
      
      <rect x="57" y="64" width="6" height="6" rx="1" fill="none" stroke="#6a3da6" stroke-width="1.1"></rect>
      <path d="M58.5 67 L60.3 68.6 L62.2 65.4" fill="none" stroke="#6a3da6" stroke-width="1.4" stroke-linecap="round" stroke-linejoin="round"></path>
      <rect x="66" y="66.2" width="34" height="1.8" rx="0.9" fill="#a981dd" opacity="0.65"></rect>

      
      <rect x="57" y="74" width="6" height="6" rx="1" fill="none" stroke="#6a3da6" stroke-width="1.1"></rect>
      <path d="M58.5 77 L60.3 78.6 L62.2 75.4" fill="none" stroke="#6a3da6" stroke-width="1.4" stroke-linecap="round" stroke-linejoin="round"></path>
      <rect x="66" y="76.2" width="30" height="1.8" rx="0.9" fill="#a981dd" opacity="0.65"></rect>

      
      <rect x="57" y="84" width="6" height="6" rx="1" fill="none" stroke="#6a3da6" stroke-width="1.1"></rect>
      <rect x="66" y="86.2" width="26" height="1.8" rx="0.9" fill="#a981dd" opacity="0.55"></rect>
    </g>
  </g>

  
  <g transform="translate(112 64) rotate(20)">
    
    <path d="M0 0 L42 -6 L18 8 Z" fill="url(#planeLight)" stroke="#5a3a90" stroke-width="0.9" stroke-linejoin="round"></path>
    
    <path d="M18 8 L42 -6 L24 16 Z" fill="url(#planeDark)" stroke="#5a3a90" stroke-width="0.9" stroke-linejoin="round"></path>
    
    <path d="M18 8 L8 12" stroke="#5a3a90" stroke-width="0.7" fill="none"></path>
  </g>

  
  <path d="M55.20 135.36L55.20 135.36Q54.91 135.39 54.68 135.24Q54.45 135.10 54.36 134.88L54.36 134.88Q54.27 134.77 54.08 134.41Q53.88 134.04 53.83 133.78L53.83 133.78Q53.77 133.08 53.76 132.42Q53.75 131.76 53.81 130.57L53.81 130.57Q53.88 129.60 54.08 128.84Q54.27 128.08 54.47 127.54Q54.67 127.00 54.78 126.72L54.78 126.72Q54.87 126.48 54.85 126.45L54.85 126.45Q54.82 126.45 54.82 126.45L54.82 126.45Q54.74 126.45 54.64 126.62Q54.54 126.78 54.42 127.05Q54.30 127.31 54.15 127.62Q54.01 127.93 53.86 128.21L53.86 128.21Q53.55 128.90 53.14 129.66Q52.73 130.41 52.32 131.12Q51.90 131.82 51.59 132.35L51.59 132.35Q51.39 132.57 51.13 132.98Q50.86 133.38 50.56 133.82Q50.25 134.26 49.92 134.55L49.92 134.55Q49.43 135.01 48.93 135.11Q48.42 135.21 47.98 134.99L47.98 134.99Q47.76 134.97 47.52 134.76Q47.28 134.55 47.13 134.24Q46.99 133.93 47.06 133.67L47.06 133.67Q47.04 133.36 47.07 132.71Q47.10 132.06 47.19 131.28Q47.28 130.50 47.38 129.78Q47.48 129.05 47.56 128.57L47.56 128.57Q47.76 127.16 48.10 125.68Q48.44 124.21 48.73 122.71L48.73 122.71Q48.91 122.27 49.05 121.71Q49.19 121.15 49.35 120.67L49.35 120.67Q49.37 120.18 49.70 120.06Q50.03 119.94 50.41 120.03Q50.80 120.12 50.95 120.34L50.95 120.34Q51.17 120.56 51.37 121.02Q51.57 121.48 51.26 122.19L51.26 122.19Q50.82 123.26 50.41 124.81Q50.01 126.37 49.68 128.57L49.68 128.57Q49.59 129.09 49.49 129.74Q49.39 130.39 49.31 130.99Q49.24 131.58 49.20 131.97Q49.17 132.35 49.21 132.37L49.21 132.37Q49.39 132.42 49.60 132.17Q49.81 131.93 50.05 131.40L50.05 131.40Q50.95 129.91 51.75 128.43Q52.56 126.96 53.37 125.35L53.37 125.35Q53.75 124.72 54.13 123.96Q54.52 123.20 54.87 122.56L54.87 122.56Q55.24 121.90 55.59 121.28Q55.95 120.67 56.21 120.24Q56.47 119.81 56.61 119.77L56.61 119.77Q57.20 119.77 57.50 120.07Q57.79 120.38 57.97 120.82L57.97 120.82Q58.01 120.93 58.02 121.20Q58.04 121.46 57.95 121.66L57.95 121.66Q57.93 121.81 57.76 122.30Q57.60 122.78 57.46 123.37L57.46 123.37Q57.24 123.97 57.08 124.55Q56.91 125.13 56.85 125.51L56.85 125.51Q56.67 126.45 56.41 127.58Q56.14 128.70 55.96 129.80Q55.77 130.90 55.75 131.78L55.75 131.78Q55.73 132.39 55.76 132.58Q55.79 132.77 55.88 132.97L55.88 132.97Q55.90 133.05 55.95 133.08L55.95 133.08Q56.01 133.10 56.08 133.05L56.08 133.05Q56.23 132.97 56.39 132.75L56.39 132.75Q56.69 132.28 56.86 131.95Q57.02 131.62 57.20 131.24Q57.38 130.85 57.68 130.26L57.68 130.26Q58.23 129.25 58.82 128.04Q59.40 126.83 59.94 125.64Q60.48 124.45 60.87 123.53L60.87 123.53Q61.29 122.34 61.58 121.60Q61.86 120.87 62.11 120.47Q62.35 120.07 62.57 119.94L62.57 119.94Q62.68 119.85 63.04 119.85Q63.40 119.85 63.60 120.03L63.60 120.03Q63.69 120.12 63.91 120.32Q64.13 120.51 64.11 120.78L64.11 120.78Q64.00 121.13 63.70 121.92Q63.40 122.71 63.02 123.67Q62.63 124.63 62.27 125.50Q61.91 126.37 61.67 126.87L61.67 126.87Q61.42 127.33 61.20 127.66Q60.98 127.99 60.98 128.17L60.98 128.17Q60.98 128.26 60.76 128.71Q60.54 129.16 60.20 129.80Q59.86 130.44 59.47 131.12Q59.07 131.80 58.72 132.37Q58.37 132.94 58.12 133.25L58.12 133.25Q57.57 133.93 56.95 134.41Q56.32 134.88 55.84 135.12Q55.35 135.36 55.20 135.36ZM63.67 133.85L63.67 133.85Q63.38 133.85 63.22 133.74Q63.05 133.63 62.81 133.43L62.81 133.43Q62.39 132.99 62.14 132.48Q61.89 131.98 61.95 131.60L61.95 131.60Q62.02 131.43 62.02 131.25L62.02 131.25L62.00 131.10Q61.91 131.01 61.93 130.96L61.93 130.96Q61.93 130.96 61.93 130.94L61.93 130.94Q61.97 130.92 62.02 130.83L62.02 130.83Q62.06 130.83 62.08 130.81L62.08 130.81Q62.13 130.77 62.11 130.59L62.11 130.59Q62.06 130.41 62.25 129.83Q62.44 129.25 62.77 128.72L62.77 128.72Q62.90 128.50 63.16 128.14Q63.43 127.77 63.74 127.41Q64.06 127.05 64.33 126.83L64.33 126.83Q64.88 126.37 65.35 126.08Q65.82 125.79 66.31 125.68Q66.79 125.57 67.31 125.57Q67.83 125.57 68.16 125.93L68.16 125.93Q68.66 126.15 68.87 126.52Q69.08 126.89 69.15 127.49L69.15 127.49Q69.21 128.15 69.01 129.10Q68.82 130.06 67.94 131.32L67.94 131.32Q67.39 132.11 66.86 132.55Q66.33 132.99 65.69 133.36L65.69 133.36Q65.23 133.67 64.70 133.74Q64.17 133.80 63.67 133.85ZM65.91 131.16L65.91 131.16Q66.40 130.74 66.60 130.24Q66.81 129.73 67.06 129.05L67.06 129.05Q67.14 128.92 67.18 128.61Q67.21 128.30 67.19 128.00Q67.17 127.71 67.03 127.66L67.03 127.66Q66.84 127.51 66.64 127.59Q66.44 127.66 66.13 127.88L66.13 127.88Q65.47 128.43 64.91 129.15Q64.35 129.86 64.13 130.90L64.13 130.90Q64.06 131.45 64.25 131.72Q64.44 132.00 64.87 131.88Q65.30 131.76 65.91 131.16ZM70.55 133.41L70.55 133.41Q70.36 133.25 70.13 133.01Q69.89 132.77 69.96 132.33L69.96 132.33Q70.03 131.71 70.14 131.24Q70.25 130.77 70.40 130.15L70.40 130.15Q70.44 129.89 70.63 129.25Q70.82 128.61 71.08 127.86Q71.35 127.11 71.63 126.44Q71.92 125.77 72.14 125.44L72.14 125.44Q72.38 125.22 72.85 125.22Q73.33 125.22 73.50 125.40L73.50 125.40Q73.74 125.60 73.66 126.09Q73.57 126.59 73.04 127.62L73.04 127.62Q72.93 127.88 72.76 128.18Q72.60 128.48 72.53 128.65L72.53 128.65Q72.49 128.79 72.53 128.83L72.53 128.83Q72.53 128.83 72.58 128.83L72.58 128.83Q72.71 128.59 73.06 128.27Q73.41 127.95 73.81 127.64Q74.21 127.33 74.56 127.09Q74.91 126.85 75.04 126.78L75.04 126.78Q75.22 126.67 75.45 126.60Q75.68 126.52 75.77 126.48L75.77 126.48Q76.27 126.23 76.88 126.29Q77.48 126.34 77.62 126.67L77.62 126.67Q77.64 126.85 77.77 126.94L77.77 126.94L77.88 127.03Q77.97 127.03 77.99 127.09L77.99 127.09L77.99 127.16Q77.99 127.31 77.69 127.60Q77.40 127.88 77.04 127.91L77.04 127.91Q76.76 127.93 76.54 128.02Q76.32 128.10 76.01 128.24L76.01 128.24Q75.17 128.72 74.50 129.09Q73.83 129.47 73.13 130.24L73.13 130.24Q72.97 130.41 72.80 130.57Q72.62 130.72 72.45 131.01L72.45 131.01Q72.34 131.12 72.23 131.49Q72.12 131.87 72.04 132.21Q71.96 132.55 71.96 132.61L71.96 132.61L71.90 132.81Q71.83 133.03 71.68 133.23L71.68 133.23Q71.41 133.58 71.16 133.67Q70.91 133.76 70.55 133.41ZM78.67 134.07L78.67 134.07Q78.50 134 78.21 133.70Q77.92 133.41 77.70 133.04Q77.48 132.68 77.48 132.44L77.48 132.44Q77.59 132.20 77.78 131.58Q77.97 130.96 78.21 130.19L78.21 130.19Q78.39 129.95 78.48 129.63Q78.58 129.31 78.67 129.05L78.67 129.05Q78.85 128.65 79.07 128.15Q79.29 127.64 79.50 127.11Q79.71 126.59 79.88 126.19L79.88 126.19Q80.19 125.53 80.40 125.03Q80.61 124.54 80.82 124.06Q81.03 123.57 81.27 122.98L81.27 122.98Q81.60 122.30 81.87 121.63Q82.15 120.95 82.36 120.43Q82.57 119.90 82.61 119.68L82.61 119.68Q82.59 119.50 82.65 119.42Q82.72 119.35 82.83 119.33L82.83 119.33Q82.94 119.26 83.18 119.24Q83.42 119.22 83.51 119.22L83.51 119.22Q83.78 119.26 84.05 119.64Q84.33 120.03 84.33 120.29L84.33 120.29Q84.33 120.65 83.98 121.60Q83.64 122.56 83.01 123.86L83.01 123.86Q82.24 125.51 81.85 126.41Q81.47 127.31 81.33 127.69Q81.20 128.06 81.22 128.17L81.22 128.17L81.40 128.10Q81.58 128.04 81.93 127.80L81.93 127.80Q82.17 127.64 82.48 127.40Q82.79 127.16 83.08 126.96Q83.38 126.76 83.56 126.72L83.56 126.72Q83.67 126.63 83.86 126.50Q84.06 126.37 84.24 126.26L84.24 126.26Q84.66 125.95 84.90 126.06Q85.14 126.17 85.34 126.43L85.34 126.43Q85.58 126.72 85.52 127.04Q85.47 127.36 84.83 127.86L84.83 127.86Q84.35 128.21 83.80 128.53Q83.25 128.85 82.80 129.09Q82.35 129.34 82.15 129.49L82.15 129.49L82.35 129.78Q82.54 130.06 82.72 130.33L82.72 130.33Q82.90 130.68 83.16 131.22Q83.42 131.76 83.56 131.98L83.56 131.98Q83.80 132.33 84.05 132.44Q84.30 132.55 84.81 132.37L84.81 132.37Q85.14 132.28 85.37 132.38Q85.60 132.48 85.76 132.70L85.76 132.70Q85.84 132.88 85.84 133.05Q85.84 133.23 85.56 133.47L85.56 133.47Q84.94 133.89 84.36 134.19Q83.78 134.48 83.25 134.13L83.25 134.13Q82.79 133.78 82.38 133.33Q81.97 132.88 81.47 132.22L81.47 132.22Q81.47 132.13 81.33 131.84Q81.20 131.56 81.16 131.51L81.16 131.51Q81.07 131.34 80.98 131.18L80.98 131.18L80.87 131.05Q80.81 130.81 80.71 130.66Q80.61 130.50 80.45 130.48L80.45 130.48Q80.37 130.55 80.26 130.70Q80.15 130.85 80.04 131.07L80.04 131.07Q79.90 131.40 79.77 131.72Q79.64 132.04 79.55 132.41Q79.46 132.77 79.44 133.27L79.44 133.27Q79.46 133.52 79.24 133.79Q79.02 134.07 78.67 134.07ZM87.45 134.13L87.45 134.13Q86.70 133.82 86.36 133.48Q86.02 133.14 86.09 132.88L86.09 132.88Q86.13 132.75 86.24 132.64Q86.35 132.53 86.73 132.54Q87.12 132.55 87.93 132.75L87.93 132.75Q88.18 132.75 88.42 132.72Q88.66 132.70 88.87 132.66Q89.08 132.61 89.21 132.55L89.21 132.55Q89.28 132.53 89.30 132.48L89.30 132.48Q89.30 132.46 89.28 132.42L89.28 132.42Q89.23 132.35 89.12 132.26L89.12 132.26Q89.03 132.15 88.92 132.12Q88.81 132.09 88.73 132.09L88.73 132.09Q88.68 131.98 88.54 131.87Q88.40 131.76 88.20 131.62L88.20 131.62Q87.71 131.23 87.32 130.92Q86.92 130.61 87.01 130.46L87.01 130.46L87.01 130.35Q86.86 130.35 86.72 129.92Q86.59 129.49 86.59 129.14L86.59 129.14Q86.59 128.70 86.78 128.26Q86.97 127.82 87.26 127.42Q87.56 127.03 87.87 126.72L87.87 126.72Q88.29 126.32 88.76 125.94Q89.23 125.55 89.79 125.24Q90.35 124.94 91.04 124.76L91.04 124.76Q91.34 124.69 91.74 124.69Q92.14 124.69 92.31 124.80L92.31 124.80Q92.49 124.69 92.75 124.86Q93.02 125.02 93.28 125.31Q93.54 125.60 93.68 125.88L93.68 125.88Q93.68 126.15 93.66 126.53Q93.65 126.92 93.61 127.20Q93.57 127.49 93.41 127.49L93.41 127.49L93.37 127.49Q93.30 127.51 93.30 127.62L93.30 127.62Q93.30 127.84 92.97 128.13L92.97 128.13Q92.55 128.41 92.18 128.59Q91.81 128.76 91.61 128.61L91.61 128.61Q91.48 128.52 91.37 128.43Q91.26 128.35 91.17 128.21L91.17 128.21L91.12 128.10Q91.06 128.02 91.06 127.93Q91.06 127.84 91.12 127.75L91.12 127.75L91.19 127.69Q91.50 127.40 91.66 127.16Q91.83 126.92 91.89 126.73Q91.96 126.54 91.96 126.43L91.96 126.43Q91.96 126.30 91.90 126.27Q91.85 126.23 91.67 126.23L91.67 126.23Q91.56 126.23 91.20 126.41Q90.84 126.59 90.44 126.84Q90.05 127.09 89.83 127.29L89.83 127.29Q89.74 127.44 89.70 127.49Q89.67 127.53 89.58 127.53L89.58 127.53Q89.58 127.51 89.56 127.49L89.56 127.49Q89.54 127.49 89.47 127.55L89.47 127.55Q89.36 127.66 89.21 127.86Q89.06 128.06 88.90 128.28Q88.75 128.50 88.66 128.63L88.66 128.63Q88.64 128.83 88.56 129.00Q88.48 129.16 88.51 129.34L88.51 129.34Q88.53 129.56 88.73 129.75Q88.92 129.95 89.30 130.26L89.30 130.26Q90.07 130.83 90.45 131.16Q90.84 131.49 90.99 131.69Q91.15 131.89 91.19 132.09L91.19 132.09Q91.56 132.77 91.28 133.26Q90.99 133.76 90.40 134.02L90.40 134.02Q90.18 134.13 89.63 134.23Q89.08 134.33 88.47 134.32Q87.87 134.31 87.45 134.13ZM94.84 133.16L94.84 133.16Q94.69 133.19 94.50 133.04Q94.31 132.90 94.16 132.79L94.16 132.79Q93.94 132.53 93.85 132.33Q93.76 132.13 93.76 131.89Q93.76 131.65 93.81 131.32L93.81 131.32Q93.92 130.96 94.07 130.37Q94.23 129.78 94.45 129.09L94.45 129.09Q94.49 128.83 94.61 128.47Q94.73 128.10 94.86 127.76Q95.00 127.42 95.06 127.25L95.06 127.25Q95.22 126.70 95.38 126.19Q95.55 125.68 95.79 125.02Q96.03 124.36 96.38 123.35L96.38 123.35L97.11 121.37Q97.35 120.71 97.46 120.43Q97.57 120.14 97.61 119.96L97.61 119.96Q97.61 119.79 97.87 119.62Q98.12 119.46 98.32 119.46L98.32 119.46Q98.63 119.48 98.91 119.82Q99.20 120.16 99.31 120.64Q99.42 121.11 99.15 121.55L99.15 121.55Q98.80 122.34 98.46 123.32Q98.12 124.30 97.79 125.27Q97.46 126.23 97.13 127.05L97.13 127.05Q97.11 127.16 96.99 127.42Q96.87 127.69 96.78 127.86L96.78 127.86L96.54 128.35Q96.51 128.48 96.45 128.72Q96.38 128.96 96.32 129.14L96.32 129.14Q96.29 129.25 96.25 129.42Q96.21 129.60 96.18 129.78L96.18 129.78Q96.29 129.64 96.49 129.46Q96.69 129.27 97.00 128.98L97.00 128.98Q97.35 128.68 97.61 128.46Q97.88 128.24 98.14 128.06L98.14 128.06Q98.38 127.88 98.60 127.73L98.60 127.73L98.80 127.58Q98.85 127.51 98.90 127.42Q98.96 127.33 99.02 127.31L99.02 127.31Q99.07 127.27 99.18 127.19Q99.29 127.11 99.40 127.03L99.40 127.03Q99.59 126.89 99.81 126.81Q100.03 126.72 100.28 126.67Q100.52 126.63 100.74 126.63L100.74 126.63Q101.00 126.63 101.29 126.84Q101.57 127.05 101.82 127.42L101.82 127.42Q102.04 127.71 102.09 128.09Q102.15 128.48 102.10 129.12L102.10 129.12Q102.10 129.29 102.00 129.78Q101.90 130.26 101.86 130.50L101.86 130.50L101.66 131.25L101.84 131.25Q102.08 131.16 102.32 131.23L102.32 131.23L102.54 131.29Q102.65 131.36 102.75 131.45Q102.85 131.54 102.94 131.58L102.94 131.58Q103.07 131.76 102.89 132.09Q102.72 132.42 102.50 132.55L102.50 132.55Q101.97 132.90 101.56 132.99Q101.16 133.08 100.72 132.83L100.72 132.83Q100.30 132.55 100.15 132.15Q100.01 131.76 100.03 131.07L100.03 131.07Q100.12 130.11 100.14 129.67L100.14 129.67Q100.17 129.36 100.03 129.27L100.03 129.27Q99.99 129.25 99.92 129.25L99.92 129.25Q99.66 129.25 99.21 129.50Q98.76 129.75 98.21 130.18Q97.66 130.61 97.12 131.13Q96.58 131.65 96.16 132.17L96.16 132.17Q95.90 132.50 95.59 132.82Q95.28 133.14 94.84 133.16ZM108.64 133.56L108.64 133.56Q107.98 133.93 107.24 133.99Q106.50 134.04 105.86 133.79Q105.23 133.54 104.83 133.03L104.83 133.03Q104.61 132.75 104.41 132.12Q104.21 131.49 104.35 130.41L104.35 130.41Q104.48 129.40 104.97 128.37Q105.47 127.33 106.19 126.54Q106.92 125.75 107.78 125.46L107.78 125.46Q108.09 125.35 108.41 125.30Q108.72 125.24 109.25 125.29L109.25 125.29Q109.76 125.35 110.15 125.54Q110.55 125.73 110.73 125.95L110.73 125.95Q111.08 126.30 111.19 126.63Q111.30 126.96 111.28 127.27L111.28 127.27Q111.17 127.97 110.65 128.79Q110.13 129.60 109.21 130.00L109.21 130.00Q108.83 130.15 108.33 130.19Q107.82 130.24 106.94 130.06L106.94 130.06Q106.41 129.95 106.25 130.17Q106.08 130.39 106.11 131.03L106.11 131.03Q106.15 131.43 106.29 131.72Q106.44 132.02 106.83 132.13L106.83 132.13Q107.34 132.22 107.56 132.14Q107.78 132.06 108.11 131.91L108.11 131.91Q108.28 131.80 108.46 131.67L108.46 131.67L108.79 131.40Q108.94 131.27 109.05 131.21L109.05 131.21Q109.16 131.12 109.27 131.10Q109.38 131.07 109.49 131.07L109.49 131.07Q109.74 131.10 109.96 131.34Q110.18 131.58 110.24 131.80L110.24 131.80Q110.24 131.98 110.02 132.29Q109.80 132.61 109.44 132.96Q109.08 133.30 108.64 133.56ZM108.35 128.65L108.35 128.65Q108.50 128.59 108.80 128.35Q109.10 128.10 109.34 127.83Q109.58 127.55 109.58 127.40L109.58 127.40Q109.58 127.16 109.26 126.98Q108.94 126.81 108.44 126.92L108.44 126.92Q108.26 126.96 108.02 127.16Q107.78 127.36 107.54 127.61Q107.29 127.86 107.12 128.09Q106.94 128.32 106.88 128.46L106.88 128.46Q106.96 128.57 107.23 128.63Q107.49 128.70 107.81 128.70Q108.13 128.70 108.35 128.65ZM115.98 133.56L115.98 133.56Q115.32 133.93 114.59 133.99Q113.85 134.04 113.21 133.79Q112.57 133.54 112.18 133.03L112.18 133.03Q111.96 132.75 111.76 132.12Q111.56 131.49 111.69 130.41L111.69 130.41Q111.83 129.40 112.32 128.37Q112.82 127.33 113.54 126.54Q114.27 125.75 115.13 125.46L115.13 125.46Q115.43 125.35 115.75 125.30Q116.07 125.24 116.60 125.29L116.60 125.29Q117.11 125.35 117.50 125.54Q117.90 125.73 118.07 125.95L118.07 125.95Q118.43 126.30 118.54 126.63Q118.65 126.96 118.62 127.27L118.62 127.27Q118.51 127.97 118.00 128.79Q117.48 129.60 116.56 130.00L116.56 130.00Q116.18 130.15 115.68 130.19Q115.17 130.24 114.29 130.06L114.29 130.06Q113.76 129.95 113.60 130.17Q113.43 130.39 113.45 131.03L113.45 131.03Q113.50 131.43 113.64 131.72Q113.78 132.02 114.18 132.13L114.18 132.13Q114.69 132.22 114.91 132.14Q115.13 132.06 115.46 131.91L115.46 131.91Q115.63 131.80 115.81 131.67L115.81 131.67L116.14 131.40Q116.29 131.27 116.40 131.21L116.40 131.21Q116.51 131.12 116.62 131.10Q116.73 131.07 116.84 131.07L116.84 131.07Q117.08 131.10 117.30 131.34Q117.52 131.58 117.59 131.80L117.59 131.80Q117.59 131.98 117.37 132.29Q117.15 132.61 116.79 132.96Q116.42 133.30 115.98 133.56ZM115.70 128.65L115.70 128.65Q115.85 128.59 116.15 128.35Q116.45 128.10 116.69 127.83Q116.93 127.55 116.93 127.40L116.93 127.40Q116.93 127.16 116.61 126.98Q116.29 126.81 115.79 126.92L115.79 126.92Q115.61 126.96 115.37 127.16Q115.13 127.36 114.88 127.61Q114.64 127.86 114.47 128.09Q114.29 128.32 114.22 128.46L114.22 128.46Q114.31 128.57 114.58 128.63Q114.84 128.70 115.16 128.70Q115.48 128.70 115.70 128.65ZM120.65 134.02L120.65 134.02Q120.41 133.98 120.12 133.72Q119.83 133.47 119.60 133.15Q119.37 132.83 119.31 132.61L119.31 132.61Q119.31 132.57 119.26 132.50L119.26 132.50L119.20 132.44Q119.11 132.37 119.10 131.85Q119.09 131.34 119.15 130.70Q119.22 130.06 119.31 129.69L119.31 129.69Q119.42 129.34 119.64 128.73Q119.86 128.13 120.01 127.64L120.01 127.64L120.60 126.37L119.72 126.12Q119.57 126.08 119.47 125.95Q119.37 125.82 119.37 125.73L119.37 125.73Q119.37 125.55 119.57 125.22Q119.77 124.89 119.86 124.89L119.86 124.89Q119.97 124.91 120.26 124.91Q120.56 124.91 120.85 124.89Q121.13 124.87 121.20 124.85L121.20 124.85Q121.29 124.80 121.37 124.73Q121.46 124.65 121.51 124.50L121.51 124.50Q121.62 124.25 121.70 124.12Q121.79 123.99 121.95 123.73L121.95 123.73Q122.10 123.44 122.20 123.24Q122.30 123.04 122.52 122.69L122.52 122.69Q122.63 122.54 122.76 122.32Q122.89 122.10 123.09 121.94L123.09 121.94Q123.29 121.77 123.74 121.69Q124.19 121.61 124.52 121.90L124.52 121.90Q124.70 122.12 124.72 122.32Q124.74 122.52 124.54 122.82L124.54 122.82Q124.37 123.20 124.13 123.50Q123.90 123.79 123.71 124.17L123.71 124.17Q123.42 124.56 123.51 124.67L123.51 124.67Q123.53 124.69 123.57 124.72L123.57 124.72Q123.79 124.78 124.81 124.63L124.81 124.63Q125.44 124.52 125.73 124.76Q126.02 125.00 126.06 125.38L126.06 125.38Q126.13 125.90 125.95 126.01Q125.77 126.12 124.94 126.12L124.94 126.12Q124.41 126.21 124.04 126.22Q123.66 126.23 123.49 126.23L123.49 126.23Q123.20 126.26 123.11 126.26Q123.02 126.26 122.85 126.30Q122.67 126.34 122.59 126.44Q122.52 126.54 122.43 126.72L122.43 126.72Q122.34 126.81 122.17 127.18Q121.99 127.55 121.73 127.99L121.73 127.99Q121.42 128.92 121.21 129.76Q121 130.61 120.85 131.45L120.85 131.45Q120.78 131.87 120.88 132.05Q120.98 132.24 121.44 132.28L121.44 132.28Q121.68 132.31 122.14 132.27Q122.61 132.24 122.91 132.15L122.91 132.15Q123.16 132.04 123.42 131.92Q123.68 131.80 123.90 131.67L123.90 131.67Q124.10 131.56 124.30 131.43L124.30 131.43L124.50 131.32Q124.54 131.25 124.59 131.25L124.59 131.25Q124.67 131.23 124.83 131.36L124.83 131.36Q125.03 131.60 125.11 131.87L125.11 131.87Q125.11 132.13 125.00 132.49Q124.89 132.86 124.19 133.25L124.19 133.25Q123.20 133.87 122.21 134Q121.22 134.13 120.65 134.02ZM127.53 134.13L127.53 134.13Q126.79 133.82 126.44 133.48Q126.10 133.14 126.17 132.88L126.17 132.88Q126.21 132.75 126.32 132.64Q126.43 132.53 126.82 132.54Q127.20 132.55 128.02 132.75L128.02 132.75Q128.26 132.75 128.50 132.72Q128.74 132.70 128.95 132.66Q129.16 132.61 129.29 132.55L129.29 132.55Q129.36 132.53 129.38 132.48L129.38 132.48Q129.38 132.46 129.36 132.42L129.36 132.42Q129.32 132.35 129.21 132.26L129.21 132.26Q129.12 132.15 129.01 132.12Q128.90 132.09 128.81 132.09L128.81 132.09Q128.77 131.98 128.62 131.87Q128.48 131.76 128.28 131.62L128.28 131.62Q127.80 131.23 127.40 130.92Q127.01 130.61 127.09 130.46L127.09 130.46L127.09 130.35Q126.94 130.35 126.81 129.92Q126.68 129.49 126.68 129.14L126.68 129.14Q126.68 128.70 126.86 128.26Q127.05 127.82 127.35 127.42Q127.64 127.03 127.95 126.72L127.95 126.72Q128.37 126.32 128.84 125.94Q129.32 125.55 129.88 125.24Q130.44 124.94 131.12 124.76L131.12 124.76Q131.43 124.69 131.82 124.69Q132.22 124.69 132.40 124.80L132.40 124.80Q132.57 124.69 132.84 124.86Q133.10 125.02 133.36 125.31Q133.63 125.60 133.76 125.88L133.76 125.88Q133.76 126.15 133.75 126.53Q133.74 126.92 133.69 127.20Q133.65 127.49 133.50 127.49L133.50 127.49L133.45 127.49Q133.39 127.51 133.39 127.62L133.39 127.62Q133.39 127.84 133.06 128.13L133.06 128.13Q132.64 128.41 132.26 128.59Q131.89 128.76 131.69 128.61L131.69 128.61Q131.56 128.52 131.45 128.43Q131.34 128.35 131.25 128.21L131.25 128.21L131.21 128.10Q131.14 128.02 131.14 127.93Q131.14 127.84 131.21 127.75L131.21 127.75L131.27 127.69Q131.58 127.40 131.75 127.16Q131.91 126.92 131.98 126.73Q132.04 126.54 132.04 126.43L132.04 126.43Q132.04 126.30 131.99 126.27Q131.93 126.23 131.76 126.23L131.76 126.23Q131.65 126.23 131.28 126.41Q130.92 126.59 130.53 126.84Q130.13 127.09 129.91 127.29L129.91 127.29Q129.82 127.44 129.79 127.49Q129.76 127.53 129.67 127.53L129.67 127.53Q129.67 127.51 129.65 127.49L129.65 127.49Q129.62 127.49 129.56 127.55L129.56 127.55Q129.45 127.66 129.29 127.86Q129.14 128.06 128.99 128.28Q128.83 128.50 128.74 128.63L128.74 128.63Q128.72 128.83 128.64 129.00Q128.57 129.16 128.59 129.34L128.59 129.34Q128.61 129.56 128.81 129.75Q129.01 129.95 129.38 130.26L129.38 130.26Q130.15 130.83 130.54 131.16Q130.92 131.49 131.08 131.69Q131.23 131.89 131.27 132.09L131.27 132.09Q131.65 132.77 131.36 133.26Q131.08 133.76 130.48 134.02L130.48 134.02Q130.26 134.13 129.71 134.23Q129.16 134.33 128.56 134.32Q127.95 134.31 127.53 134.13Z" fill="#ffffff"></path>
  <path d="M39.88 155.51L39.88 155.51Q39.81 155.35 39.60 155.22Q39.39 155.09 39.39 155.01Q39.39 154.94 39.33 154.80Q39.27 154.67 39.20 154.59L39.20 154.59Q39.10 154.48 39.25 154.04Q39.39 153.61 39.67 152.98Q39.96 152.35 40.32 151.69L40.32 151.69Q40.47 151.53 40.62 151.29Q40.78 151.04 40.85 150.97L40.85 150.97Q40.85 150.89 40.91 150.82Q40.97 150.76 41.04 150.76L41.04 150.76L41.16 150.51Q41.17 150.43 41.36 150.21Q41.55 149.98 41.84 149.70Q42.12 149.43 42.41 149.18Q42.69 148.93 42.88 148.82L42.88 148.82Q43.28 148.55 43.71 148.54Q44.14 148.53 44.44 148.78L44.44 148.78Q44.50 148.84 44.68 149.00Q44.86 149.16 45.09 149.35Q45.32 149.54 45.51 149.71L45.51 149.71L46.21 150.34L45.89 151.29Q45.64 152.05 45.76 152.62Q45.89 153.19 46.11 153.61L46.11 153.61Q46.21 153.81 46.42 153.96Q46.63 154.10 46.89 154.14L46.89 154.14Q47.05 154.16 47.18 154.25Q47.31 154.35 47.31 154.56L47.31 154.56Q47.31 154.92 47.18 155.09Q47.05 155.26 46.86 155.30L46.86 155.30Q46.23 155.37 45.67 155.11Q45.11 154.84 44.65 153.97L44.65 153.97Q44.58 153.85 44.45 153.54Q44.33 153.23 44.31 153.13L44.31 153.13Q44.23 153.23 44.08 153.41Q43.93 153.59 43.82 153.70L43.82 153.70Q42.47 155.07 41.50 155.50Q40.53 155.92 39.88 155.51ZM40.95 153.72L40.81 154.10Q40.91 154.16 41.23 154.00Q41.55 153.85 42.03 153.47L42.03 153.47Q42.68 152.92 43.17 152.46Q43.66 151.99 44.06 151.42L44.06 151.42L44.48 150.74Q44.29 150.30 44.12 150.16Q43.95 150.01 43.80 150.01L43.80 150.01Q43.55 150.01 43.16 150.38Q42.77 150.74 42.31 151.39Q41.84 152.05 41.31 152.94L41.31 152.94Q41.08 153.34 40.95 153.72L40.95 153.72ZM48.32 155.43L48.32 155.43Q48.15 155.30 48.00 155.12Q47.84 154.94 47.90 154.56L47.90 154.56Q47.96 154.02 48.05 153.62Q48.15 153.21 48.28 152.68L48.28 152.68Q48.32 152.45 48.48 151.90Q48.64 151.34 48.89 150.70Q49.14 150.05 49.38 149.47Q49.63 148.89 49.82 148.61L49.82 148.61Q50.01 148.44 50.36 148.45Q50.71 148.46 50.86 148.61L50.86 148.61Q51.07 148.78 50.97 149.21Q50.86 149.63 50.43 150.53L50.43 150.53Q50.28 150.85 50.14 151.11Q50.01 151.36 49.99 151.48L49.99 151.48Q49.97 151.55 49.99 151.57L49.99 151.57Q50.01 151.59 50.07 151.57L50.07 151.57Q50.18 151.36 50.48 151.09Q50.79 150.81 51.13 150.55Q51.47 150.28 51.78 150.07Q52.08 149.86 52.19 149.81L52.19 149.81Q52.35 149.71 52.55 149.64Q52.75 149.58 52.82 149.54L52.82 149.54Q53.26 149.33 53.76 149.38Q54.27 149.43 54.38 149.71L54.38 149.71Q54.40 149.86 54.51 149.94L54.51 149.94L54.61 150.01Q54.68 150.01 54.70 150.07L54.70 150.07L54.70 150.13Q54.70 150.26 54.47 150.44Q54.23 150.62 53.92 150.64L53.92 150.64Q53.68 150.66 53.49 150.74Q53.30 150.81 53.03 150.93L53.03 150.93Q52.31 151.34 51.70 151.69Q51.09 152.03 50.48 152.69L50.48 152.69Q50.35 152.85 50.21 153.01Q50.07 153.17 49.91 153.42L49.91 153.42Q49.82 153.51 49.72 153.83Q49.63 154.16 49.56 154.45Q49.50 154.75 49.50 154.80L49.50 154.80L49.44 154.97Q49.38 155.16 49.25 155.34L49.25 155.34Q49.02 155.64 48.82 155.69Q48.62 155.73 48.32 155.43ZM58.35 155.53L58.35 155.53Q57.84 155.85 57.24 155.91Q56.64 155.96 56.11 155.74Q55.58 155.53 55.25 155.07L55.25 155.07Q55.01 154.76 54.86 154.22Q54.72 153.68 54.82 152.77L54.82 152.77Q54.91 151.95 55.34 151.11Q55.77 150.26 56.38 149.61Q57.00 148.95 57.69 148.70L57.69 148.70Q57.97 148.59 58.22 148.56Q58.46 148.53 58.90 148.57L58.90 148.57Q59.34 148.63 59.64 148.77Q59.95 148.91 60.10 149.10L60.10 149.10Q60.38 149.41 60.48 149.68Q60.57 149.96 60.57 150.22L60.57 150.22Q60.48 150.78 60.02 151.44Q59.57 152.10 58.77 152.47L58.77 152.47Q58.41 152.60 57.95 152.62Q57.50 152.64 56.89 152.47L56.89 152.47Q56.47 152.35 56.34 152.54Q56.20 152.73 56.18 153.36L56.18 153.36Q56.18 153.81 56.33 154.10Q56.47 154.38 56.81 154.46L56.81 154.46Q57.23 154.54 57.43 154.51Q57.63 154.48 57.91 154.33L57.91 154.33Q58.12 154.19 58.25 154.11Q58.37 154.02 58.47 153.93Q58.58 153.83 58.71 153.74L58.71 153.74Q58.83 153.64 58.91 153.61Q59.00 153.57 59.09 153.57L59.09 153.57Q59.26 153.59 59.41 153.76Q59.57 153.93 59.62 154.06L59.62 154.06Q59.70 154.16 59.54 154.42Q59.38 154.69 59.06 154.98Q58.75 155.28 58.35 155.53ZM58.18 151.36L58.18 151.36Q58.35 151.29 58.60 151.09Q58.84 150.89 59.03 150.66Q59.22 150.43 59.22 150.28L59.22 150.28Q59.22 150.05 58.96 149.89Q58.69 149.73 58.24 149.84L58.24 149.84Q58.07 149.88 57.84 150.07Q57.61 150.26 57.39 150.50Q57.17 150.74 57.02 150.94Q56.87 151.14 56.85 151.23L56.85 151.23Q56.93 151.33 57.16 151.37Q57.40 151.42 57.70 151.42Q57.99 151.42 58.18 151.36ZM66.98 155.81L66.98 155.81Q66.73 155.81 66.59 155.72Q66.44 155.62 66.24 155.45L66.24 155.45Q65.87 155.07 65.68 154.66Q65.49 154.25 65.55 153.93L65.55 153.93Q65.61 153.78 65.61 153.63L65.61 153.63L65.59 153.49Q65.51 153.42 65.53 153.38L65.53 153.38Q65.53 153.38 65.53 153.36L65.53 153.36Q65.57 153.34 65.61 153.26L65.61 153.26Q65.65 153.26 65.67 153.25L65.67 153.25Q65.70 153.21 65.68 153.06L65.68 153.06Q65.65 152.90 65.82 152.40Q65.99 151.90 66.27 151.44L66.27 151.44Q66.39 151.25 66.62 150.94Q66.84 150.62 67.12 150.31Q67.39 150.00 67.62 149.81L67.62 149.81Q68.10 149.41 68.49 149.18Q68.88 148.95 69.29 148.86Q69.71 148.76 70.06 148.76Q70.42 148.76 70.70 149.06L70.70 149.06Q71.14 149.25 71.33 149.56Q71.52 149.86 71.57 150.38L71.57 150.38Q71.63 150.95 71.47 151.74Q71.31 152.54 70.55 153.63L70.55 153.63Q70.07 154.31 69.64 154.67Q69.20 155.03 68.65 155.35L68.65 155.35Q68.25 155.62 67.83 155.70Q67.41 155.77 66.98 155.81ZM68.88 153.61L68.88 153.61Q69.31 153.19 69.52 152.74Q69.73 152.29 69.96 151.67L69.96 151.67Q70.04 151.53 70.06 151.25Q70.09 150.97 70.06 150.70Q70.04 150.43 69.92 150.40L69.92 150.40Q69.73 150.26 69.51 150.33Q69.29 150.40 68.99 150.62L68.99 150.62Q68.42 151.10 67.95 151.75Q67.47 152.41 67.20 153.32L67.20 153.32Q67.07 153.87 67.23 154.17Q67.39 154.46 67.82 154.35Q68.25 154.23 68.88 153.61ZM79.10 155.41L79.10 155.41Q78.68 155.37 78.41 155.23Q78.15 155.09 77.98 154.67L77.98 154.67Q77.90 154.37 77.89 154.03Q77.88 153.70 77.91 153.40Q77.94 153.09 77.96 152.90L77.96 152.90Q77.98 152.87 77.98 152.71L77.98 152.71L77.98 152.43Q77.94 152.12 77.82 152.06Q77.69 151.99 77.43 152.12L77.43 152.12Q77.05 152.31 76.55 152.64Q76.06 152.96 75.53 153.38Q74.99 153.80 74.46 154.25L74.46 154.25Q74.04 154.71 73.88 154.97Q73.72 155.24 73.53 155.24L73.53 155.24Q73.38 155.32 73.23 155.22Q73.08 155.13 72.89 154.97L72.89 154.97Q72.75 154.82 72.59 154.61Q72.43 154.40 72.39 154.33L72.39 154.33Q72.39 154.10 72.44 153.83Q72.49 153.57 72.59 153.28Q72.70 153.00 72.81 152.75L72.81 152.75Q72.89 152.66 72.95 152.49Q73.02 152.33 73.13 152.14L73.13 152.14Q73.19 151.90 73.34 151.53Q73.49 151.17 73.63 150.87L73.63 150.87Q73.85 150.40 73.97 150.05Q74.08 149.71 74.14 149.27L74.14 149.27Q74.12 149.24 74.17 149.16Q74.22 149.08 74.29 149.06L74.29 149.06L74.31 149.06Q74.44 148.95 74.77 149.02Q75.09 149.08 75.26 149.27L75.26 149.27Q75.64 149.65 75.61 150.18Q75.58 150.70 75.03 151.59L75.03 151.59Q74.90 151.90 74.78 152.12Q74.65 152.35 74.65 152.45L74.65 152.45L74.82 152.31Q74.99 152.20 75.22 152.04Q75.45 151.88 75.60 151.78L75.60 151.78Q75.70 151.69 76.02 151.43Q76.34 151.17 76.73 150.91Q77.12 150.64 77.33 150.53L77.33 150.53Q77.52 150.40 77.80 150.26Q78.07 150.13 78.15 150.13L78.15 150.13Q78.32 150.13 78.59 150.27Q78.85 150.41 79.08 150.61Q79.31 150.81 79.35 150.97L79.35 150.97Q79.35 151.04 79.34 151.15Q79.33 151.25 79.33 151.34L79.33 151.34Q79.35 151.63 79.36 152.05Q79.36 152.47 79.35 152.87Q79.33 153.26 79.25 153.51L79.25 153.51L79.27 153.55Q79.29 153.59 79.33 153.63L79.33 153.63Q79.31 153.66 79.33 153.70L79.33 153.70L79.33 153.74Q79.31 153.81 79.35 153.96Q79.38 154.10 79.47 154.27Q79.55 154.44 79.67 154.65L79.67 154.65Q79.73 154.90 79.55 155.12Q79.36 155.34 79.10 155.41ZM87.17 155.96L87.17 155.96Q86.96 155.92 86.73 155.72Q86.49 155.53 86.30 155.26Q86.11 154.99 86.05 154.80L86.05 154.80Q86.05 154.76 86.01 154.71L86.01 154.71L85.96 154.65Q85.88 154.59 85.87 154.15Q85.86 153.70 85.92 153.15Q85.98 152.60 86.05 152.28L86.05 152.28Q86.15 151.97 86.34 151.45Q86.53 150.93 86.66 150.51L86.66 150.51L87.17 149.41L86.41 149.20Q86.28 149.16 86.20 149.05Q86.11 148.93 86.11 148.86L86.11 148.86Q86.11 148.70 86.28 148.44Q86.45 148.17 86.53 148.17L86.53 148.17Q86.62 148.19 86.88 148.19Q87.14 148.19 87.38 148.17Q87.63 148.15 87.69 148.13L87.69 148.13Q87.76 148.10 87.84 148.03Q87.91 147.96 87.95 147.83L87.95 147.83Q88.05 147.62 88.12 147.49Q88.20 147.35 88.33 147.13L88.33 147.13Q88.47 146.88 88.55 146.71Q88.64 146.54 88.83 146.23L88.83 146.23Q88.92 146.10 89.04 145.91Q89.15 145.72 89.32 145.59L89.32 145.59Q89.49 145.44 89.81 145.40Q90.14 145.36 90.42 145.61L90.42 145.61Q90.57 145.80 90.59 145.94Q90.61 146.08 90.44 146.35L90.44 146.35Q90.29 146.67 90.09 146.95Q89.89 147.22 89.72 147.54L89.72 147.54Q89.47 147.89 89.55 147.98L89.55 147.98Q89.57 148.00 89.61 148.02L89.61 148.02Q89.80 148.08 90.67 147.94L90.67 147.94Q91.22 147.85 91.47 148.04Q91.71 148.23 91.75 148.55L91.75 148.55Q91.81 149.01 91.66 149.10Q91.51 149.20 90.78 149.20L90.78 149.20Q90.33 149.27 90.00 149.28Q89.68 149.29 89.53 149.29L89.53 149.29Q89.28 149.31 89.21 149.31Q89.13 149.31 88.98 149.35Q88.83 149.39 88.76 149.47Q88.69 149.56 88.62 149.71L88.62 149.71Q88.54 149.79 88.39 150.11Q88.24 150.43 88.01 150.81L88.01 150.81Q87.74 151.61 87.55 152.36Q87.36 153.11 87.25 153.83L87.25 153.83Q87.17 154.23 87.27 154.40Q87.36 154.57 87.76 154.61L87.76 154.61Q87.97 154.63 88.39 154.60Q88.81 154.57 89.07 154.50L89.07 154.50Q89.28 154.40 89.51 154.30Q89.74 154.19 89.93 154.08L89.93 154.08Q90.10 153.99 90.27 153.87L90.27 153.87L90.44 153.78Q90.48 153.72 90.54 153.70L90.54 153.70Q90.61 153.68 90.71 153.78L90.71 153.78Q90.86 153.93 90.94 154.16L90.94 154.16Q90.94 154.38 90.84 154.68Q90.75 154.97 90.14 155.32L90.14 155.32Q89.28 155.85 88.48 155.95Q87.67 156.06 87.17 155.96ZM92.78 155.18L92.78 155.18Q92.65 155.20 92.49 155.11Q92.34 155.01 92.21 154.92L92.21 154.92Q92.02 154.71 91.95 154.57Q91.89 154.42 91.90 154.22Q91.90 154.02 91.96 153.70L91.96 153.70Q92.06 153.40 92.19 152.87Q92.32 152.35 92.49 151.78L92.49 151.78Q92.55 151.53 92.66 151.21Q92.76 150.89 92.87 150.60Q92.99 150.32 93.04 150.17L93.04 150.17Q93.18 149.67 93.32 149.25Q93.46 148.82 93.67 148.27Q93.88 147.72 94.18 146.84L94.18 146.84Q94.60 145.70 94.81 145.12Q95.02 144.54 95.13 144.29Q95.23 144.03 95.27 143.88L95.27 143.88Q95.27 143.73 95.44 143.60Q95.61 143.48 95.76 143.48L95.76 143.48Q96.03 143.50 96.25 143.78Q96.46 144.07 96.54 144.46Q96.62 144.85 96.43 145.19L96.43 145.19Q96.12 145.87 95.81 146.76Q95.50 147.64 95.20 148.50Q94.91 149.35 94.62 150.03L94.62 150.03Q94.60 150.11 94.52 150.33Q94.43 150.55 94.36 150.70L94.36 150.70L94.15 151.12Q94.13 151.21 94.07 151.42Q94.01 151.63 93.94 151.84L93.94 151.84Q93.90 151.97 93.84 152.20Q93.79 152.43 93.77 152.60L93.77 152.60Q93.86 152.47 94.07 152.25Q94.28 152.03 94.55 151.78L94.55 151.78Q94.85 151.52 95.13 151.28Q95.42 151.04 95.65 150.89L95.65 150.89Q95.86 150.74 96.05 150.60L96.05 150.60L96.22 150.49Q96.24 150.41 96.29 150.37Q96.35 150.32 96.41 150.30Q96.46 150.28 96.53 150.22Q96.60 150.17 96.65 150.09L96.65 150.09Q96.77 150.00 96.97 149.92Q97.17 149.84 97.41 149.80Q97.64 149.75 97.83 149.75L97.83 149.75Q98.06 149.75 98.27 149.90Q98.48 150.05 98.69 150.38L98.69 150.38Q98.90 150.64 98.95 151.01Q99.01 151.38 98.93 151.90L98.93 151.90Q98.93 152.05 98.86 152.42Q98.78 152.79 98.76 153.04L98.76 153.04L98.61 153.66L98.80 153.66Q98.99 153.61 99.18 153.66L99.18 153.66L99.35 153.72Q99.45 153.78 99.52 153.85Q99.60 153.93 99.68 153.95L99.68 153.95Q99.83 154.06 99.71 154.31Q99.60 154.56 99.39 154.69L99.39 154.69Q98.93 154.99 98.57 155.04Q98.21 155.09 97.87 154.84L97.87 154.84Q97.53 154.57 97.41 154.21Q97.30 153.85 97.38 153.26L97.38 153.26Q97.45 152.43 97.47 152.05L97.47 152.05Q97.47 151.76 97.36 151.69L97.36 151.69Q97.32 151.67 97.26 151.67L97.26 151.67Q97.05 151.67 96.64 151.90Q96.22 152.12 95.70 152.52Q95.19 152.92 94.69 153.40Q94.18 153.87 93.82 154.37L93.82 154.37Q93.60 154.65 93.35 154.91Q93.10 155.16 92.78 155.18ZM104.54 155.53L104.54 155.53Q104.03 155.85 103.43 155.91Q102.83 155.96 102.30 155.74Q101.77 155.53 101.44 155.07L101.44 155.07Q101.20 154.76 101.05 154.22Q100.91 153.68 101.01 152.77L101.01 152.77Q101.10 151.95 101.53 151.11Q101.96 150.26 102.57 149.61Q103.19 148.95 103.87 148.70L103.87 148.70Q104.16 148.59 104.41 148.56Q104.65 148.53 105.09 148.57L105.09 148.57Q105.53 148.63 105.83 148.77Q106.14 148.91 106.29 149.10L106.29 149.10Q106.57 149.41 106.67 149.68Q106.76 149.96 106.76 150.22L106.76 150.22Q106.67 150.78 106.21 151.44Q105.76 152.10 104.96 152.47L104.96 152.47Q104.60 152.60 104.14 152.62Q103.68 152.64 103.08 152.47L103.08 152.47Q102.66 152.35 102.53 152.54Q102.39 152.73 102.37 153.36L102.37 153.36Q102.37 153.81 102.52 154.10Q102.66 154.38 103.00 154.46L103.00 154.46Q103.42 154.54 103.62 154.51Q103.82 154.48 104.10 154.33L104.10 154.33Q104.31 154.19 104.44 154.11Q104.56 154.02 104.66 153.93Q104.77 153.83 104.90 153.74L104.90 153.74Q105.01 153.64 105.10 153.61Q105.19 153.57 105.28 153.57L105.28 153.57Q105.45 153.59 105.60 153.76Q105.76 153.93 105.81 154.06L105.81 154.06Q105.89 154.16 105.73 154.42Q105.57 154.69 105.25 154.98Q104.94 155.28 104.54 155.53ZM104.37 151.36L104.37 151.36Q104.54 151.29 104.79 151.09Q105.03 150.89 105.22 150.66Q105.41 150.43 105.41 150.28L105.41 150.28Q105.41 150.05 105.15 149.89Q104.88 149.73 104.43 149.84L104.43 149.84Q104.25 149.88 104.03 150.07Q103.80 150.26 103.58 150.50Q103.36 150.74 103.21 150.94Q103.06 151.14 103.04 151.23L103.04 151.23Q103.11 151.33 103.35 151.37Q103.59 151.42 103.88 151.42Q104.18 151.42 104.37 151.36Z" fill="#ffffff"></path>
  <path d="M113.20 155.43L113.20 155.43Q112.92 155.43 112.63 155.00Q112.35 154.57 112.19 153.95Q112.03 153.32 112.06 152.71L112.06 152.71Q112.06 152.10 112.13 151.73Q112.20 151.36 112.27 151.00L112.27 151.00Q112.33 150.89 112.34 150.81Q112.35 150.74 112.38 150.57Q112.41 150.40 112.50 150.00L112.50 150.00Q112.58 149.67 112.66 149.46Q112.75 149.25 112.80 149.18L112.80 149.18Q113.03 148.88 113.32 148.81Q113.60 148.74 113.84 148.88Q114.08 149.01 114.12 149.27L114.12 149.27Q114.23 149.37 114.24 149.70Q114.25 150.03 114.19 150.39Q114.13 150.74 114.02 150.89L114.02 150.89Q113.98 150.98 113.94 151.38Q113.89 151.78 113.84 152.22Q113.79 152.66 113.74 152.92L113.74 152.92Q113.68 153.26 113.78 153.35Q113.89 153.44 114.16 153.18Q114.44 152.92 114.89 152.26L114.89 152.26Q115.27 151.69 115.45 151.36Q115.64 151.04 115.74 150.78Q115.84 150.51 115.98 150.15L115.98 150.15Q116.07 149.84 116.16 149.65Q116.24 149.46 116.32 149.39L116.32 149.39Q116.53 149.08 116.88 149.13Q117.23 149.18 117.46 149.33L117.46 149.33Q117.69 149.56 117.73 149.95Q117.78 150.34 117.55 150.79L117.55 150.79Q117.40 151.10 117.26 151.52Q117.12 151.93 117.03 152.35Q116.95 152.77 116.95 153.07L116.95 153.07Q116.95 153.45 117.05 153.52Q117.16 153.59 117.31 153.59L117.31 153.59Q117.54 153.59 117.74 153.43Q117.95 153.26 118.35 152.85L118.35 152.85Q118.52 152.68 118.77 152.33Q119.02 151.99 119.25 151.61Q119.49 151.23 119.65 150.94Q119.82 150.64 119.82 150.57L119.82 150.57Q119.82 150.45 119.99 150.24L119.99 150.24Q120.10 150.09 120.17 150.01Q120.23 149.92 120.42 149.82L120.42 149.82Q120.58 149.75 120.77 149.80Q120.96 149.84 121.09 150.00L121.09 150.00Q121.18 150.07 121.23 150.37Q121.28 150.66 121.28 150.89L121.28 150.89Q121.22 151.10 121.11 151.47Q120.99 151.84 120.87 152.17Q120.75 152.50 120.65 152.62L120.65 152.62Q120.58 152.69 120.39 152.89Q120.20 153.09 120.04 153.32L120.04 153.32Q119.57 153.89 119.36 154.06Q119.15 154.23 119.00 154.38L119.00 154.38Q118.60 154.78 118.09 155.02Q117.57 155.26 117.12 155.29Q116.66 155.32 116.40 155.13L116.40 155.13Q115.81 154.82 115.81 154.10L115.81 154.10Q115.81 153.95 115.77 153.81L115.77 153.81L115.71 153.70Q115.64 153.70 115.51 153.74Q115.39 153.78 115.26 154.00L115.26 154.00Q115.08 154.33 114.68 154.66Q114.27 154.99 113.85 155.21Q113.43 155.43 113.20 155.43ZM122.15 155.60L122.15 155.60Q122.08 155.45 121.82 155.30Q121.56 155.15 121.56 155.07Q121.56 154.99 121.48 154.83Q121.39 154.67 121.32 154.59L121.32 154.59Q121.22 154.48 121.37 154.03Q121.53 153.59 121.83 152.94Q122.13 152.29 122.49 151.63L122.49 151.63Q122.65 151.48 122.80 151.23Q122.95 150.98 123.03 150.91L123.03 150.91Q123.03 150.83 123.08 150.77Q123.14 150.70 123.22 150.70L123.22 150.70L123.37 150.40Q123.41 150.32 123.61 150.09Q123.81 149.86 124.09 149.59Q124.38 149.31 124.67 149.06Q124.96 148.82 125.15 148.70L125.15 148.70Q125.55 148.44 125.98 148.46Q126.41 148.48 126.71 148.72L126.71 148.72Q126.77 148.78 126.97 148.95Q127.17 149.12 127.43 149.33Q127.68 149.54 127.87 149.71L127.87 149.71L128.57 150.34L128.25 151.29Q128.00 152.05 128.13 152.62Q128.25 153.19 128.48 153.61L128.48 153.61Q128.57 153.81 128.74 153.93Q128.90 154.04 129.16 154.08L129.16 154.08Q129.32 154.10 129.45 154.19Q129.58 154.29 129.58 154.50L129.58 154.50Q129.58 154.96 129.42 155.15Q129.26 155.35 129.07 155.39L129.07 155.39Q128.44 155.47 127.87 155.26Q127.30 155.05 126.85 154.18L126.85 154.18Q126.77 154.06 126.65 153.75Q126.52 153.44 126.50 153.34L126.50 153.34Q126.43 153.44 126.30 153.58Q126.18 153.72 126.07 153.83L126.07 153.83Q124.72 155.20 123.76 155.61Q122.80 156.02 122.15 155.60ZM123.33 153.63L123.20 154.02Q123.33 154.04 123.62 153.88Q123.90 153.72 124.38 153.34L124.38 153.34Q125.02 152.79 125.44 152.43Q125.86 152.07 126.26 151.50L126.26 151.50L126.67 150.81Q126.48 150.38 126.33 150.24Q126.18 150.11 126.03 150.11L126.03 150.11Q125.78 150.11 125.44 150.42Q125.10 150.74 124.67 151.34Q124.24 151.93 123.71 152.83L123.71 152.83Q123.46 153.25 123.33 153.63L123.33 153.63ZM129.52 159.95L129.52 159.95Q128.84 160.09 128.21 160.00Q127.59 159.91 127.16 159.67Q126.73 159.42 126.64 159.12L126.64 159.12Q126.52 158.68 126.75 158.47Q126.98 158.26 127.29 158.22Q127.61 158.19 127.70 158.30L127.70 158.30Q127.85 158.39 128.19 158.58Q128.52 158.77 129.01 158.68L129.01 158.68Q129.45 158.58 129.79 158.26Q130.13 157.94 130.40 157.58L130.40 157.58Q130.55 157.35 130.91 156.76L130.91 156.76Q131.25 156.21 131.61 155.54L131.61 155.54Q131.46 155.45 131.29 155.28L131.29 155.28Q130.95 154.94 130.73 154.56Q130.51 154.18 130.55 154.02L130.55 154.02L130.55 153.81Q130.44 153.81 130.37 153.48Q130.30 153.15 130.28 152.64Q130.25 152.12 130.26 151.57Q130.27 151.02 130.30 150.57L130.30 150.57Q130.38 150.24 130.38 149.85Q130.38 149.46 130.40 149.24L130.40 149.24Q130.38 148.93 130.52 148.74Q130.66 148.55 130.74 148.50L130.74 148.50Q131.44 148.19 131.77 148.82Q132.09 149.44 131.99 150.81L131.99 150.81Q131.96 151.57 131.96 152.27Q131.96 152.96 132.09 153.45L132.09 153.45Q132.18 153.80 132.37 154.00L132.37 154.00Q132.41 153.91 132.45 153.78L132.45 153.78Q132.53 153.57 132.64 153.44L132.64 153.44Q132.75 153.21 132.84 153.01Q132.93 152.81 132.94 152.73L132.94 152.73Q132.96 152.64 133.12 152.35Q133.27 152.07 133.40 151.78L133.40 151.78Q133.50 151.50 133.69 150.95Q133.88 150.40 134.07 150.05L134.07 150.05Q134.29 149.62 134.44 149.34Q134.58 149.06 134.75 149.01L134.75 149.01Q134.92 148.88 135.07 148.88Q135.22 148.88 135.43 148.99L135.43 148.99Q135.66 149.22 135.80 149.44Q135.95 149.65 135.92 149.97Q135.89 150.28 135.60 150.81L135.60 150.81Q135.45 151.27 135.27 151.64Q135.09 152.01 135.00 152.12L135.00 152.12Q134.90 152.35 134.78 152.63Q134.65 152.90 134.56 153.13L134.56 153.13Q134.22 153.89 133.97 154.37Q133.72 154.84 133.53 155.24Q133.34 155.64 133.13 156.17L133.13 156.17Q132.70 156.87 132.29 157.51Q131.88 158.15 131.42 158.70L131.42 158.70Q131.23 158.87 130.88 159.14Q130.53 159.42 130.16 159.66Q129.79 159.90 129.52 159.95ZM138.15 152.94L138.15 152.94Q137.62 153.04 137.31 152.49Q137.01 151.95 137.35 150.59L137.35 150.59Q137.47 150.36 137.54 150.14Q137.62 149.92 137.62 149.79L137.62 149.79Q137.69 149.54 137.82 149.21Q137.94 148.88 138.07 148.58Q138.21 148.29 138.26 148.19L138.26 148.19Q138.34 148.19 138.43 148.06Q138.51 147.93 138.51 147.79L138.51 147.79Q138.51 147.64 138.58 147.45Q138.64 147.26 138.72 147.18L138.72 147.18Q138.72 147.09 138.80 146.97Q138.87 146.86 138.87 146.78Q138.87 146.71 138.92 146.65Q138.97 146.59 138.97 146.52L138.97 146.52Q139.14 146.22 139.41 145.62Q139.69 145.02 139.97 144.35Q140.24 143.69 140.43 143.18Q140.62 142.66 140.62 142.55L140.62 142.55Q140.66 142.40 140.73 142.26Q140.81 142.13 140.96 142.17L140.96 142.17Q141.04 142.11 141.19 142.10Q141.34 142.09 141.42 142.09L141.42 142.09L141.59 142.17Q141.76 142.24 141.89 142.40L141.89 142.40Q142.05 142.53 142.06 142.76Q142.08 142.99 142.08 143.21L142.08 143.21Q142.06 143.57 141.82 144.03Q141.57 144.49 141.27 145.04L141.27 145.04Q141.08 145.40 140.90 145.72Q140.72 146.04 140.72 146.12Q140.72 146.20 140.64 146.35Q140.56 146.50 140.47 146.73L140.47 146.73Q140.35 146.92 140.25 147.18Q140.15 147.45 140.07 147.67Q139.99 147.89 139.99 147.94L139.99 147.94Q139.97 148.02 139.95 148.10Q139.92 148.17 139.84 148.25L139.84 148.25Q139.77 148.25 139.77 148.34L139.77 148.34L139.75 148.46Q139.75 148.53 139.66 148.81Q139.58 149.08 139.39 149.46L139.39 149.46Q139.02 150.47 138.87 151.07Q138.72 151.67 138.68 152.09L138.68 152.09Q138.64 152.54 138.47 152.70Q138.30 152.87 138.15 152.94ZM137.14 155.89L137.14 155.89Q136.74 156.04 136.48 156.03Q136.21 156.02 135.89 155.77L135.89 155.77Q135.51 155.39 135.63 155.00Q135.76 154.61 136.31 154.25L136.31 154.25Q136.69 154.00 136.87 154.00Q137.05 153.99 137.41 154.14L137.41 154.14Q138.06 154.54 137.98 155.02Q137.90 155.51 137.14 155.89Z" fill="#ffc94a"></path>

</g>
</svg>