<?xml version="1.0" encoding="UTF-8" standalone="no"?>
<svg
   xmlns:dc="http://purl.org/dc/elements/1.1/"
   xmlns:cc="http://creativecommons.org/ns#"
   xmlns:rdf="http://www.w3.org/1999/02/22-rdf-syntax-ns#"
   xmlns:svg="http://www.w3.org/2000/svg"
   xmlns="http://www.w3.org/2000/svg"
   id="svg8"
   version="1.1"
   viewBox="0 0 135.46666 83.517471"
   height="83.517471mm"
   width="135.46666mm">
  <defs
     id="defs2" />
  <metadata
     id="metadata5">
    <rdf:RDF>
      <cc:Work
         rdf:about="">
        <dc:format>image/svg+xml</dc:format>
        <dc:type
           rdf:resource="http://purl.org/dc/dcmitype/StillImage" />
        <dc:title></dc:title>
      </cc:Work>
    </rdf:RDF>
  </metadata>
  <g
     transform="translate(75.391836,-43.938277)"
     id="layer1">
    <g
       transform="matrix(5.2707606,0,0,5.2707606,321.9805,-544.333)"
       id="g7383">
      <path
         id="path4539"
         style="fill:#bf311a;fill-opacity:1;fill-rule:nonzero;stroke:none;stroke-width:0.35277778"
         d="m -65.278313,124.74254 c 0,-0.77893 0.377119,-1.37548 0.746478,-1.77377 3.53e-4,-1.46932 7.05e-4,-2.80105 7.05e-4,-3.00707 0,-0.48754 -0.270933,-0.70838 -0.679802,-0.70838 h -0.905581 c -0.596547,0 -1.156406,0.15698 -1.661231,0.66287 -0.504472,0.50553 -0.794102,0.7941 -0.794102,0.7941 h 0.965905 c 0.310797,0 0.490714,0.19544 0.490714,0.49848 v 4.57552 c 0,0.8248 0.659342,1.45697 1.445683,1.45697 h 1.136298 c 0,0 3.52e-4,-0.27834 3.52e-4,-0.72601 -0.470252,-0.50518 -0.745419,-1.11584 -0.745419,-1.77271" />
      <path
         id="path4543"
         style="fill:#bf311a;fill-opacity:1;fill-rule:nonzero;stroke:none;stroke-width:0.35277778"
         d="m -63.437766,124.69068 c 0,-0.78669 0.799747,-1.1617 0.799747,-1.1617 0,0 0.619478,0.34114 1.240367,0.56692 0.835378,0.30409 1.701447,0.61277 1.701447,1.20861 0,0.6604 -0.544336,1.08691 -1.387828,1.08691 -0.948972,0 -2.353733,-0.54045 -2.353733,-1.70074 m 3.280128,-2.65112 c -0.777875,-0.20215 -1.660525,-0.42757 -1.660525,-1.01918 0,-0.50906 0.4064,-0.8128 1.087261,-0.8128 1.222375,0 1.779058,0.80045 1.779058,1.54411 0,0.31432 -0.198261,0.6223 -0.198261,0.6223 0,0 -0.360892,-0.16616 -1.007533,-0.33443 m -3.92677,-0.57468 c 0,0.74295 0.4699,1.30034 0.4699,1.30034 0,0 -1.227666,0.71896 -1.227666,1.97732 0,1.49648 1.7272,2.71321 3.849864,2.71321 2.122663,0 3.849511,-1.21673 3.849511,-2.71321 0,-1.21955 -1.226609,-1.97803 -1.226609,-1.97803 0,0 0.469195,-0.56797 0.469195,-1.29963 0,-1.33809 -1.387123,-2.42641 -3.092097,-2.42641 -1.704975,0 -3.092098,1.08832 -3.092098,2.42641" />
      <path
         id="path4547"
         style="fill:#bf311a;fill-opacity:1;fill-rule:nonzero;stroke:none;stroke-width:0.35277778"
         d="m -60.777116,113.60884 c -0.07937,-0.16016 -0.209903,-0.16016 -0.289983,-3.5e-4 l -0.610306,1.22343 1.160992,-0.002 c 0.189794,0 0.280105,-0.13088 0.200378,-0.29104 z m 1.899356,2.89736 c -0.306564,0 -0.532695,-0.19085 -0.639939,-0.39087 l -0.05503,-0.10125 c -0.07937,-0.16016 -0.299155,-0.2914 -0.488597,-0.2914 h -1.719792 c -0.189441,0 -0.409222,0.13124 -0.488244,0.2914 l -0.245181,0.49212 h -0.490361 c -0.363008,0 -0.389819,-0.26282 -0.29845,-0.44026 l 1.805517,-3.57505 c 0.279753,-0.54716 0.6604,-0.88054 1.108075,-0.88054 h 0.424039 l 2.465564,4.89585 h -1.377597" />
      <path
         id="path4551"
         style="fill:#bf311a;fill-opacity:1;fill-rule:nonzero;stroke:none;stroke-width:0.35277778"
         d="m -67.237182,116.50617 c -0.189442,0 -0.344664,-0.14429 -0.344664,-0.32067 v -3.66113 c 0,-0.48331 0.365478,-0.91405 0.931686,-0.91405 l 0.714022,7.1e-4 v 3.68229 c 0,0.17604 0.15487,0.31997 0.344664,0.31997 h 2.133953 l -0.289631,0.57221 c -0.09984,0.17603 -0.3048,0.32067 -0.600075,0.32067 h -2.889955" />
      <path
         id="path4555"
         style="fill:#ffc424;fill-opacity:1;fill-rule:nonzero;stroke:none;stroke-width:0.35277778"
         d="m -75.365217,115.16378 c -0.06879,0.15416 3.53e-4,0.33514 0.154164,0.40358 3.885141,1.73637 8.271227,2.65465 12.68483,2.65465 4.401256,0 8.777111,-0.91334 12.654844,-2.64125 0.153811,-0.0688 0.223309,-0.24906 0.154517,-0.40322 -0.06879,-0.15381 -0.249414,-0.22366 -0.403225,-0.15487 -3.800122,1.69298 -8.090253,2.58833 -12.406136,2.58833 -4.327878,0 -8.628239,-0.89958 -12.435416,-2.60138 -0.154164,-0.0688 -0.334786,0 -0.403578,0.15416" />
    </g>
  </g>
</svg>
