<svg xmlns="http://www.w3.org/2000/svg" xmlns:xlink="http://www.w3.org/1999/xlink" width="600" zoomAndPan="magnify" viewBox="0 0 450 119.999999" height="160" preserveAspectRatio="xMidYMid meet" version="1.0"><defs><g/></defs><g fill="#15110e" fill-opacity="1"><g transform="translate(107.148909, 79.955385)"><g><path d="M 3.566406 -28.835938 L 9.628906 -28.835938 L 9.628906 -26.960938 C 10.316406 -28.042969 12.105469 -28.855469 14.996094 -29.390625 C 15.742188 -29.535156 16.558594 -29.609375 17.441406 -29.609375 C 21.414062 -29.609375 24.21875 -28.25 25.855469 -25.53125 C 26.605469 -24.265625 26.976562 -22.839844 26.976562 -21.253906 L 26.976562 0 L 20.613281 0 L 20.613281 -19.558594 C 20.613281 -21.472656 19.828125 -22.746094 18.257812 -23.382812 C 17.667969 -23.628906 16.972656 -23.75 16.167969 -23.75 C 13.753906 -23.75 12.011719 -22.644531 10.941406 -20.433594 C 10.300781 -19.152344 9.976562 -17.609375 9.976562 -15.800781 L 9.976562 0 L 3.566406 0 Z M 3.566406 -28.835938 "/></g></g></g><g fill="#15110e" fill-opacity="1"><g transform="translate(132.664892, 79.955385)"><g><path d="M 26.730469 0 L 20.765625 0 L 20.765625 -1.441406 C 19.988281 -0.339844 18.199219 0.449219 15.402344 0.925781 C 14.660156 1.089844 13.828125 1.171875 12.902344 1.171875 C 8.859375 1.171875 6.035156 -0.191406 4.433594 -2.914062 C 3.6875 -4.175781 3.316406 -5.597656 3.316406 -7.1875 L 3.316406 -28.835938 L 9.679688 -28.835938 L 9.679688 -8.855469 C 9.679688 -6.957031 10.464844 -5.691406 12.039062 -5.054688 C 12.660156 -4.792969 13.355469 -4.664062 14.125 -4.664062 C 16.574219 -4.664062 18.347656 -5.789062 19.449219 -8.046875 C 20.058594 -9.324219 20.363281 -10.855469 20.363281 -12.636719 L 20.363281 -28.835938 L 26.730469 -28.835938 Z M 26.730469 0 "/></g></g></g><g fill="#15110e" fill-opacity="1"><g transform="translate(159.202669, 79.955385)"><g><path d="M 3.566406 -28.835938 L 9.628906 -28.835938 L 9.628906 -27.347656 C 10.34375 -28.355469 12.117188 -29.070312 14.949219 -29.5 C 15.515625 -29.574219 16.125 -29.609375 16.765625 -29.609375 C 20.1875 -29.609375 22.734375 -28.347656 24.40625 -25.824219 C 24.597656 -25.539062 24.472656 -25.261719 24.03125 -24.992188 C 25.457031 -27.5 27.367188 -28.964844 29.757812 -29.390625 C 30.5 -29.535156 31.3125 -29.609375 32.195312 -29.609375 C 36.902344 -29.609375 39.75 -27.667969 40.734375 -23.789062 C 40.917969 -22.957031 41.011719 -22.058594 41.011719 -21.101562 L 41.011719 0 L 34.597656 0 L 34.597656 -19.460938 C 34.597656 -21.6875 33.777344 -23.050781 32.136719 -23.546875 C 31.691406 -23.683594 31.21875 -23.75 30.726562 -23.75 C 29.019531 -23.75 27.644531 -22.992188 26.59375 -21.476562 C 25.871094 -20.398438 25.507812 -19.1875 25.507812 -17.839844 L 25.507812 0 L 19.09375 0 L 19.09375 -19.460938 C 19.09375 -21.855469 18.15625 -23.242188 16.28125 -23.628906 C 15.953125 -23.710938 15.589844 -23.75 15.195312 -23.75 C 13.464844 -23.75 12.074219 -22.960938 11.023438 -21.386719 C 10.328125 -20.335938 9.976562 -19.15625 9.976562 -17.839844 L 9.976562 0 L 3.566406 0 Z M 3.566406 -28.835938 "/></g></g></g><g fill="#15110e" fill-opacity="1"><g transform="translate(198.525391, 79.955385)"><g><path d="M 2.742188 -39.292969 L 9.105469 -39.292969 L 9.105469 -27.679688 C 9.960938 -28.964844 12.367188 -29.609375 16.320312 -29.609375 C 21.09375 -29.609375 24.585938 -27.589844 26.800781 -23.554688 C 28.148438 -21.070312 28.824219 -18.0625 28.824219 -14.53125 C 28.824219 -8.726562 27.144531 -4.40625 23.785156 -1.574219 C 21.644531 0.257812 19.089844 1.171875 16.117188 1.171875 C 12.078125 1.171875 9.59375 0.425781 8.660156 -1.0625 L 8.707031 0 L 2.742188 0 Z M 15.484375 -23.5 C 13.117188 -23.5 11.367188 -22.277344 10.226562 -19.828125 C 9.480469 -18.277344 9.105469 -16.402344 9.105469 -14.207031 C 9.105469 -10.3125 10.136719 -7.589844 12.203125 -6.039062 C 13.144531 -5.304688 14.242188 -4.9375 15.496094 -4.9375 C 17.929688 -4.9375 19.757812 -6.085938 20.988281 -8.378906 C 21.820312 -9.964844 22.234375 -11.859375 22.234375 -14.058594 C 22.234375 -18.015625 21.164062 -20.789062 19.019531 -22.375 C 17.941406 -23.097656 16.765625 -23.472656 15.484375 -23.5 Z M 15.484375 -23.5 "/></g></g></g><g fill="#15110e" fill-opacity="1"><g transform="translate(225.063167, 79.955385)"><g><path d="M 28.300781 -11.925781 L 8.597656 -11.925781 C 8.617188 -10.417969 9.035156 -9.0625 9.851562 -7.871094 C 11.113281 -5.882812 12.960938 -4.886719 15.394531 -4.886719 C 18.34375 -4.886719 20.414062 -6.671875 21.609375 -10.238281 L 27.9375 -10.238281 C 26.96875 -4.910156 24.535156 -1.441406 20.636719 0.167969 C 19.011719 0.835938 17.207031 1.171875 15.222656 1.171875 C 10.191406 1.171875 6.503906 -0.875 4.15625 -4.964844 C 2.730469 -7.433594 2.019531 -10.464844 2.019531 -14.058594 C 2.019531 -19.769531 3.753906 -24.042969 7.21875 -26.878906 C 9.441406 -28.699219 12.152344 -29.609375 15.347656 -29.609375 C 19.59375 -29.609375 22.929688 -28.082031 25.351562 -25.027344 C 26.097656 -24.097656 26.699219 -23.050781 27.15625 -21.886719 C 27.917969 -19.902344 28.300781 -16.582031 28.300781 -11.925781 Z M 8.769531 -17.507812 L 22.492188 -16.644531 C 22.148438 -16.6875 21.855469 -16.726562 21.613281 -16.769531 C 21.613281 -19.144531 20.753906 -20.988281 19.039062 -22.300781 C 17.933594 -23.132812 16.679688 -23.550781 15.273438 -23.550781 C 12.800781 -23.550781 10.964844 -22.464844 9.773438 -20.292969 C 9.164062 -19.195312 8.832031 -18.269531 8.769531 -17.507812 Z M 8.769531 -17.507812 "/></g></g></g><g fill="#15110e" fill-opacity="1"><g transform="translate(251.600944, 79.955385)"><g><path d="M 3.515625 -28.835938 L 9.578125 -28.835938 L 9.578125 -26.667969 C 10.382812 -27.960938 11.917969 -28.878906 14.183594 -29.433594 C 14.714844 -29.550781 15.261719 -29.609375 15.820312 -29.609375 C 16.234375 -29.609375 17.128906 -29.511719 18.503906 -29.320312 L 18.503906 -23.019531 C 15.570312 -22.976562 13.675781 -22.671875 12.820312 -22.09375 C 12.71875 -22.011719 12.609375 -21.929688 12.488281 -21.847656 C 10.78125 -20.609375 9.929688 -18.304688 9.929688 -14.929688 L 9.929688 0 L 3.515625 0 Z M 3.515625 -28.835938 "/></g></g></g><g fill="#15110e" fill-opacity="1"><g transform="translate(267.970581, 79.955385)"><g><path d="M 2.742188 -39.292969 L 9.105469 -39.292969 L 9.105469 -27.679688 C 9.960938 -28.964844 12.367188 -29.609375 16.320312 -29.609375 C 21.09375 -29.609375 24.585938 -27.589844 26.800781 -23.554688 C 28.148438 -21.070312 28.824219 -18.0625 28.824219 -14.53125 C 28.824219 -8.726562 27.144531 -4.40625 23.785156 -1.574219 C 21.644531 0.257812 19.089844 1.171875 16.117188 1.171875 C 12.078125 1.171875 9.59375 0.425781 8.660156 -1.0625 L 8.707031 0 L 2.742188 0 Z M 15.484375 -23.5 C 13.117188 -23.5 11.367188 -22.277344 10.226562 -19.828125 C 9.480469 -18.277344 9.105469 -16.402344 9.105469 -14.207031 C 9.105469 -10.3125 10.136719 -7.589844 12.203125 -6.039062 C 13.144531 -5.304688 14.242188 -4.9375 15.496094 -4.9375 C 17.929688 -4.9375 19.757812 -6.085938 20.988281 -8.378906 C 21.820312 -9.964844 22.234375 -11.859375 22.234375 -14.058594 C 22.234375 -18.015625 21.164062 -20.789062 19.019531 -22.375 C 17.941406 -23.097656 16.765625 -23.472656 15.484375 -23.5 Z M 15.484375 -23.5 "/></g></g></g><g fill="#15110e" fill-opacity="1"><g transform="translate(294.508357, 79.955385)"><g><path d="M 28.300781 -11.925781 L 8.597656 -11.925781 C 8.617188 -10.417969 9.035156 -9.0625 9.851562 -7.871094 C 11.113281 -5.882812 12.960938 -4.886719 15.394531 -4.886719 C 18.34375 -4.886719 20.414062 -6.671875 21.609375 -10.238281 L 27.9375 -10.238281 C 26.96875 -4.910156 24.535156 -1.441406 20.636719 0.167969 C 19.011719 0.835938 17.207031 1.171875 15.222656 1.171875 C 10.191406 1.171875 6.503906 -0.875 4.15625 -4.964844 C 2.730469 -7.433594 2.019531 -10.464844 2.019531 -14.058594 C 2.019531 -19.769531 3.753906 -24.042969 7.21875 -26.878906 C 9.441406 -28.699219 12.152344 -29.609375 15.347656 -29.609375 C 19.59375 -29.609375 22.929688 -28.082031 25.351562 -25.027344 C 26.097656 -24.097656 26.699219 -23.050781 27.15625 -21.886719 C 27.917969 -19.902344 28.300781 -16.582031 28.300781 -11.925781 Z M 8.769531 -17.507812 L 22.492188 -16.644531 C 22.148438 -16.6875 21.855469 -16.726562 21.613281 -16.769531 C 21.613281 -19.144531 20.753906 -20.988281 19.039062 -22.300781 C 17.933594 -23.132812 16.679688 -23.550781 15.273438 -23.550781 C 12.800781 -23.550781 10.964844 -22.464844 9.773438 -20.292969 C 9.164062 -19.195312 8.832031 -18.269531 8.769531 -17.507812 Z M 8.769531 -17.507812 "/></g></g></g><g fill="#15110e" fill-opacity="1"><g transform="translate(321.046122, 79.955385)"><g><path d="M 3.566406 -28.835938 L 9.628906 -28.835938 L 9.628906 -26.960938 C 10.316406 -28.042969 12.105469 -28.855469 14.996094 -29.390625 C 15.742188 -29.535156 16.558594 -29.609375 17.441406 -29.609375 C 21.414062 -29.609375 24.21875 -28.25 25.855469 -25.53125 C 26.605469 -24.265625 26.976562 -22.839844 26.976562 -21.253906 L 26.976562 0 L 20.613281 0 L 20.613281 -19.558594 C 20.613281 -21.472656 19.828125 -22.746094 18.257812 -23.382812 C 17.667969 -23.628906 16.972656 -23.75 16.167969 -23.75 C 13.753906 -23.75 12.011719 -22.644531 10.941406 -20.433594 C 10.300781 -19.152344 9.976562 -17.609375 9.976562 -15.800781 L 9.976562 0 L 3.566406 0 Z M 3.566406 -28.835938 "/></g></g></g><g fill="#15110e" fill-opacity="1"><g transform="translate(346.562129, 79.955385)"><g><path d="M 27.402344 -39.292969 L 27.402344 0 L 21.488281 0 L 21.488281 -1.21875 C 20.609375 0.0234375 18.546875 0.800781 15.296875 1.117188 C 14.894531 1.152344 14.472656 1.171875 14.023438 1.171875 C 9.179688 1.171875 5.636719 -0.917969 3.390625 -5.089844 C 2.011719 -7.671875 1.320312 -10.800781 1.320312 -14.480469 C 1.320312 -20.039062 2.960938 -24.199219 6.242188 -26.972656 C 8.382812 -28.730469 10.929688 -29.609375 13.875 -29.609375 C 17.929688 -29.609375 20.316406 -29.0625 21.039062 -27.964844 L 21.039062 -39.292969 Z M 14.574219 -23.5 C 12.121094 -23.5 10.292969 -22.300781 9.089844 -19.894531 C 8.46875 -18.71875 8.082031 -17.34375 7.929688 -15.765625 C 7.898438 -15.253906 7.882812 -14.734375 7.882812 -14.207031 C 7.882812 -10.421875 8.941406 -7.714844 11.054688 -6.089844 C 12.074219 -5.320312 13.273438 -4.9375 14.648438 -4.9375 C 17.023438 -4.9375 18.773438 -6.128906 19.898438 -8.515625 C 20.65625 -10.066406 21.039062 -11.929688 21.039062 -14.105469 C 21.039062 -18.203125 19.960938 -21.007812 17.804688 -22.523438 C 16.859375 -23.175781 15.78125 -23.5 14.574219 -23.5 Z M 14.574219 -23.5 "/></g></g></g><g fill="#15110e" fill-opacity="1"><g transform="translate(373.099894, 79.955385)"><g><path d="M 28.300781 -11.925781 L 8.597656 -11.925781 C 8.617188 -10.417969 9.035156 -9.0625 9.851562 -7.871094 C 11.113281 -5.882812 12.960938 -4.886719 15.394531 -4.886719 C 18.34375 -4.886719 20.414062 -6.671875 21.609375 -10.238281 L 27.9375 -10.238281 C 26.96875 -4.910156 24.535156 -1.441406 20.636719 0.167969 C 19.011719 0.835938 17.207031 1.171875 15.222656 1.171875 C 10.191406 1.171875 6.503906 -0.875 4.15625 -4.964844 C 2.730469 -7.433594 2.019531 -10.464844 2.019531 -14.058594 C 2.019531 -19.769531 3.753906 -24.042969 7.21875 -26.878906 C 9.441406 -28.699219 12.152344 -29.609375 15.347656 -29.609375 C 19.59375 -29.609375 22.929688 -28.082031 25.351562 -25.027344 C 26.097656 -24.097656 26.699219 -23.050781 27.15625 -21.886719 C 27.917969 -19.902344 28.300781 -16.582031 28.300781 -11.925781 Z M 8.769531 -17.507812 L 22.492188 -16.644531 C 22.148438 -16.6875 21.855469 -16.726562 21.613281 -16.769531 C 21.613281 -19.144531 20.753906 -20.988281 19.039062 -22.300781 C 17.933594 -23.132812 16.679688 -23.550781 15.273438 -23.550781 C 12.800781 -23.550781 10.964844 -22.464844 9.773438 -20.292969 C 9.164062 -19.195312 8.832031 -18.269531 8.769531 -17.507812 Z M 8.769531 -17.507812 "/></g></g></g><g fill="#15110e" fill-opacity="1"><g transform="translate(399.637659, 79.955385)"><g><path d="M 3.515625 -28.835938 L 9.578125 -28.835938 L 9.578125 -26.667969 C 10.382812 -27.960938 11.917969 -28.878906 14.183594 -29.433594 C 14.714844 -29.550781 15.261719 -29.609375 15.820312 -29.609375 C 16.234375 -29.609375 17.128906 -29.511719 18.503906 -29.320312 L 18.503906 -23.019531 C 15.570312 -22.976562 13.675781 -22.671875 12.820312 -22.09375 C 12.71875 -22.011719 12.609375 -21.929688 12.488281 -21.847656 C 10.78125 -20.609375 9.929688 -18.304688 9.929688 -14.929688 L 9.929688 0 L 3.515625 0 Z M 3.515625 -28.835938 "/></g></g></g><path fill="#1f6f6b" d="M 21.28125 16.613281 L 81.339844 16.613281 C 81.871094 16.613281 82.398438 16.640625 82.925781 16.691406 C 83.453125 16.746094 83.976562 16.820312 84.496094 16.925781 C 85.015625 17.027344 85.527344 17.15625 86.035156 17.308594 C 86.539062 17.464844 87.039062 17.640625 87.527344 17.84375 C 88.015625 18.046875 88.496094 18.273438 88.960938 18.519531 C 89.429688 18.769531 89.882812 19.042969 90.324219 19.335938 C 90.765625 19.628906 91.1875 19.945312 91.597656 20.28125 C 92.007812 20.613281 92.398438 20.96875 92.773438 21.34375 C 93.148438 21.71875 93.503906 22.109375 93.839844 22.515625 C 94.175781 22.925781 94.492188 23.351562 94.785156 23.789062 C 95.078125 24.230469 95.351562 24.683594 95.601562 25.148438 C 95.851562 25.613281 96.078125 26.09375 96.277344 26.582031 C 96.480469 27.070312 96.660156 27.566406 96.8125 28.074219 C 96.96875 28.578125 97.097656 29.089844 97.199219 29.609375 C 97.300781 30.128906 97.378906 30.648438 97.433594 31.175781 C 97.484375 31.703125 97.511719 32.230469 97.511719 32.757812 L 97.511719 92.722656 C 97.511719 93.25 97.484375 93.777344 97.433594 94.304688 C 97.378906 94.828125 97.300781 95.351562 97.199219 95.871094 C 97.097656 96.390625 96.96875 96.902344 96.8125 97.40625 C 96.660156 97.914062 96.480469 98.410156 96.277344 98.898438 C 96.078125 99.386719 95.851562 99.863281 95.601562 100.332031 C 95.351562 100.796875 95.078125 101.25 94.785156 101.691406 C 94.492188 102.128906 94.175781 102.554688 93.839844 102.960938 C 93.503906 103.371094 93.148438 103.761719 92.773438 104.136719 C 92.398438 104.511719 92.007812 104.863281 91.597656 105.199219 C 91.1875 105.535156 90.765625 105.851562 90.324219 106.144531 C 89.882812 106.4375 89.429688 106.710938 88.960938 106.957031 C 88.496094 107.207031 88.015625 107.433594 87.527344 107.636719 C 87.039062 107.839844 86.539062 108.015625 86.035156 108.167969 C 85.527344 108.324219 85.015625 108.453125 84.496094 108.554688 C 83.976562 108.65625 83.453125 108.734375 82.925781 108.789062 C 82.398438 108.839844 81.871094 108.863281 81.339844 108.863281 L 21.28125 108.863281 C 20.75 108.863281 20.222656 108.839844 19.695312 108.789062 C 19.167969 108.734375 18.644531 108.65625 18.125 108.554688 C 17.605469 108.453125 17.09375 108.324219 16.585938 108.167969 C 16.078125 108.015625 15.582031 107.839844 15.089844 107.636719 C 14.601562 107.433594 14.125 107.207031 13.65625 106.957031 C 13.191406 106.710938 12.738281 106.4375 12.296875 106.144531 C 11.855469 105.851562 11.429688 105.535156 11.023438 105.199219 C 10.613281 104.863281 10.21875 104.511719 9.847656 104.136719 C 9.472656 103.761719 9.117188 103.371094 8.78125 102.960938 C 8.445312 102.554688 8.128906 102.128906 7.835938 101.691406 C 7.539062 101.25 7.269531 100.796875 7.019531 100.332031 C 6.769531 99.863281 6.542969 99.386719 6.339844 98.898438 C 6.136719 98.410156 5.960938 97.914062 5.804688 97.40625 C 5.652344 96.902344 5.523438 96.390625 5.421875 95.871094 C 5.316406 95.351562 5.238281 94.828125 5.1875 94.304688 C 5.136719 93.777344 5.109375 93.25 5.109375 92.722656 L 5.109375 32.757812 C 5.109375 32.230469 5.136719 31.703125 5.1875 31.175781 C 5.238281 30.648438 5.316406 30.128906 5.421875 29.609375 C 5.523438 29.089844 5.652344 28.578125 5.804688 28.074219 C 5.960938 27.566406 6.136719 27.070312 6.339844 26.582031 C 6.542969 26.09375 6.769531 25.613281 7.019531 25.148438 C 7.269531 24.683594 7.539062 24.230469 7.835938 23.789062 C 8.128906 23.351562 8.445312 22.925781 8.78125 22.515625 C 9.117188 22.109375 9.472656 21.71875 9.847656 21.34375 C 10.21875 20.96875 10.613281 20.613281 11.023438 20.28125 C 11.429688 19.945312 11.855469 19.628906 12.296875 19.335938 C 12.738281 19.042969 13.191406 18.769531 13.65625 18.519531 C 14.125 18.273438 14.601562 18.046875 15.089844 17.84375 C 15.582031 17.640625 16.078125 17.464844 16.585938 17.308594 C 17.09375 17.15625 17.605469 17.027344 18.125 16.925781 C 18.644531 16.820312 19.167969 16.746094 19.695312 16.691406 C 20.222656 16.640625 20.75 16.613281 21.28125 16.613281 Z M 21.28125 16.613281 " fill-opacity="1" fill-rule="nonzero"/><path stroke-linecap="butt" transform="matrix(0.375375, 0, 0, 0.374766, 13.77228, 25.263507)" fill="none" stroke-linejoin="miter" d="M 44.000752 30.003571 L 156.003332 30.003571 C 156.919083 30.003571 157.834834 30.086956 158.729772 30.26415 C 159.635117 30.451768 160.509243 30.712347 161.362556 31.066735 C 162.205463 31.421124 163.017152 31.848474 163.776809 32.35921 C 164.546872 32.869946 165.254497 33.453644 165.899686 34.099881 C 166.544874 34.746119 167.127624 35.454895 167.637531 36.226211 C 168.147438 36.987103 168.584501 37.789688 168.938314 38.644389 C 169.28172 39.488667 169.552283 40.364214 169.729189 41.271031 C 169.906096 42.167425 169.999752 43.084665 169.999752 44.001905 L 169.999752 155.999001 C 169.999752 156.916241 169.906096 157.833481 169.729189 158.729875 C 169.552283 159.636691 169.28172 160.512239 168.938314 161.356517 C 168.584501 162.211218 168.147438 163.013803 167.637531 163.774695 C 167.127624 164.54601 166.544874 165.244364 165.899686 165.901024 C 165.254497 166.547261 164.546872 167.13096 163.776809 167.641696 C 163.017152 168.152432 162.205463 168.579782 161.362556 168.93417 C 160.509243 169.288558 159.635117 169.549138 158.729772 169.726332 C 157.834834 169.913949 156.919083 169.997335 156.003332 169.997335 L 44.000752 169.997335 C 43.085001 169.997335 42.169251 169.913949 41.263906 169.726332 C 40.368968 169.549138 39.494842 169.288558 38.641528 168.93417 C 37.788215 168.579782 36.986933 168.152432 36.21687 167.641696 C 35.457213 167.13096 34.749587 166.547261 34.104399 165.901024 C 33.448804 165.244364 32.866054 164.54601 32.356147 163.774695 C 31.84624 163.013803 31.419584 162.211218 31.065771 161.356517 C 30.711958 160.512239 30.451801 159.636691 30.264489 158.729875 C 30.087582 157.833481 30.004332 156.916241 30.004332 155.999001 L 30.004332 44.001905 C 30.004332 43.084665 30.087582 42.167425 30.264489 41.271031 C 30.451801 40.364214 30.711958 39.488667 31.065771 38.644389 C 31.419584 37.789688 31.84624 36.987103 32.356147 36.226211 C 32.866054 35.454895 33.448804 34.746119 34.104399 34.099881 C 34.749587 33.453644 35.457213 32.869946 36.21687 32.35921 C 36.986933 31.848474 37.788215 31.421124 38.641528 31.066735 C 39.494842 30.712347 40.368968 30.451768 41.263906 30.26415 C 42.169251 30.086956 43.085001 30.003571 44.000752 30.003571 Z M 44.000752 30.003571 " stroke="#f4ecdc" stroke-width="6" stroke-opacity="1" stroke-miterlimit="4"/><path stroke-linecap="round" transform="matrix(0.375375, 0, 0, 0.374766, 13.77228, 25.263507)" fill="none" stroke-linejoin="round" d="M 62.003583 151.996499 L 62.003583 49.995235 L 138.000502 151.996499 L 138.000502 49.995235 " stroke="#f4ecdc" stroke-width="18" stroke-opacity="1" stroke-miterlimit="4"/><path fill="#e26b2c" d="M 75.332031 43.253906 C 75.332031 43.550781 75.277344 43.835938 75.164062 44.113281 C 75.046875 44.386719 74.886719 44.632812 74.675781 44.84375 C 74.464844 45.054688 74.21875 45.214844 73.945312 45.328125 C 73.667969 45.445312 73.378906 45.5 73.082031 45.5 C 72.78125 45.5 72.496094 45.445312 72.21875 45.328125 C 71.945312 45.214844 71.699219 45.054688 71.488281 44.84375 C 71.277344 44.632812 71.113281 44.386719 71 44.113281 C 70.886719 43.835938 70.828125 43.550781 70.828125 43.253906 C 70.828125 42.953125 70.886719 42.667969 71 42.390625 C 71.113281 42.117188 71.277344 41.875 71.488281 41.664062 C 71.699219 41.453125 71.945312 41.289062 72.21875 41.175781 C 72.496094 41.0625 72.78125 41.003906 73.082031 41.003906 C 73.378906 41.003906 73.667969 41.0625 73.945312 41.175781 C 74.21875 41.289062 74.464844 41.453125 74.675781 41.664062 C 74.886719 41.875 75.046875 42.117188 75.164062 42.390625 C 75.277344 42.667969 75.332031 42.953125 75.332031 43.253906 Z M 75.332031 43.253906 " fill-opacity="1" fill-rule="nonzero"/></svg>