<svg xmlns="http://www.w3.org/2000/svg" xmlns:xlink="http://www.w3.org/1999/xlink" width="1200" zoomAndPan="magnify" viewBox="0 0 900 239.999995" height="320" preserveAspectRatio="xMidYMid meet" version="1.0"><defs><g/></defs><path fill="#1f6f6b" d="M 44.066406 28.863281 L 162.5 28.863281 C 163.546875 28.863281 164.585938 28.914062 165.625 29.015625 C 166.667969 29.117188 167.699219 29.269531 168.722656 29.476562 C 169.746094 29.679688 170.757812 29.933594 171.757812 30.234375 C 172.757812 30.539062 173.738281 30.890625 174.703125 31.289062 C 175.667969 31.691406 176.613281 32.136719 177.53125 32.628906 C 178.453125 33.121094 179.347656 33.65625 180.21875 34.238281 C 181.085938 34.816406 181.921875 35.4375 182.730469 36.101562 C 183.539062 36.765625 184.308594 37.464844 185.050781 38.203125 C 185.789062 38.941406 186.488281 39.714844 187.148438 40.523438 C 187.8125 41.332031 188.433594 42.167969 189.015625 43.035156 C 189.59375 43.90625 190.128906 44.800781 190.625 45.722656 C 191.117188 46.644531 191.5625 47.585938 191.960938 48.550781 C 192.359375 49.515625 192.710938 50.5 193.015625 51.496094 C 193.320312 52.496094 193.570312 53.507812 193.777344 54.535156 C 193.980469 55.558594 194.132812 56.589844 194.234375 57.628906 C 194.335938 58.667969 194.386719 59.710938 194.386719 60.757812 L 194.386719 179.21875 C 194.386719 180.261719 194.335938 181.304688 194.234375 182.34375 C 194.132812 183.382812 193.980469 184.417969 193.777344 185.441406 C 193.570312 186.464844 193.320312 187.476562 193.015625 188.476562 C 192.710938 189.476562 192.359375 190.457031 191.960938 191.421875 C 191.5625 192.390625 191.117188 193.332031 190.625 194.253906 C 190.128906 195.175781 189.59375 196.070312 189.015625 196.9375 C 188.433594 197.804688 187.8125 198.644531 187.148438 199.453125 C 186.488281 200.257812 185.789062 201.03125 185.050781 201.769531 C 184.308594 202.507812 183.539062 203.210938 182.730469 203.871094 C 181.921875 204.535156 181.085938 205.15625 180.21875 205.738281 C 179.347656 206.316406 178.453125 206.855469 177.53125 207.347656 C 176.613281 207.839844 175.667969 208.285156 174.703125 208.683594 C 173.738281 209.085938 172.757812 209.4375 171.757812 209.738281 C 170.757812 210.042969 169.746094 210.296875 168.722656 210.5 C 167.699219 210.703125 166.667969 210.855469 165.625 210.957031 C 164.585938 211.0625 163.546875 211.113281 162.5 211.113281 L 44.066406 211.113281 C 43.019531 211.113281 41.976562 211.0625 40.9375 210.957031 C 39.898438 210.855469 38.867188 210.703125 37.84375 210.5 C 36.820312 210.296875 35.808594 210.042969 34.808594 209.738281 C 33.808594 209.4375 32.828125 209.085938 31.863281 208.683594 C 30.898438 208.285156 29.953125 207.839844 29.03125 207.347656 C 28.113281 206.855469 27.21875 206.316406 26.347656 205.738281 C 25.480469 205.15625 24.644531 204.535156 23.835938 203.871094 C 23.027344 203.210938 22.253906 202.507812 21.515625 201.769531 C 20.777344 201.03125 20.078125 200.257812 19.414062 199.453125 C 18.753906 198.644531 18.132812 197.804688 17.550781 196.9375 C 16.972656 196.070312 16.433594 195.175781 15.941406 194.253906 C 15.449219 193.332031 15.003906 192.390625 14.605469 191.421875 C 14.207031 190.457031 13.855469 189.476562 13.550781 188.476562 C 13.246094 187.476562 12.992188 186.464844 12.789062 185.441406 C 12.585938 184.417969 12.433594 183.382812 12.332031 182.34375 C 12.230469 181.304688 12.175781 180.261719 12.175781 179.21875 L 12.175781 60.757812 C 12.175781 59.710938 12.230469 58.667969 12.332031 57.628906 C 12.433594 56.589844 12.585938 55.558594 12.789062 54.535156 C 12.992188 53.507812 13.246094 52.496094 13.550781 51.496094 C 13.855469 50.5 14.207031 49.515625 14.605469 48.550781 C 15.003906 47.585938 15.449219 46.644531 15.941406 45.722656 C 16.433594 44.800781 16.972656 43.90625 17.550781 43.035156 C 18.132812 42.167969 18.753906 41.332031 19.414062 40.523438 C 20.078125 39.714844 20.777344 38.941406 21.515625 38.203125 C 22.253906 37.464844 23.027344 36.765625 23.835938 36.101562 C 24.644531 35.4375 25.480469 34.816406 26.347656 34.238281 C 27.21875 33.65625 28.113281 33.121094 29.03125 32.628906 C 29.953125 32.136719 30.898438 31.691406 31.863281 31.289062 C 32.828125 30.890625 33.808594 30.539062 34.808594 30.234375 C 35.808594 29.933594 36.820312 29.679688 37.84375 29.476562 C 38.867188 29.269531 39.898438 29.117188 40.9375 29.015625 C 41.976562 28.914062 43.019531 28.863281 44.066406 28.863281 Z M 44.066406 28.863281 " fill-opacity="1" fill-rule="nonzero"/><path stroke-linecap="butt" transform="matrix(0.740231, 0, 0, 0.740391, 29.259929, 45.948213)" fill="none" stroke-linejoin="miter" d="M 43.997362 30.000302 L 155.997925 30.000302 C 156.921412 30.000302 157.829068 30.089993 158.731448 30.269375 C 159.633827 30.448757 160.509821 30.712553 161.359429 31.066041 C 162.209038 31.419528 163.011153 31.846878 163.776328 32.358644 C 164.541503 32.870409 165.248631 33.450761 165.897711 34.099701 C 166.552067 34.74864 167.127268 35.455615 167.639144 36.220625 C 168.15102 36.985635 168.58374 37.792853 168.932027 38.642278 C 169.28559 39.491703 169.549444 40.367507 169.728864 41.269691 C 169.908285 42.171876 169.997995 43.079336 169.997995 44.002624 L 169.997995 156.000089 C 169.997995 156.918101 169.908285 157.830837 169.728864 158.733021 C 169.549444 159.635205 169.28559 160.505734 168.932027 161.355159 C 168.58374 162.204584 168.15102 163.011801 167.639144 163.776811 C 167.127268 164.541821 166.552067 165.248796 165.897711 165.897735 C 165.248631 166.551951 164.541503 167.132303 163.776328 167.638793 C 163.011153 168.150558 162.209038 168.583184 161.359429 168.936672 C 160.509821 169.284883 159.633827 169.553956 158.731448 169.733337 C 157.829068 169.912719 156.921412 170.00241 155.997925 170.00241 L 43.997362 170.00241 C 43.079152 170.00241 42.171495 169.912719 41.269116 169.733337 C 40.366737 169.553956 39.490743 169.284883 38.641135 168.936672 C 37.791526 168.583184 36.984134 168.150558 36.224236 167.638793 C 35.459061 167.132303 34.751933 166.551951 34.102853 165.897735 C 33.448497 165.248796 32.868019 164.541821 32.36142 163.776811 C 31.849544 163.011801 31.416824 162.204584 31.06326 161.355159 C 30.714974 160.505734 30.445843 159.635205 30.266422 158.733021 C 30.092279 157.830837 30.002569 156.918101 30.002569 156.000089 L 30.002569 44.002624 C 30.002569 43.079336 30.092279 42.171876 30.266422 41.269691 C 30.445843 40.367507 30.714974 39.491703 31.06326 38.642278 C 31.416824 37.792853 31.849544 36.985635 32.36142 36.220625 C 32.868019 35.455615 33.448497 34.74864 34.102853 34.099701 C 34.751933 33.450761 35.459061 32.870409 36.224236 32.358644 C 36.984134 31.846878 37.791526 31.419528 38.641135 31.066041 C 39.490743 30.712553 40.366737 30.448757 41.269116 30.269375 C 42.171495 30.089993 43.079152 30.000302 43.997362 30.000302 Z M 43.997362 30.000302 " stroke="#f4ecdc" stroke-width="6" stroke-opacity="1" stroke-miterlimit="4"/><path stroke-linecap="round" transform="matrix(0.740231, 0, 0, 0.740391, 29.259929, 45.948213)" fill="none" stroke-linejoin="round" d="M 61.997453 152.000933 L 61.997453 50.001357 L 137.997834 152.000933 L 137.997834 50.001357 " stroke="#f4ecdc" stroke-width="18" stroke-opacity="1" stroke-miterlimit="4"/><path fill="#e26b2c" d="M 150.65625 81.488281 C 150.65625 81.777344 150.628906 82.066406 150.574219 82.355469 C 150.515625 82.640625 150.429688 82.917969 150.320312 83.1875 C 150.207031 83.457031 150.070312 83.710938 149.910156 83.953125 C 149.746094 84.199219 149.5625 84.421875 149.355469 84.628906 C 149.152344 84.835938 148.925781 85.019531 148.683594 85.179688 C 148.441406 85.34375 148.183594 85.480469 147.914062 85.589844 C 147.648438 85.703125 147.367188 85.785156 147.082031 85.84375 C 146.796875 85.902344 146.507812 85.929688 146.214844 85.929688 C 145.925781 85.929688 145.636719 85.902344 145.351562 85.84375 C 145.0625 85.785156 144.785156 85.703125 144.515625 85.589844 C 144.246094 85.480469 143.992188 85.34375 143.75 85.179688 C 143.507812 85.019531 143.28125 84.835938 143.074219 84.628906 C 142.871094 84.421875 142.683594 84.199219 142.523438 83.953125 C 142.363281 83.710938 142.226562 83.457031 142.113281 83.1875 C 142 82.917969 141.917969 82.640625 141.859375 82.355469 C 141.804688 82.066406 141.773438 81.777344 141.773438 81.488281 C 141.773438 81.195312 141.804688 80.90625 141.859375 80.621094 C 141.917969 80.335938 142 80.054688 142.113281 79.785156 C 142.226562 79.515625 142.363281 79.261719 142.523438 79.019531 C 142.683594 78.777344 142.871094 78.550781 143.074219 78.347656 C 143.28125 78.140625 143.507812 77.957031 143.75 77.792969 C 143.992188 77.632812 144.246094 77.496094 144.515625 77.382812 C 144.785156 77.269531 145.0625 77.1875 145.351562 77.128906 C 145.636719 77.074219 145.925781 77.042969 146.214844 77.042969 C 146.507812 77.042969 146.796875 77.074219 147.082031 77.128906 C 147.367188 77.1875 147.648438 77.269531 147.914062 77.382812 C 148.183594 77.496094 148.441406 77.632812 148.683594 77.792969 C 148.925781 77.957031 149.152344 78.140625 149.355469 78.347656 C 149.5625 78.550781 149.746094 78.777344 149.910156 79.019531 C 150.070312 79.261719 150.207031 79.515625 150.320312 79.785156 C 150.429688 80.054688 150.515625 80.335938 150.574219 80.621094 C 150.628906 80.90625 150.65625 81.195312 150.65625 81.488281 Z M 150.65625 81.488281 " fill-opacity="1" fill-rule="nonzero"/><g fill="#15110e" fill-opacity="1"><g transform="translate(239.93142, 119.981403)"><g><path d="M 6.679688 -54.113281 L 18.042969 -54.113281 L 18.042969 -50.589844 C 19.328125 -52.621094 22.679688 -54.144531 28.101562 -55.152344 C 29.5 -55.421875 31.023438 -55.558594 32.679688 -55.558594 C 40.125 -55.558594 45.378906 -53.007812 48.449219 -47.90625 C 49.847656 -45.535156 50.550781 -42.859375 50.550781 -39.878906 L 50.550781 0 L 38.625 0 L 38.625 -36.703125 C 38.625 -40.292969 37.152344 -42.683594 34.207031 -43.875 C 33.109375 -44.335938 31.804688 -44.566406 30.296875 -44.566406 C 25.773438 -44.566406 22.507812 -42.492188 20.5 -38.347656 C 19.296875 -35.941406 18.695312 -33.042969 18.695312 -29.648438 L 18.695312 0 L 6.679688 0 Z M 6.679688 -54.113281 "/></g></g></g><g fill="#15110e" fill-opacity="1"><g transform="translate(287.748362, 119.981403)"><g><path d="M 50.082031 0 L 38.90625 0 L 38.90625 -2.707031 C 37.453125 -0.640625 34.101562 0.839844 28.855469 1.738281 C 27.46875 2.042969 25.910156 2.195312 24.175781 2.195312 C 16.597656 2.195312 11.308594 -0.359375 8.308594 -5.464844 C 6.910156 -7.832031 6.210938 -10.503906 6.210938 -13.484375 L 6.210938 -54.113281 L 18.136719 -54.113281 L 18.136719 -16.613281 C 18.136719 -13.054688 19.609375 -10.679688 22.558594 -9.488281 C 23.71875 -8.996094 25.023438 -8.75 26.464844 -8.75 C 31.054688 -8.75 34.378906 -10.867188 36.441406 -15.097656 C 37.585938 -17.5 38.160156 -20.371094 38.160156 -23.714844 L 38.160156 -54.113281 L 50.082031 -54.113281 Z M 50.082031 0 "/></g></g></g><g fill="#15110e" fill-opacity="1"><g transform="translate(337.480135, 119.981403)"><g><path d="M 6.679688 -54.113281 L 18.042969 -54.113281 L 18.042969 -51.316406 C 19.382812 -53.207031 22.707031 -54.550781 28.011719 -55.355469 C 29.074219 -55.492188 30.210938 -55.558594 31.417969 -55.558594 C 37.828125 -55.558594 42.601562 -53.191406 45.734375 -48.457031 C 46.089844 -47.921875 45.855469 -47.402344 45.03125 -46.898438 C 47.699219 -51.601562 51.277344 -54.351562 55.757812 -55.152344 C 57.152344 -55.425781 58.675781 -55.558594 60.328125 -55.558594 C 69.144531 -55.558594 74.476562 -51.917969 76.324219 -44.636719 C 76.671875 -43.074219 76.847656 -41.394531 76.847656 -39.597656 L 76.847656 0 L 64.828125 0 L 64.828125 -36.515625 C 64.828125 -40.699219 63.292969 -43.257812 60.21875 -44.183594 C 59.378906 -44.441406 58.496094 -44.566406 57.574219 -44.566406 C 54.375 -44.566406 51.796875 -43.144531 49.832031 -40.300781 C 48.472656 -38.277344 47.792969 -36.003906 47.792969 -33.480469 L 47.792969 0 L 35.777344 0 L 35.777344 -36.515625 C 35.777344 -41.007812 34.019531 -43.613281 30.507812 -44.335938 C 29.890625 -44.488281 29.214844 -44.566406 28.472656 -44.566406 C 25.230469 -44.566406 22.625 -43.089844 20.652344 -40.132812 C 19.347656 -38.160156 18.695312 -35.945312 18.695312 -33.480469 L 18.695312 0 L 6.679688 0 Z M 6.679688 -54.113281 "/></g></g></g><g fill="#15110e" fill-opacity="1"><g transform="translate(411.17064, 119.981403)"><g><path d="M 5.136719 -73.734375 L 17.0625 -73.734375 L 17.0625 -51.941406 C 18.664062 -54.355469 23.171875 -55.558594 30.578125 -55.558594 C 39.523438 -55.558594 46.066406 -51.773438 50.214844 -44.195312 C 52.742188 -39.539062 54.007812 -33.894531 54.007812 -27.265625 C 54.007812 -16.371094 50.859375 -8.265625 44.570312 -2.949219 C 40.558594 0.480469 35.769531 2.195312 30.203125 2.195312 C 22.632812 2.195312 17.972656 0.800781 16.226562 -1.992188 L 16.316406 0 L 5.136719 0 Z M 29.011719 -44.101562 C 24.582031 -44.101562 21.296875 -41.800781 19.160156 -37.207031 C 17.761719 -34.292969 17.0625 -30.777344 17.0625 -26.660156 C 17.0625 -19.347656 18.996094 -14.238281 22.867188 -11.332031 C 24.632812 -9.953125 26.6875 -9.265625 29.035156 -9.265625 C 33.59375 -9.265625 37.023438 -11.417969 39.324219 -15.726562 C 40.882812 -18.699219 41.660156 -22.25 41.660156 -26.378906 C 41.660156 -33.808594 39.65625 -39.011719 35.640625 -41.988281 C 33.621094 -43.34375 31.414062 -44.046875 29.011719 -44.101562 Z M 29.011719 -44.101562 "/></g></g></g><g fill="#15110e" fill-opacity="1"><g transform="translate(460.902413, 119.981403)"><g><path d="M 53.027344 -22.378906 L 16.109375 -22.378906 C 16.148438 -19.546875 16.933594 -17.007812 18.460938 -14.765625 C 20.824219 -11.035156 24.285156 -9.171875 28.847656 -9.171875 C 34.367188 -9.171875 38.25 -12.519531 40.492188 -19.214844 L 52.34375 -19.214844 C 50.53125 -9.210938 45.972656 -2.703125 38.667969 0.316406 C 35.621094 1.570312 32.238281 2.195312 28.519531 2.195312 C 19.09375 2.195312 12.183594 -1.640625 7.785156 -9.316406 C 5.117188 -13.949219 3.78125 -19.640625 3.78125 -26.378906 C 3.78125 -37.097656 7.03125 -45.117188 13.527344 -50.4375 C 17.691406 -53.851562 22.769531 -55.558594 28.753906 -55.558594 C 36.714844 -55.558594 42.964844 -52.695312 47.5 -46.960938 C 48.902344 -45.21875 50.027344 -43.253906 50.882812 -41.066406 C 52.3125 -37.34375 53.027344 -31.113281 53.027344 -22.378906 Z M 16.433594 -32.855469 L 42.140625 -31.234375 C 41.5 -31.3125 40.949219 -31.390625 40.492188 -31.46875 C 40.492188 -35.921875 38.886719 -39.378906 35.675781 -41.84375 C 33.605469 -43.410156 31.25 -44.191406 28.613281 -44.191406 C 23.984375 -44.191406 20.546875 -42.15625 18.308594 -38.078125 C 17.171875 -36.019531 16.546875 -34.28125 16.433594 -32.855469 Z M 16.433594 -32.855469 "/></g></g></g><g fill="#15110e" fill-opacity="1"><g transform="translate(510.634185, 119.981403)"><g><path d="M 6.585938 -54.113281 L 17.949219 -54.113281 L 17.949219 -50.042969 C 19.453125 -52.464844 22.328125 -54.191406 26.574219 -55.226562 C 27.570312 -55.449219 28.59375 -55.558594 29.640625 -55.558594 C 30.417969 -55.558594 32.097656 -55.378906 34.671875 -55.019531 L 34.671875 -43.191406 C 29.179688 -43.117188 25.628906 -42.539062 24.019531 -41.460938 C 23.832031 -41.300781 23.625 -41.148438 23.402344 -41 C 20.203125 -38.671875 18.605469 -34.34375 18.605469 -28.011719 L 18.605469 0 L 6.585938 0 Z M 6.585938 -54.113281 "/></g></g></g><g fill="#15110e" fill-opacity="1"><g transform="translate(541.31106, 119.981403)"><g><path d="M 5.136719 -73.734375 L 17.0625 -73.734375 L 17.0625 -51.941406 C 18.664062 -54.355469 23.171875 -55.558594 30.578125 -55.558594 C 39.523438 -55.558594 46.066406 -51.773438 50.214844 -44.195312 C 52.742188 -39.539062 54.007812 -33.894531 54.007812 -27.265625 C 54.007812 -16.371094 50.859375 -8.265625 44.570312 -2.949219 C 40.558594 0.480469 35.769531 2.195312 30.203125 2.195312 C 22.632812 2.195312 17.972656 0.800781 16.226562 -1.992188 L 16.316406 0 L 5.136719 0 Z M 29.011719 -44.101562 C 24.582031 -44.101562 21.296875 -41.800781 19.160156 -37.207031 C 17.761719 -34.292969 17.0625 -30.777344 17.0625 -26.660156 C 17.0625 -19.347656 18.996094 -14.238281 22.867188 -11.332031 C 24.632812 -9.953125 26.6875 -9.265625 29.035156 -9.265625 C 33.59375 -9.265625 37.023438 -11.417969 39.324219 -15.726562 C 40.882812 -18.699219 41.660156 -22.25 41.660156 -26.378906 C 41.660156 -33.808594 39.65625 -39.011719 35.640625 -41.988281 C 33.621094 -43.34375 31.414062 -44.046875 29.011719 -44.101562 Z M 29.011719 -44.101562 "/></g></g></g><g fill="#15110e" fill-opacity="1"><g transform="translate(591.042833, 119.981403)"><g><path d="M 53.027344 -22.378906 L 16.109375 -22.378906 C 16.148438 -19.546875 16.933594 -17.007812 18.460938 -14.765625 C 20.824219 -11.035156 24.285156 -9.171875 28.847656 -9.171875 C 34.367188 -9.171875 38.25 -12.519531 40.492188 -19.214844 L 52.34375 -19.214844 C 50.53125 -9.210938 45.972656 -2.703125 38.667969 0.316406 C 35.621094 1.570312 32.238281 2.195312 28.519531 2.195312 C 19.09375 2.195312 12.183594 -1.640625 7.785156 -9.316406 C 5.117188 -13.949219 3.78125 -19.640625 3.78125 -26.378906 C 3.78125 -37.097656 7.03125 -45.117188 13.527344 -50.4375 C 17.691406 -53.851562 22.769531 -55.558594 28.753906 -55.558594 C 36.714844 -55.558594 42.964844 -52.695312 47.5 -46.960938 C 48.902344 -45.21875 50.027344 -43.253906 50.882812 -41.066406 C 52.3125 -37.34375 53.027344 -31.113281 53.027344 -22.378906 Z M 16.433594 -32.855469 L 42.140625 -31.234375 C 41.5 -31.3125 40.949219 -31.390625 40.492188 -31.46875 C 40.492188 -35.921875 38.886719 -39.378906 35.675781 -41.84375 C 33.605469 -43.410156 31.25 -44.191406 28.613281 -44.191406 C 23.984375 -44.191406 20.546875 -42.15625 18.308594 -38.078125 C 17.171875 -36.019531 16.546875 -34.28125 16.433594 -32.855469 Z M 16.433594 -32.855469 "/></g></g></g><g fill="#15110e" fill-opacity="1"><g transform="translate(640.774605, 119.981403)"><g><path d="M 6.679688 -54.113281 L 18.042969 -54.113281 L 18.042969 -50.589844 C 19.328125 -52.621094 22.679688 -54.144531 28.101562 -55.152344 C 29.5 -55.421875 31.023438 -55.558594 32.679688 -55.558594 C 40.125 -55.558594 45.378906 -53.007812 48.449219 -47.90625 C 49.847656 -45.535156 50.550781 -42.859375 50.550781 -39.878906 L 50.550781 0 L 38.625 0 L 38.625 -36.703125 C 38.625 -40.292969 37.152344 -42.683594 34.207031 -43.875 C 33.109375 -44.335938 31.804688 -44.566406 30.296875 -44.566406 C 25.773438 -44.566406 22.507812 -42.492188 20.5 -38.347656 C 19.296875 -35.941406 18.695312 -33.042969 18.695312 -29.648438 L 18.695312 0 L 6.679688 0 Z M 6.679688 -54.113281 "/></g></g></g><g fill="#15110e" fill-opacity="1"><g transform="translate(688.591525, 119.981403)"><g><path d="M 51.34375 -73.734375 L 51.34375 0 L 40.261719 0 L 40.261719 -2.289062 C 38.617188 0.0429688 34.75 1.503906 28.660156 2.09375 C 27.910156 2.160156 27.117188 2.195312 26.28125 2.195312 C 17.203125 2.195312 10.5625 -1.722656 6.355469 -9.554688 C 3.769531 -14.394531 2.476562 -20.269531 2.476562 -27.171875 C 2.476562 -37.597656 5.546875 -45.414062 11.691406 -50.613281 C 15.710938 -53.910156 20.480469 -55.558594 26 -55.558594 C 33.597656 -55.558594 38.070312 -54.53125 39.417969 -52.476562 L 39.417969 -73.734375 Z M 27.308594 -44.101562 C 22.710938 -44.101562 19.285156 -41.84375 17.03125 -37.335938 C 15.867188 -35.125 15.144531 -32.542969 14.859375 -29.585938 C 14.804688 -28.621094 14.773438 -27.644531 14.773438 -26.660156 C 14.773438 -19.558594 16.753906 -14.480469 20.714844 -11.425781 C 22.625 -9.984375 24.871094 -9.265625 27.445312 -9.265625 C 31.898438 -9.265625 35.175781 -11.503906 37.28125 -15.984375 C 38.707031 -18.890625 39.417969 -22.386719 39.417969 -26.472656 C 39.417969 -34.160156 37.398438 -39.421875 33.359375 -42.261719 C 31.589844 -43.488281 29.570312 -44.101562 27.308594 -44.101562 Z M 27.308594 -44.101562 "/></g></g></g><g fill="#15110e" fill-opacity="1"><g transform="translate(738.323344, 119.981403)"><g><path d="M 53.027344 -22.378906 L 16.109375 -22.378906 C 16.148438 -19.546875 16.933594 -17.007812 18.460938 -14.765625 C 20.824219 -11.035156 24.285156 -9.171875 28.847656 -9.171875 C 34.367188 -9.171875 38.25 -12.519531 40.492188 -19.214844 L 52.34375 -19.214844 C 50.53125 -9.210938 45.972656 -2.703125 38.667969 0.316406 C 35.621094 1.570312 32.238281 2.195312 28.519531 2.195312 C 19.09375 2.195312 12.183594 -1.640625 7.785156 -9.316406 C 5.117188 -13.949219 3.78125 -19.640625 3.78125 -26.378906 C 3.78125 -37.097656 7.03125 -45.117188 13.527344 -50.4375 C 17.691406 -53.851562 22.769531 -55.558594 28.753906 -55.558594 C 36.714844 -55.558594 42.964844 -52.695312 47.5 -46.960938 C 48.902344 -45.21875 50.027344 -43.253906 50.882812 -41.066406 C 52.3125 -37.34375 53.027344 -31.113281 53.027344 -22.378906 Z M 16.433594 -32.855469 L 42.140625 -31.234375 C 41.5 -31.3125 40.949219 -31.390625 40.492188 -31.46875 C 40.492188 -35.921875 38.886719 -39.378906 35.675781 -41.84375 C 33.605469 -43.410156 31.25 -44.191406 28.613281 -44.191406 C 23.984375 -44.191406 20.546875 -42.15625 18.308594 -38.078125 C 17.171875 -36.019531 16.546875 -34.28125 16.433594 -32.855469 Z M 16.433594 -32.855469 "/></g></g></g><g fill="#15110e" fill-opacity="1"><g transform="translate(788.055071, 119.981403)"><g><path d="M 6.585938 -54.113281 L 17.949219 -54.113281 L 17.949219 -50.042969 C 19.453125 -52.464844 22.328125 -54.191406 26.574219 -55.226562 C 27.570312 -55.449219 28.59375 -55.558594 29.640625 -55.558594 C 30.417969 -55.558594 32.097656 -55.378906 34.671875 -55.019531 L 34.671875 -43.191406 C 29.179688 -43.117188 25.628906 -42.539062 24.019531 -41.460938 C 23.832031 -41.300781 23.625 -41.148438 23.402344 -41 C 20.203125 -38.671875 18.605469 -34.34375 18.605469 -28.011719 L 18.605469 0 L 6.585938 0 Z M 6.585938 -54.113281 "/></g></g></g><g fill="#6b5e4e" fill-opacity="1"><g transform="translate(242.216012, 176.932691)"><g><path d="M 1.046875 -18.265625 L 4.359375 -18.265625 L 7.515625 -8.96875 L 10.6875 -18.265625 L 14 -18.265625 L 14 0 L 11.71875 0 L 11.71875 -16.140625 L 8.46875 -6.515625 L 6.59375 -6.515625 L 3.328125 -16.140625 L 3.328125 0 L 1.046875 0 Z M 1.046875 -18.265625 "/></g></g></g><g fill="#6b5e4e" fill-opacity="1"><g transform="translate(259.574094, 176.932691)"><g><path d="M 7.53125 -16.09375 L 4.921875 -6.75 L 10.140625 -6.75 Z M 6.046875 -18.265625 L 9.03125 -18.265625 L 14.625 0 L 12.078125 0 L 10.71875 -4.765625 L 4.328125 -4.765625 L 3.015625 0 L 0.453125 0 Z M 6.046875 -18.265625 "/></g></g></g><g fill="#6b5e4e" fill-opacity="1"><g transform="translate(276.932175, 176.932691)"><g><path d="M 12.375 -17.640625 L 12.375 -15.140625 C 11.625 -15.617188 10.867188 -15.976562 10.109375 -16.21875 C 9.359375 -16.46875 8.601562 -16.59375 7.84375 -16.59375 C 6.675781 -16.59375 5.753906 -16.320312 5.078125 -15.78125 C 4.398438 -15.238281 4.0625 -14.503906 4.0625 -13.578125 C 4.0625 -12.773438 4.28125 -12.160156 4.71875 -11.734375 C 5.164062 -11.304688 6 -10.953125 7.21875 -10.671875 L 8.515625 -10.375 C 10.222656 -9.976562 11.46875 -9.347656 12.25 -8.484375 C 13.03125 -7.628906 13.421875 -6.46875 13.421875 -5 C 13.421875 -3.257812 12.882812 -1.929688 11.8125 -1.015625 C 10.738281 -0.0976562 9.175781 0.359375 7.125 0.359375 C 6.257812 0.359375 5.394531 0.265625 4.53125 0.078125 C 3.664062 -0.109375 2.800781 -0.382812 1.9375 -0.75 L 1.9375 -3.375 C 2.875 -2.78125 3.757812 -2.34375 4.59375 -2.0625 C 5.425781 -1.789062 6.269531 -1.65625 7.125 -1.65625 C 8.363281 -1.65625 9.328125 -1.929688 10.015625 -2.484375 C 10.710938 -3.046875 11.0625 -3.828125 11.0625 -4.828125 C 11.0625 -5.742188 10.820312 -6.441406 10.34375 -6.921875 C 9.875 -7.410156 9.046875 -7.785156 7.859375 -8.046875 L 6.546875 -8.34375 C 4.847656 -8.726562 3.613281 -9.304688 2.84375 -10.078125 C 2.082031 -10.859375 1.703125 -11.898438 1.703125 -13.203125 C 1.703125 -14.835938 2.25 -16.144531 3.34375 -17.125 C 4.4375 -18.101562 5.894531 -18.59375 7.71875 -18.59375 C 8.414062 -18.59375 9.148438 -18.515625 9.921875 -18.359375 C 10.703125 -18.203125 11.519531 -17.960938 12.375 -17.640625 Z M 12.375 -17.640625 "/></g></g></g><g fill="#6b5e4e" fill-opacity="1"><g transform="translate(294.290256, 176.932691)"><g><path d="M 0.578125 -18.265625 L 14.5 -18.265625 L 14.5 -16.1875 L 8.796875 -16.1875 L 8.796875 0 L 6.3125 0 L 6.3125 -16.1875 L 0.578125 -16.1875 Z M 0.578125 -18.265625 "/></g></g></g><g fill="#6b5e4e" fill-opacity="1"><g transform="translate(311.648338, 176.932691)"><g><path d="M 2.40625 -18.265625 L 13.25 -18.265625 L 13.25 -16.1875 L 4.875 -16.1875 L 4.875 -10.78125 L 12.875 -10.78125 L 12.875 -8.703125 L 4.875 -8.703125 L 4.875 -2.078125 L 13.484375 -2.078125 L 13.484375 0 L 2.40625 0 Z M 2.40625 -18.265625 "/></g></g></g><g fill="#6b5e4e" fill-opacity="1"><g transform="translate(329.006419, 176.932691)"><g><path d="M 9.296875 -8.625 C 9.929688 -8.457031 10.472656 -8.148438 10.921875 -7.703125 C 11.367188 -7.253906 11.925781 -6.351562 12.59375 -5 L 15.078125 0 L 12.421875 0 L 10.25 -4.609375 C 9.625 -5.921875 9.054688 -6.765625 8.546875 -7.140625 C 8.046875 -7.523438 7.394531 -7.71875 6.59375 -7.71875 L 4.234375 -7.71875 L 4.234375 0 L 1.75 0 L 1.75 -18.265625 L 6.84375 -18.265625 C 8.84375 -18.265625 10.375 -17.8125 11.4375 -16.90625 C 12.507812 -16 13.046875 -14.691406 13.046875 -12.984375 C 13.046875 -11.773438 12.71875 -10.789062 12.0625 -10.03125 C 11.40625 -9.269531 10.484375 -8.800781 9.296875 -8.625 Z M 4.234375 -16.234375 L 4.234375 -9.75 L 6.9375 -9.75 C 8.113281 -9.75 8.988281 -10.015625 9.5625 -10.546875 C 10.144531 -11.078125 10.4375 -11.890625 10.4375 -12.984375 C 10.4375 -14.035156 10.128906 -14.835938 9.515625 -15.390625 C 8.898438 -15.953125 8.007812 -16.234375 6.84375 -16.234375 Z M 4.234375 -16.234375 "/></g></g></g><g fill="#6b5e4e" fill-opacity="1"><g transform="translate(346.3645, 176.932691)"><g/></g></g><g fill="#6b5e4e" fill-opacity="1"><g transform="translate(363.722582, 176.932691)"><g><path d="M 0.578125 -18.265625 L 14.5 -18.265625 L 14.5 -16.1875 L 8.796875 -16.1875 L 8.796875 0 L 6.3125 0 L 6.3125 -16.1875 L 0.578125 -16.1875 Z M 0.578125 -18.265625 "/></g></g></g><g fill="#6b5e4e" fill-opacity="1"><g transform="translate(381.080663, 176.932691)"><g><path d="M 1.671875 -18.265625 L 4.15625 -18.265625 L 4.15625 -10.78125 L 10.921875 -10.78125 L 10.921875 -18.265625 L 13.40625 -18.265625 L 13.40625 0 L 10.921875 0 L 10.921875 -8.703125 L 4.15625 -8.703125 L 4.15625 0 L 1.671875 0 Z M 1.671875 -18.265625 "/></g></g></g><g fill="#6b5e4e" fill-opacity="1"><g transform="translate(398.438744, 176.932691)"><g><path d="M 2.40625 -18.265625 L 13.25 -18.265625 L 13.25 -16.1875 L 4.875 -16.1875 L 4.875 -10.78125 L 12.875 -10.78125 L 12.875 -8.703125 L 4.875 -8.703125 L 4.875 -2.078125 L 13.484375 -2.078125 L 13.484375 0 L 2.40625 0 Z M 2.40625 -18.265625 "/></g></g></g><g fill="#6b5e4e" fill-opacity="1"><g transform="translate(415.796825, 176.932691)"><g/></g></g><g fill="#6b5e4e" fill-opacity="1"><g transform="translate(433.154907, 176.932691)"><g><path d="M 2.40625 -18.265625 L 13.25 -18.265625 L 13.25 -16.1875 L 4.875 -16.1875 L 4.875 -10.78125 L 12.875 -10.78125 L 12.875 -8.703125 L 4.875 -8.703125 L 4.875 -2.078125 L 13.484375 -2.078125 L 13.484375 0 L 2.40625 0 Z M 2.40625 -18.265625 "/></g></g></g><g fill="#6b5e4e" fill-opacity="1"><g transform="translate(450.512988, 176.932691)"><g><path d="M 2.625 -18.265625 L 5.109375 -18.265625 L 5.109375 -2.078125 L 13.9375 -2.078125 L 13.9375 0 L 2.625 0 Z M 2.625 -18.265625 "/></g></g></g><g fill="#6b5e4e" fill-opacity="1"><g transform="translate(467.871057, 176.932691)"><g><path d="M 2.40625 -18.265625 L 13.25 -18.265625 L 13.25 -16.1875 L 4.875 -16.1875 L 4.875 -10.78125 L 12.875 -10.78125 L 12.875 -8.703125 L 4.875 -8.703125 L 4.875 -2.078125 L 13.484375 -2.078125 L 13.484375 0 L 2.40625 0 Z M 2.40625 -18.265625 "/></g></g></g><g fill="#6b5e4e" fill-opacity="1"><g transform="translate(485.22915, 176.932691)"><g><path d="M 1.046875 -18.265625 L 4.359375 -18.265625 L 7.515625 -8.96875 L 10.6875 -18.265625 L 14 -18.265625 L 14 0 L 11.71875 0 L 11.71875 -16.140625 L 8.46875 -6.515625 L 6.59375 -6.515625 L 3.328125 -16.140625 L 3.328125 0 L 1.046875 0 Z M 1.046875 -18.265625 "/></g></g></g><g fill="#6b5e4e" fill-opacity="1"><g transform="translate(502.587243, 176.932691)"><g><path d="M 2.40625 -18.265625 L 13.25 -18.265625 L 13.25 -16.1875 L 4.875 -16.1875 L 4.875 -10.78125 L 12.875 -10.78125 L 12.875 -8.703125 L 4.875 -8.703125 L 4.875 -2.078125 L 13.484375 -2.078125 L 13.484375 0 L 2.40625 0 Z M 2.40625 -18.265625 "/></g></g></g><g fill="#6b5e4e" fill-opacity="1"><g transform="translate(519.945312, 176.932691)"><g><path d="M 1.703125 -18.265625 L 4.828125 -18.265625 L 11 -3.234375 L 11 -18.265625 L 13.375 -18.265625 L 13.375 0 L 10.25 0 L 4.078125 -15.046875 L 4.078125 0 L 1.703125 0 Z M 1.703125 -18.265625 "/></g></g></g><g fill="#6b5e4e" fill-opacity="1"><g transform="translate(537.303381, 176.932691)"><g><path d="M 0.578125 -18.265625 L 14.5 -18.265625 L 14.5 -16.1875 L 8.796875 -16.1875 L 8.796875 0 L 6.3125 0 L 6.3125 -16.1875 L 0.578125 -16.1875 Z M 0.578125 -18.265625 "/></g></g></g><g fill="#6b5e4e" fill-opacity="1"><g transform="translate(554.661474, 176.932691)"><g><path d="M 12.375 -17.640625 L 12.375 -15.140625 C 11.625 -15.617188 10.867188 -15.976562 10.109375 -16.21875 C 9.359375 -16.46875 8.601562 -16.59375 7.84375 -16.59375 C 6.675781 -16.59375 5.753906 -16.320312 5.078125 -15.78125 C 4.398438 -15.238281 4.0625 -14.503906 4.0625 -13.578125 C 4.0625 -12.773438 4.28125 -12.160156 4.71875 -11.734375 C 5.164062 -11.304688 6 -10.953125 7.21875 -10.671875 L 8.515625 -10.375 C 10.222656 -9.976562 11.46875 -9.347656 12.25 -8.484375 C 13.03125 -7.628906 13.421875 -6.46875 13.421875 -5 C 13.421875 -3.257812 12.882812 -1.929688 11.8125 -1.015625 C 10.738281 -0.0976562 9.175781 0.359375 7.125 0.359375 C 6.257812 0.359375 5.394531 0.265625 4.53125 0.078125 C 3.664062 -0.109375 2.800781 -0.382812 1.9375 -0.75 L 1.9375 -3.375 C 2.875 -2.78125 3.757812 -2.34375 4.59375 -2.0625 C 5.425781 -1.789062 6.269531 -1.65625 7.125 -1.65625 C 8.363281 -1.65625 9.328125 -1.929688 10.015625 -2.484375 C 10.710938 -3.046875 11.0625 -3.828125 11.0625 -4.828125 C 11.0625 -5.742188 10.820312 -6.441406 10.34375 -6.921875 C 9.875 -7.410156 9.046875 -7.785156 7.859375 -8.046875 L 6.546875 -8.34375 C 4.847656 -8.726562 3.613281 -9.304688 2.84375 -10.078125 C 2.082031 -10.859375 1.703125 -11.898438 1.703125 -13.203125 C 1.703125 -14.835938 2.25 -16.144531 3.34375 -17.125 C 4.4375 -18.101562 5.894531 -18.59375 7.71875 -18.59375 C 8.414062 -18.59375 9.148438 -18.515625 9.921875 -18.359375 C 10.703125 -18.203125 11.519531 -17.960938 12.375 -17.640625 Z M 12.375 -17.640625 "/></g></g></g><g fill="#6b5e4e" fill-opacity="1"><g transform="translate(572.019566, 176.932691)"><g/></g></g><g fill="#6b5e4e" fill-opacity="1"><g transform="translate(589.377636, 176.932691)"><g><path d="M 11.0625 -9.109375 C 11.0625 -11.796875 10.785156 -13.710938 10.234375 -14.859375 C 9.691406 -16.015625 8.789062 -16.59375 7.53125 -16.59375 C 6.28125 -16.59375 5.378906 -16.015625 4.828125 -14.859375 C 4.285156 -13.710938 4.015625 -11.796875 4.015625 -9.109375 C 4.015625 -6.441406 4.285156 -4.53125 4.828125 -3.375 C 5.378906 -2.226562 6.28125 -1.65625 7.53125 -1.65625 C 8.789062 -1.65625 9.691406 -2.226562 10.234375 -3.375 C 10.785156 -4.519531 11.0625 -6.429688 11.0625 -9.109375 Z M 13.65625 -9.109375 C 13.65625 -5.929688 13.148438 -3.554688 12.140625 -1.984375 C 11.128906 -0.421875 9.59375 0.359375 7.53125 0.359375 C 5.46875 0.359375 3.9375 -0.414062 2.9375 -1.96875 C 1.9375 -3.53125 1.4375 -5.910156 1.4375 -9.109375 C 1.4375 -12.304688 1.9375 -14.6875 2.9375 -16.25 C 3.945312 -17.8125 5.476562 -18.59375 7.53125 -18.59375 C 9.59375 -18.59375 11.128906 -17.8125 12.140625 -16.25 C 13.148438 -14.6875 13.65625 -12.304688 13.65625 -9.109375 Z M 13.65625 -9.109375 "/></g></g></g><g fill="#6b5e4e" fill-opacity="1"><g transform="translate(606.735705, 176.932691)"><g><path d="M 2.84375 -18.265625 L 13.59375 -18.265625 L 13.59375 -16.1875 L 5.328125 -16.1875 L 5.328125 -10.8125 L 12.828125 -10.8125 L 12.828125 -8.71875 L 5.328125 -8.71875 L 5.328125 0 L 2.84375 0 Z M 2.84375 -18.265625 "/></g></g></g><g fill="#6b5e4e" fill-opacity="1"><g transform="translate(624.093798, 176.932691)"><g/></g></g><g fill="#6b5e4e" fill-opacity="1"><g transform="translate(641.45189, 176.932691)"><g><path d="M 1.046875 -18.265625 L 4.359375 -18.265625 L 7.515625 -8.96875 L 10.6875 -18.265625 L 14 -18.265625 L 14 0 L 11.71875 0 L 11.71875 -16.140625 L 8.46875 -6.515625 L 6.59375 -6.515625 L 3.328125 -16.140625 L 3.328125 0 L 1.046875 0 Z M 1.046875 -18.265625 "/></g></g></g><g fill="#6b5e4e" fill-opacity="1"><g transform="translate(658.80996, 176.932691)"><g><path d="M 7.53125 -16.09375 L 4.921875 -6.75 L 10.140625 -6.75 Z M 6.046875 -18.265625 L 9.03125 -18.265625 L 14.625 0 L 12.078125 0 L 10.71875 -4.765625 L 4.328125 -4.765625 L 3.015625 0 L 0.453125 0 Z M 6.046875 -18.265625 "/></g></g></g><g fill="#6b5e4e" fill-opacity="1"><g transform="translate(676.168029, 176.932691)"><g><path d="M 0.578125 -18.265625 L 14.5 -18.265625 L 14.5 -16.1875 L 8.796875 -16.1875 L 8.796875 0 L 6.3125 0 L 6.3125 -16.1875 L 0.578125 -16.1875 Z M 0.578125 -18.265625 "/></g></g></g><g fill="#6b5e4e" fill-opacity="1"><g transform="translate(693.526098, 176.932691)"><g><path d="M 1.671875 -18.265625 L 4.15625 -18.265625 L 4.15625 -10.78125 L 10.921875 -10.78125 L 10.921875 -18.265625 L 13.40625 -18.265625 L 13.40625 0 L 10.921875 0 L 10.921875 -8.703125 L 4.15625 -8.703125 L 4.15625 0 L 1.671875 0 Z M 1.671875 -18.265625 "/></g></g></g></svg>