<svg version="1.1" height="40px" width="65.88px" id="Layer_1" xmlns="http://www.w3.org/2000/svg" xmlns:xlink="http://www.w3.org/1999/xlink" x="0px" y="0px" viewBox="0 0 1008 612" enable-background="new 0 0 1008 612" xml:space="preserve"> <path fill="#FFFFFF" d="M646.4,527.3c0,0,0.1,0,0.1-0.1c0.3-0.2,0.6-0.6,0.9-0.7L646.4,527.3z M788.9,510.5L788.9,510.5L788.9,510.5L788.9,510.5z"/> <path fill="#0076C0" d="M506.5,270.8l-59.9,161.3l-58.3-161.3h-44.3l-46,231.5h47.6l26.3-144.1l53.3,144.1h41l53.4-144.9l27.9,144.9    h45.1l-41.8-231.5H506.5z M176.5,386.1v42.7h73.1c0,0-15.6,40.2-69.8,40.2c0,0-82.1,3.3-89.5-80.4c0,0-6.6-62.4,65.7-82.9c0,0,58.3-14,97.7,30.4l33.6-32c0,0-32.8-41.9-110-45.6c0,0-135.4,1.3-135.4,130.5v2.5c0,0,0.8,116.2,137.9,121.9c0,0,47.6,1.6,84.6-27.9c36.9-29.5,39.8-78.8,39.8-99.3H176.5z M748.6,270.8h-48.4l-96.9,231.5h49.3l20.1-47.2h103.7l19.9,47.2h51.7L748.6,270.8z M690.9,412.4l33.9-79.6l33.6,79.6H690.9z"/><linearGradient id="SVGID_1_" gradientUnits="userSpaceOnUse" x1="814.8499" y1="146.5" x2="908.9679" y2="307.4915">    <stop  offset="0" style="stop-color:#EB2227"/>    <stop  offset="0.2472" style="stop-color:#FDEE20"/><stop  offset="0.4888" style="stop-color:#10B04B"/><stop  offset="0.7191" style="stop-color:#23B7EB"/><stop  offset="1" style="stop-color:#EB2227"/></linearGradient><path fill="url(#SVGID_1_)" d="M819.7,172.6c0,0-51-11.4-67.8,7.2c-16.8,18.6,3.6,49.8,26.4,63.6c22.8,13.8,48,35.4,92.4,43.8    c0,0,20.4,7.8,30-31.2c9.6-39,28.8-142.8-5.4-144c-34.2-1.2-48,85.2-48,85.2s-4.8-113.4,51-114.6c55.8-1.2,63,119.4,62.4,155.4c-0.6,36-15,109.8-91.8,84C792.1,296.3,657,181.2,687,139.6C710.4,107.2,819.7,172.6,819.7,172.6z"/></svg>